g OL_OnsenDev_TNT
v -0.06491131 -0.04164829 0.202476
v -4.62115E-06 -0.08200738 0.2024758
v -0.03720131 -0.07136516 0.202476
v 0.06510781 0.04157153 0.2024759
v 4.103167E-08 0.08200896 0.202476
v 0.03720559 0.07136431 0.202476
v -3.635548E-09 0.08704147 -0.001075803
v 0.06967977 0.04389013 -0.001075821
v 0.03997913 0.07560322 -0.001075811
v -3.677725E-08 -0.08704139 -0.001075829
v -0.06967977 -0.04389007 -0.00107582
v -0.03997916 -0.07560316 -0.001075828
v -0.0806938 4.137473E-08 -0.001075821
v 0.06967974 -0.04389014 -0.001075821
v -0.06967977 0.04389013 -0.001075821
v 0.03997909 -0.07560319 -0.00107583
v -3.677725E-08 -0.08704139 -0.001075829
v -0.06967977 -0.04389007 -0.00107582
v 0.06510983 -0.04156303 0.202476
v -0.07553798 7.706222E-06 0.202476
v -0.06510772 0.04157154 0.2024759
v 0.0369999 -0.07132451 0.202476
v -0.06491131 -0.04164829 0.202476
v -4.62115E-06 -0.08200738 0.2024758
v 0.08454263 2.891437E-08 -0.001075821
v 0.08053611 0.04964815 0.004587212
v 0.07311425 0.04554129 -0.001075821
v 0.0929951 2.817385E-08 0.004587221
v 0.1053504 2.41452E-08 0.03517601
v 0.0912361 0.05363555 0.03517602
v 0.09975427 0.05759316 0.1054102
v 0.1151863 1.636337E-08 0.1054102
v 0.0912361 0.05363553 0.1756443
v 0.1053504 7.315304E-09 0.1756443
v 0.08053611 0.04964814 0.2062331
v 0.0929951 2.90519E-09 0.2062331
v 0.07625587 0.04749814 0.2118961
v 0.08817533 4.440867E-09 0.2118961
v 0.07113247 0.04485185 0.2118961
v 0.08238785 4.47817E-08 0.2118961
v 0.07625585 -0.04749818 0.2118962
v 0.04080013 0.07723942 0.2118962
v 0.04389538 0.08205128 0.2118962
v 0.03920477 0.0746321 0.202476
v 0.06845859 0.04339613 0.2024759
v 7.12902E-09 0.08891252 0.2118962
v 0.07113245 -0.0448518 0.2118962
v 0.07934861 1.765739E-07 0.202476
v 0.06845856 -0.04339579 0.202476
v 0.04367095 -0.08196657 0.2118961
v 0.0405861 -0.07717867 0.2118961
v 0.0464975 -0.08599313 0.206233
v 0.08053609 -0.04964818 0.2062332
v 0.05267513 -0.09289949 0.1756443
v 0.09123606 -0.05363557 0.1756443
v 0.05759309 -0.09975428 0.1054101
v 0.09975424 -0.05759321 0.1054101
v 0.05267513 -0.09289946 0.03517599
v 0.09123606 -0.05363555 0.03517599
v 0.08053609 -0.04964817 0.004587212
v 0.0464975 -0.08599308 0.004587212
v 0.04208691 -0.07867092 -0.00107583
v 0.07311422 -0.04554131 -0.001075821
v -4.071701E-08 -0.09461003 0.211896
v -2.618195E-08 -0.08891249 0.211896
v 0.0389943 -0.07459117 0.202476
v 8.923889E-09 -0.08584847 0.2024758
v -0.0438954 -0.08205131 0.2118961
v -0.04080013 -0.07723935 0.2118961
v -0.04649757 -0.08599309 0.206233
v -4.323456E-08 -0.09929628 0.206233
v -0.05267522 -0.09289943 0.1756443
v -4.897868E-08 -0.107271 0.1756443
v -0.05759319 -0.09975424 0.1054101
v -5.355153E-08 -0.1151863 0.1054101
v -0.05267522 -0.0928994 0.03517599
v -4.897868E-08 -0.107271 0.03517599
v -4.323456E-08 -0.09929623 0.004587212
v -0.04649757 -0.08599303 0.004587212
v -0.04208698 -0.07867087 -0.00107583
v -3.903953E-08 -0.09071217 -0.00107583
v -0.0760216 -0.04754521 0.2118962
v -0.07091917 -0.04491464 0.2118962
v -0.0392047 -0.07463174 0.202476
v -0.06825794 -0.04347435 0.202476
v -0.08817533 1.823652E-08 0.2118961
v -0.08238783 5.708069E-08 0.2118961
v -0.0929951 1.789851E-08 0.2062331
v -0.08053613 -0.0496481 0.2062332
v -0.1053504 2.351278E-08 0.1756443
v -0.09123611 -0.05363549 0.1756443
v -0.1151863 3.375602E-08 0.1054102
v -0.09975428 -0.05759311 0.1054101
v -0.1053504 4.034268E-08 0.03517601
v -0.09123611 -0.05363547 0.03517599
v -0.08053613 -0.04964809 0.004587212
v -0.0929951 4.316717E-08 0.004587221
v -0.08454263 4.196911E-08 -0.001075821
v -0.07311425 -0.04554124 -0.001075821
v -0.07625587 0.04749815 0.2118961
v -0.07113246 0.04485185 0.2118961
v -0.07934853 1.882879E-07 0.202476
v -0.06845849 0.04339614 0.2024759
v -0.04389539 0.08205128 0.2118962
v -0.04080012 0.07723942 0.2118962
v -0.04649755 0.08599307 0.2062332
v -0.08053611 0.04964815 0.2062331
v -0.0526752 0.09289943 0.1756444
v -0.0912361 0.05363553 0.1756443
v -0.05759315 0.0997543 0.1054102
v -0.09975427 0.05759317 0.1054102
v -0.0526752 0.09289946 0.03517602
v -0.0912361 0.05363555 0.03517602
v -0.08053611 0.04964815 0.004587212
v -0.04649755 0.08599313 0.004587231
v -0.04208696 0.07867094 -0.001075811
v -0.07311425 0.04554129 -0.001075821
v -4.195616E-09 0.09460995 0.2118962
v -0.03920469 0.0746321 0.202476
v 4.071109E-08 0.08584872 0.202476
v 0.04649754 0.08599307 0.2062332
v -4.064945E-09 0.09929624 0.2062332
v 0.05267518 0.09289943 0.1756444
v -4.605011E-09 0.107271 0.1756444
v 0.05759315 0.0997543 0.1054102
v -5.034953E-09 0.1151863 0.1054102
v 0.05267518 0.09289946 0.03517602
v -4.605011E-09 0.1072711 0.03517602
v -4.064945E-09 0.0992963 0.004587231
v 0.04649754 0.08599313 0.004587231
v 0.04208695 0.07867094 -0.001075811
v -4.022763E-09 0.09071224 -0.001075802
v 0.07311422 -0.04554131 -0.001075821
v 0.0929951 2.817385E-08 0.004587221
v 0.08454263 2.891437E-08 -0.001075821
v 0.08053609 -0.04964817 0.004587212
v 0.09123606 -0.05363555 0.03517599
v 0.1053504 2.41452E-08 0.03517601
v 0.1151863 1.636337E-08 0.1054102
v 0.09975424 -0.05759321 0.1054101
v 0.1053504 7.315304E-09 0.1756443
v 0.09123606 -0.05363557 0.1756443
v 0.0929951 2.90519E-09 0.2062331
v 0.08053609 -0.04964818 0.2062332
v 0.08817533 4.440867E-09 0.2118961
v 0.07625585 -0.04749818 0.2118962
v -3.903953E-08 -0.09071217 -0.00107583
v 0.0464975 -0.08599308 0.004587212
v 0.04208691 -0.07867092 -0.00107583
v -4.323456E-08 -0.09929623 0.004587212
v -4.897868E-08 -0.107271 0.03517599
v 0.05267513 -0.09289946 0.03517599
v 0.05759309 -0.09975428 0.1054101
v -5.355153E-08 -0.1151863 0.1054101
v 0.05267513 -0.09289949 0.1756443
v -4.897868E-08 -0.107271 0.1756443
v 0.0464975 -0.08599313 0.206233
v -4.323456E-08 -0.09929628 0.206233
v 0.04367095 -0.08196657 0.2118961
v -4.071701E-08 -0.09461003 0.211896
v -0.07311425 -0.04554124 -0.001075821
v -0.04649757 -0.08599303 0.004587212
v -0.04208698 -0.07867087 -0.00107583
v -0.08053613 -0.04964809 0.004587212
v -0.09123611 -0.05363547 0.03517599
v -0.05267522 -0.0928994 0.03517599
v -0.05759319 -0.09975424 0.1054101
v -0.09975428 -0.05759311 0.1054101
v -0.05267522 -0.09289943 0.1756443
v -0.09123611 -0.05363549 0.1756443
v -0.04649757 -0.08599309 0.206233
v -0.08053613 -0.0496481 0.2062332
v -0.0438954 -0.08205131 0.2118961
v -0.0760216 -0.04754521 0.2118962
v -0.07311425 0.04554129 -0.001075821
v -0.0929951 4.316717E-08 0.004587221
v -0.08454263 4.196911E-08 -0.001075821
v -0.08053611 0.04964815 0.004587212
v -0.0912361 0.05363555 0.03517602
v -0.1053504 4.034268E-08 0.03517601
v -0.1151863 3.375602E-08 0.1054102
v -0.09975427 0.05759317 0.1054102
v -0.1053504 2.351278E-08 0.1756443
v -0.0912361 0.05363553 0.1756443
v -0.0929951 1.789851E-08 0.2062331
v -0.08053611 0.04964815 0.2062331
v -0.08817533 1.823652E-08 0.2118961
v -0.07625587 0.04749815 0.2118961
v -4.022763E-09 0.09071224 -0.001075802
v -0.04649755 0.08599313 0.004587231
v -0.04208696 0.07867094 -0.001075811
v -4.064945E-09 0.0992963 0.004587231
v -4.605011E-09 0.1072711 0.03517602
v -0.0526752 0.09289946 0.03517602
v -0.05759315 0.0997543 0.1054102
v -5.034953E-09 0.1151863 0.1054102
v -0.0526752 0.09289943 0.1756444
v -4.605011E-09 0.107271 0.1756444
v -0.04649755 0.08599307 0.2062332
v -4.064945E-09 0.09929624 0.2062332
v -0.04389539 0.08205128 0.2118962
v -4.195616E-09 0.09460995 0.2118962
v 0.07311425 0.04554129 -0.001075821
v 0.04649754 0.08599313 0.004587231
v 0.04208695 0.07867094 -0.001075811
v 0.08053611 0.04964815 0.004587212
v 0.0912361 0.05363555 0.03517602
v 0.05267518 0.09289946 0.03517602
v 0.05759315 0.0997543 0.1054102
v 0.09975427 0.05759316 0.1054102
v 0.05267518 0.09289943 0.1756444
v 0.0912361 0.05363553 0.1756443
v 0.04649754 0.08599307 0.2062332
v 0.08053611 0.04964814 0.2062331
v 0.04389538 0.08205128 0.2118962
v 0.07625587 0.04749814 0.2118961
v 0.08238785 4.47817E-08 0.2118961
v 0.06845859 0.04339613 0.2024759
v 0.07113247 0.04485185 0.2118961
v 0.07934861 1.765739E-07 0.202476
v 0.04080013 0.07723942 0.2118962
v 4.071109E-08 0.08584872 0.202476
v 7.12902E-09 0.08891252 0.2118962
v 0.03920477 0.0746321 0.202476
v -0.04080012 0.07723942 0.2118962
v -0.06845849 0.04339614 0.2024759
v -0.07113246 0.04485185 0.2118961
v -0.03920469 0.0746321 0.202476
v -0.08238783 5.708069E-08 0.2118961
v -0.06825794 -0.04347435 0.202476
v -0.07091917 -0.04491464 0.2118962
v -0.07934853 1.882879E-07 0.202476
v -0.04080013 -0.07723935 0.2118961
v 8.923889E-09 -0.08584847 0.2024758
v -2.618195E-08 -0.08891249 0.211896
v -0.0392047 -0.07463174 0.202476
v 0.0405861 -0.07717867 0.2118961
v 0.06845856 -0.04339579 0.202476
v 0.07113245 -0.0448518 0.2118962
v 0.0389943 -0.07459117 0.202476
v -0.06510772 0.04157154 0.2024759
v 0.07553995 1.77998E-07 0.202476
v 0.06510983 -0.04156303 0.202476
v -0.03720551 0.07136431 0.202476
v 0.06510781 0.04157153 0.2024759
v 4.103167E-08 0.08200896 0.202476
v 0.1016494 0.05879909 0.1619554
v 0.05478634 0.09640566 0.1875972
v 0.0586725 0.1018223 0.1619555
v 0.05818403 0.1007777 0.1581442
v 0.1007777 0.05818405 0.1581442
v 0.1173887 1.559518E-08 0.1619554
v 0.1163681 1.645589E-08 0.1581442
v -1.351547E-08 8.913566E-09 0.1581442
v 0.1007777 -0.05818408 0.1581442
v -5.331907E-09 0.1163681 0.1581442
v -0.05818404 0.1007777 0.1581442
v -5.128627E-09 0.1175616 0.1619555
v -4.790262E-09 0.1113323 0.1875972
v -0.05867251 0.1018223 0.1619555
v -0.05478635 0.09640566 0.1875972
v -0.1007777 0.05818405 0.1581442
v -0.1016494 0.0587991 0.1619554
v -0.09486706 0.05564791 0.1875972
v -0.1163681 3.402698E-08 0.1581442
v -0.1007777 -0.05818399 0.1581442
v -0.1173887 3.335371E-08 0.1619554
v -0.109529 2.554715E-08 0.1875972
v -0.09486707 -0.05564788 0.1875972
v -0.1016495 -0.05879903 0.1619554
v -0.1062475 2.387021E-08 0.1914084
v -0.05478638 -0.09640565 0.1875971
v -0.09202158 -0.05409727 0.1914084
v -0.05313835 -0.09371621 0.1914084
v -1.58324E-08 -2.774964E-09 0.1914084
v -5.094901E-08 -0.1113323 0.1875971
v -0.05867254 -0.1018223 0.1619554
v -4.972225E-08 -0.1082238 0.1914084
v 0.05313826 -0.09371626 0.1914084
v 0.09202154 -0.05409735 0.1914084
v 0.05478629 -0.09640571 0.1875971
v -5.454783E-08 -0.1175616 0.1619554
v 0.09486702 -0.05564796 0.1875972
v 0.05867244 -0.1018223 0.1619554
v 0.109529 8.743659E-09 0.1875972
v 0.1062475 7.534793E-09 0.1914084
v -0.1062475 2.387021E-08 0.1914084
v -0.09202158 -0.05409727 0.1914084
v -0.09202158 0.05409729 0.1914084
v -0.109529 2.554715E-08 0.1875972
v -0.09486706 0.05564791 0.1875972
v -0.1016494 0.0587991 0.1619554
v -0.05313831 0.09371623 0.1914085
v -0.05478635 0.09640566 0.1875972
v -0.05867251 0.1018223 0.1619555
v -4.954463E-09 0.1082238 0.1914085
v -4.790262E-09 0.1113323 0.1875972
v -5.128627E-09 0.1175616 0.1619555
v 0.0531383 0.09371623 0.1914085
v 0.05478634 0.09640566 0.1875972
v 0.0586725 0.1018223 0.1619555
v 0.09202158 0.05409729 0.1914084
v 0.1062475 7.534793E-09 0.1914084
v 0.09202154 -0.05409735 0.1914084
v 0.09486706 0.0556479 0.1875972
v 0.1016494 0.05879909 0.1619554
v 0.109529 8.743659E-09 0.1875972
v 0.1173887 1.559518E-08 0.1619554
v 0.1016494 -0.05879912 0.1619554
v 0.09486702 -0.05564796 0.1875972
v 0.1163681 1.645589E-08 0.1581442
v 0.05867244 -0.1018223 0.1619554
v 0.1007777 -0.05818408 0.1581442
v 0.05818397 -0.1007777 0.1581442
v -5.454783E-08 -0.1175616 0.1619554
v 0.05478629 -0.09640571 0.1875971
v -5.434624E-08 -0.1163681 0.1581442
v -0.05818407 -0.1007777 0.1581442
v -0.1007777 -0.05818399 0.1581442
v -0.05867254 -0.1018223 0.1619554
v -5.094901E-08 -0.1113323 0.1875971
v -0.1016495 -0.05879903 0.1619554
v -0.05478638 -0.09640565 0.1875971
v -0.1173887 3.335371E-08 0.1619554
v -0.1163681 3.402698E-08 0.1581442
v 0.05478634 0.09640568 0.02322321
v 0.1016494 0.0587991 0.04886492
v 0.0586725 0.1018223 0.04886493
v 0.05818403 0.1007777 0.05267617
v 0.1007777 0.05818406 0.05267617
v 0.1173887 2.907662E-08 0.04886491
v 0.1163681 2.902866E-08 0.05267616
v -1.351547E-08 2.148633E-08 0.05267617
v 0.1007777 -0.05818407 0.05267616
v -5.331907E-09 0.1163681 0.05267617
v -0.05818404 0.1007777 0.05267617
v -5.128627E-09 0.1175616 0.04886493
v -4.790262E-09 0.1113323 0.02322321
v -0.05867251 0.1018223 0.04886493
v -0.05478635 0.09640568 0.02322321
v -0.1007777 0.05818407 0.05267617
v -0.1016494 0.05879911 0.04886492
v -0.09486706 0.05564792 0.0232232
v -0.1163681 4.659975E-08 0.05267616
v -0.1007777 -0.05818398 0.05267616
v -0.1173887 4.683515E-08 0.04886491
v -0.109529 4.514206E-08 0.0232232
v -0.09486707 -0.05564786 0.02322319
v -0.1016495 -0.05879902 0.04886491
v -0.1062475 4.437379E-08 0.01941192
v -0.05478638 -0.09640563 0.02322318
v -0.09202158 -0.05409724 0.01941192
v -0.05313835 -0.09371619 0.01941191
v -1.58324E-08 1.772862E-08 0.01941192
v -5.094901E-08 -0.1113323 0.02322318
v -0.05867254 -0.1018223 0.0488649
v -4.972225E-08 -0.1082238 0.01941191
v 0.05313826 -0.09371625 0.01941191
v 0.09202154 -0.05409732 0.01941192
v 0.05478629 -0.09640568 0.02322318
v -5.454783E-08 -0.1175616 0.0488649
v 0.09486702 -0.05564794 0.02322319
v 0.05867244 -0.1018223 0.0488649
v 0.109529 2.833856E-08 0.0232232
v 0.1062475 2.803838E-08 0.01941192
v -0.1062475 4.437379E-08 0.01941192
v -0.09202158 -0.05409724 0.01941192
v -0.09202158 0.05409731 0.01941193
v -0.109529 4.514206E-08 0.0232232
v -0.09486706 0.05564792 0.0232232
v -0.1016494 0.05879911 0.04886492
v -0.05313831 0.09371625 0.01941193
v -0.05478635 0.09640568 0.02322321
v -0.05867251 0.1018223 0.04886493
v -4.954463E-09 0.1082238 0.01941193
v -4.790262E-09 0.1113323 0.02322321
v 0.0531383 0.09371625 0.01941193
v 0.05478634 0.09640568 0.02322321
v 0.0586725 0.1018223 0.04886493
v 0.09202158 0.05409731 0.01941193
v 0.1062475 2.803838E-08 0.01941192
v 0.09202154 -0.05409732 0.01941192
v 0.09486706 0.05564792 0.0232232
v 0.1016494 0.0587991 0.04886492
v 0.109529 2.833856E-08 0.0232232
v 0.1173887 2.907662E-08 0.04886491
v 0.1016494 -0.05879911 0.04886491
v 0.09486702 -0.05564794 0.02322319
v 0.1163681 2.902866E-08 0.05267616
v 0.05867244 -0.1018223 0.0488649
v 0.1007777 -0.05818407 0.05267616
v 0.05818397 -0.1007777 0.05267615
v -5.454783E-08 -0.1175616 0.0488649
v 0.05478629 -0.09640568 0.02322318
v -5.434624E-08 -0.1163681 0.05267615
v -0.05818407 -0.1007777 0.05267615
v -0.1007777 -0.05818398 0.05267616
v -0.05867254 -0.1018223 0.0488649
v -0.1016495 -0.05879902 0.04886491
v -0.05478638 -0.09640563 0.02322318
v -0.1173887 4.683515E-08 0.04886491
v -0.1163681 4.659975E-08 0.05267616
v -0.06427002 -0.1001485 0.1123006
v -0.04171585 -0.1086384 0.06791065
v -0.05662464 -0.09989801 0.06528182
v -0.04963195 -0.1089446 0.1150946
v -0.04034813 -0.1157922 0.1315089
v -0.03728252 -0.1160705 0.1168994
v -0.07734232 -0.09402471 0.1241943
v -0.07712725 -0.09268859 0.1096475
v 0.03299271 -0.1135936 0.07950657
v 0.006476826 -0.1181688 0.1370863
v 0.02359646 -0.1135937 0.1406596
v 0.0127165 -0.1181689 0.1037964
v 0.01873694 -0.1181688 0.07699288
v -6.982006E-05 -0.1207883 0.09364296
v 6.984193E-06 -0.120744 0.1155666
v -0.01286181 -0.1181688 0.1052029
v -0.01998811 -0.1181688 0.1340838
v -0.03431276 -0.1137584 0.1293393
v -0.02331305 -0.1137584 0.06957834
v -0.007353788 -0.1181688 0.07239239
v 0.04591471 -0.1085258 0.129192
v 0.06939099 -0.1013498 0.08467226
v 0.05378871 -0.1087375 0.08192115
v 0.06159702 -0.101091 0.1320702
v 0.07132631 -0.09530324 0.1483705
v 0.07441402 -0.09506795 0.1337649
v 0.03260508 -0.1137019 0.1407515
v 0.03271416 -0.1148312 0.126186
v -0.03997913 0.07560322 -0.001075812
v 0.06967977 0.04389013 -0.001075821
v -3.635548E-09 0.08704147 -0.001075803
v 0.0806938 2.945838E-08 -0.001075821
v -0.06967977 0.04389013 -0.001075821
v 0.06967974 -0.04389014 -0.001075821
v 0.04382629 0.01841154 0.2048773
v 0.02691665 0.03553818 0.2048773
v 0.03186937 0.02342782 0.2048773
v 0.06073594 0.03553818 0.2048773
v 0.05578322 0.02342782 0.2048773
v 0.04382629 0.05266482 0.2048773
v 0.03186937 0.04764854 0.2048773
v 0.05578322 0.04764854 0.2048773
v 0.03282712 0.02439786 0.2165249
v 0.02691665 0.03553818 0.2048773
v 0.02827111 0.03553818 0.2165249
v 0.03186937 0.04764854 0.2048773
v 0.03282712 0.0466785 0.2165249
v 0.04382629 0.05266482 0.2048773
v 0.03124747 0.03553818 0.2188728
v 0.04382629 0.05129297 0.2165249
v 0.05578322 0.04764854 0.2048773
v 0.03493172 0.04454689 0.2188728
v 0.05482547 0.0466785 0.2165249
v 0.06073594 0.03553818 0.2048773
v 0.04382629 0.04827841 0.2188728
v 0.05938147 0.03553818 0.2165249
v 0.05578322 0.02342782 0.2048773
v 0.05482546 0.02439786 0.2165249
v 0.05272086 0.04454689 0.2188728
v 0.05640511 0.03553818 0.2188728
v 0.04382629 0.02279795 0.2188728
v 0.03493172 0.02652947 0.2188728
v 0.05272086 0.02652947 0.2188728
v 0.04382629 0.01841154 0.2048773
v 0.05482546 0.02439786 0.2165249
v 0.04382629 0.0197834 0.2165249
v 0.03186937 0.02342782 0.2048773
v 0.03282712 0.02439786 0.2165249
v 0.05272086 0.02652947 0.2188728
v 0.05640511 0.03553818 0.2188728
v 0.05938147 0.03553818 0.2165249
v 0.04382629 0.02279795 0.2188728
v 0.03493172 0.02652947 0.2188728
v 0.02827111 0.03553818 0.2165249
v 0.03124747 0.03553818 0.2188728
v 0.0389943 -0.07459117 0.202476
v 0.06510983 -0.04156303 0.202476
v 0.06845856 -0.04339579 0.202476
v 0.0369999 -0.07132451 0.202476
v 0.07553995 1.77998E-07 0.202476
v 8.923889E-09 -0.08584847 0.2024758
v 0.07934861 1.765739E-07 0.202476
v -4.62115E-06 -0.08200738 0.2024758
v 0.06510781 0.04157153 0.2024759
v -0.0392047 -0.07463174 0.202476
v 0.06845859 0.04339613 0.2024759
v -0.03720131 -0.07136516 0.202476
v 0.03720559 0.07136431 0.202476
v -0.06825794 -0.04347435 0.202476
v 0.03920477 0.0746321 0.202476
v -0.06491131 -0.04164829 0.202476
v 4.103167E-08 0.08200896 0.202476
v -0.07934853 1.882879E-07 0.202476
v 4.071109E-08 0.08584872 0.202476
v -0.07553798 7.706222E-06 0.202476
v -0.03720551 0.07136431 0.202476
v -0.06845849 0.04339614 0.2024759
v -0.03920469 0.0746321 0.202476
v -0.06510772 0.04157154 0.2024759
v 0.07311422 -0.04554131 -0.001075821
v 0.03997909 -0.07560319 -0.00107583
v 0.04208691 -0.07867092 -0.00107583
v 0.06967974 -0.04389014 -0.001075821
v -3.677725E-08 -0.08704139 -0.001075829
v 0.08454263 2.891437E-08 -0.001075821
v -3.903953E-08 -0.09071217 -0.00107583
v 0.0806938 2.945838E-08 -0.001075821
v -0.03997916 -0.07560316 -0.001075828
v 0.07311425 0.04554129 -0.001075821
v -0.04208698 -0.07867087 -0.00107583
v 0.06967977 0.04389013 -0.001075821
v -0.06967977 -0.04389007 -0.00107582
v 0.04208695 0.07867094 -0.001075811
v -0.07311425 -0.04554124 -0.001075821
v 0.03997913 0.07560322 -0.001075811
v -0.0806938 4.137473E-08 -0.001075821
v -4.022763E-09 0.09071224 -0.001075802
v -0.08454263 4.196911E-08 -0.001075821
v -3.635548E-09 0.08704147 -0.001075803
v -0.06967977 0.04389013 -0.001075821
v -0.04208696 0.07867094 -0.001075811
v -0.07311425 0.04554129 -0.001075821
v -0.03997913 0.07560322 -0.001075812
vt 0.9452077 0.5842789
vt 0.9344912 0.5842789
vt 0.9400015 0.5877219
vt 0.9344912 0.5842789
vt 0.9452077 0.5842789
vt 0.9400015 0.5877219
vt 0.9452077 0.5842789
vt 0.9344912 0.5842789
vt 0.9400015 0.5877219
vt 0.9344912 0.5842789
vt 0.9452077 0.5842789
vt 0.9400015 0.5877219
vt 0.45985 0.3367084
vt 0.4435471 0.0645762
vt 0.45985 0.0645762
vt 0.4435471 0.3367084
vt 0.4435471 0.5598122
vt 0.45985 0.5598122
vt 0.4435471 0.0645762
vt 0.45985 0.3367084
vt 0.45985 0.0645762
vt 0.4435471 0.3367084
vt 0.45985 0.5598122
vt 0.4435471 0.5598122
vt 0.729134 0.4656643
vt 0.8740491 0.0356551
vt 0.7291341 0.0356551
vt 0.874049 0.4656643
vt 0.8748245 0.4656643
vt 0.8748245 0.0356551
vt 0.8751349 0.0356551
vt 0.8751349 0.4656643
vt 0.8756429 0.0356551
vt 0.8756429 0.4656643
vt 0.8759385 0.0356551
vt 0.8759384 0.4656643
vt 0.9791415 0.0356551
vt 0.9791415 0.4656643
vt 0.9791415 0.0356551
vt 0.9791415 0.4656643
vt 0.9791415 0.0356551
vt 0.9791415 0.4656643
vt 0.9791415 0.4656643
vt 0.8759366 0.4656643
vt 0.8759366 0.0356551
vt 0.9791415 0.0356551
vt 0.9791415 0.0356551
vt 0.8759366 0.4656643
vt 0.8759366 0.0356551
vt 0.9791415 0.4656643
vt 0.9791415 0.4656643
vt 0.8759384 0.4656643
vt 0.8759385 0.0356551
vt 0.8756429 0.4656643
vt 0.8756429 0.0356551
vt 0.8751349 0.4656643
vt 0.8751349 0.0356551
vt 0.8748245 0.4656643
vt 0.8748245 0.0356551
vt 0.8740491 0.0356551
vt 0.874049 0.4656643
vt 0.729134 0.4656643
vt 0.7291341 0.0356551
vt 0.9791415 0.0356551
vt 0.9791415 0.0356551
vt 0.8759366 0.4656643
vt 0.8759366 0.0356551
vt 0.9791415 0.4656643
vt 0.9791415 0.4656643
vt 0.8759384 0.4656643
vt 0.8759385 0.0356551
vt 0.8756429 0.4656643
vt 0.8756429 0.0356551
vt 0.8751349 0.4656643
vt 0.8751349 0.0356551
vt 0.8748245 0.4656643
vt 0.8748245 0.0356551
vt 0.8740491 0.0356551
vt 0.874049 0.4656643
vt 0.729134 0.4656643
vt 0.7291341 0.0356551
vt 0.9791415 0.0356551
vt 0.9791415 0.0356551
vt 0.8759366 0.4656643
vt 0.8759366 0.0356551
vt 0.9791415 0.4656643
vt 0.9791415 0.4656643
vt 0.8759384 0.4656643
vt 0.8759385 0.0356551
vt 0.8756429 0.4656643
vt 0.8756429 0.0356551
vt 0.8751349 0.4656643
vt 0.8751349 0.0356551
vt 0.8748245 0.4656643
vt 0.8748245 0.0356551
vt 0.8740491 0.0356551
vt 0.874049 0.4656643
vt 0.729134 0.4656643
vt 0.7291341 0.0356551
vt 0.9791415 0.0356551
vt 0.9791415 0.0356551
vt 0.8759366 0.4656643
vt 0.8759366 0.0356551
vt 0.9791415 0.4656643
vt 0.9791415 0.4656643
vt 0.8759384 0.4656643
vt 0.8759385 0.0356551
vt 0.8756429 0.4656643
vt 0.8756429 0.0356551
vt 0.8751349 0.4656643
vt 0.8751349 0.0356551
vt 0.8748245 0.4656643
vt 0.8748245 0.0356551
vt 0.8740491 0.0356551
vt 0.874049 0.4656643
vt 0.729134 0.4656643
vt 0.7291341 0.0356551
vt 0.9791415 0.0356551
vt 0.8759366 0.4656643
vt 0.8759366 0.0356551
vt 0.8759384 0.4656643
vt 0.8759385 0.0356551
vt 0.8756429 0.4656643
vt 0.8756429 0.0356551
vt 0.8751349 0.4656643
vt 0.8751349 0.0356551
vt 0.8748245 0.4656643
vt 0.8748245 0.0356551
vt 0.8740491 0.0356551
vt 0.874049 0.4656643
vt 0.729134 0.4656643
vt 0.7291341 0.0356551
vt 0.7291341 0.0356551
vt 0.874049 0.4656643
vt 0.729134 0.4656643
vt 0.8740491 0.0356551
vt 0.8748245 0.0356551
vt 0.8748245 0.4656643
vt 0.8751349 0.4656643
vt 0.8751349 0.0356551
vt 0.8756429 0.4656643
vt 0.8756429 0.0356551
vt 0.8759384 0.4656643
vt 0.8759385 0.0356551
vt 0.9791415 0.4656643
vt 0.9791415 0.0356551
vt 0.7291341 0.0356551
vt 0.874049 0.4656643
vt 0.729134 0.4656643
vt 0.8740491 0.0356551
vt 0.8748245 0.0356551
vt 0.8748245 0.4656643
vt 0.8751349 0.4656643
vt 0.8751349 0.0356551
vt 0.8756429 0.4656643
vt 0.8756429 0.0356551
vt 0.8759384 0.4656643
vt 0.8759385 0.0356551
vt 0.9791415 0.4656643
vt 0.9791415 0.0356551
vt 0.7291341 0.0356551
vt 0.874049 0.4656643
vt 0.729134 0.4656643
vt 0.8740491 0.0356551
vt 0.8748245 0.0356551
vt 0.8748245 0.4656643
vt 0.8751349 0.4656643
vt 0.8751349 0.0356551
vt 0.8756429 0.4656643
vt 0.8756429 0.0356551
vt 0.8759384 0.4656643
vt 0.8759385 0.0356551
vt 0.9791415 0.4656643
vt 0.9791415 0.0356551
vt 0.7291341 0.0356551
vt 0.874049 0.4656643
vt 0.729134 0.4656643
vt 0.8740491 0.0356551
vt 0.8748245 0.0356551
vt 0.8748245 0.4656643
vt 0.8751349 0.4656643
vt 0.8751349 0.0356551
vt 0.8756429 0.4656643
vt 0.8756429 0.0356551
vt 0.8759384 0.4656643
vt 0.8759385 0.0356551
vt 0.9791415 0.4656643
vt 0.9791415 0.0356551
vt 0.7291341 0.0356551
vt 0.874049 0.4656643
vt 0.729134 0.4656643
vt 0.8740491 0.0356551
vt 0.8748245 0.0356551
vt 0.8748245 0.4656643
vt 0.8751349 0.4656643
vt 0.8751349 0.0356551
vt 0.8756429 0.4656643
vt 0.8756429 0.0356551
vt 0.8759384 0.4656643
vt 0.8759385 0.0356551
vt 0.9791415 0.4656643
vt 0.9791415 0.0356551
vt 0.7291341 0.0356551
vt 0.874049 0.4656643
vt 0.729134 0.4656643
vt 0.8740491 0.0356551
vt 0.8748245 0.0356551
vt 0.8748245 0.4656643
vt 0.8751349 0.4656643
vt 0.8751349 0.0356551
vt 0.8756429 0.4656643
vt 0.8756429 0.0356551
vt 0.8759384 0.4656643
vt 0.8759385 0.0356551
vt 0.9791415 0.4656643
vt 0.9791415 0.0356551
vt 0.9791415 0.4656643
vt 0.8759366 0.0356551
vt 0.9791415 0.0356551
vt 0.8759366 0.4656643
vt 0.9791415 0.4656643
vt 0.8759366 0.0356551
vt 0.9791415 0.0356551
vt 0.8759366 0.4656643
vt 0.9791415 0.4656643
vt 0.8759366 0.0356551
vt 0.9791415 0.0356551
vt 0.8759366 0.4656643
vt 0.9791415 0.4656643
vt 0.8759366 0.0356551
vt 0.9791415 0.0356551
vt 0.8759366 0.4656643
vt 0.9791415 0.4656643
vt 0.8759366 0.0356551
vt 0.9791415 0.0356551
vt 0.8759366 0.4656643
vt 0.9791415 0.4656643
vt 0.8759366 0.0356551
vt 0.9791415 0.0356551
vt 0.8759366 0.4656643
vt 0.45985 0.0645762
vt 0.4435471 0.3367084
vt 0.4435471 0.0645762
vt 0.45985 0.3367084
vt 0.4435471 0.5598122
vt 0.45985 0.5598122
vt 0.0606891 0.03553086
vt 0.05737623 0.03553086
vt 0.05737623 0.03553086
vt 0.05737623 0.562605
vt 0.0606891 0.562605
vt 0.06190171 0.03553086
vt 0.06190171 0.562605
vt 0.05285138 0.562605
vt 0.0606891 0.562605
vt 0.05285138 0.562605
vt 0.04832643 0.562605
vt 0.05285138 0.03553086
vt 0.05285138 0.03553086
vt 0.04832643 0.03553086
vt 0.04832643 0.03553086
vt 0.04501367 0.562605
vt 0.04501367 0.03553086
vt 0.04501367 0.03553086
vt 0.04380095 0.562605
vt 0.04501367 0.562605
vt 0.04380095 0.03553086
vt 0.04380095 0.03553086
vt 0.04501367 0.03553086
vt 0.04501367 0.03553086
vt 0.04380095 0.562605
vt 0.04832643 0.03553086
vt 0.04501367 0.562605
vt 0.04832643 0.562605
vt 0.05285138 0.562605
vt 0.05285138 0.03553086
vt 0.04832643 0.03553086
vt 0.05285138 0.562605
vt 0.05737623 0.562605
vt 0.0606891 0.562605
vt 0.05737623 0.03553086
vt 0.05285138 0.03553086
vt 0.0606891 0.03553086
vt 0.05737623 0.03553086
vt 0.06190171 0.03553086
vt 0.06190171 0.562605
vt 0.04380095 0.562605
vt 0.04501367 0.562605
vt 0.04501367 0.562605
vt 0.04380095 0.03553086
vt 0.04501367 0.03553086
vt 0.04501367 0.03553086
vt 0.04832643 0.562605
vt 0.04832643 0.03553086
vt 0.04832643 0.03553086
vt 0.05285138 0.562605
vt 0.05285138 0.03553086
vt 0.05285138 0.03553086
vt 0.05737623 0.562605
vt 0.05737623 0.03553086
vt 0.05737623 0.03553086
vt 0.0606891 0.562605
vt 0.06190171 0.562605
vt 0.0606891 0.562605
vt 0.0606891 0.03553086
vt 0.0606891 0.03553086
vt 0.06190171 0.03553086
vt 0.06190171 0.03553086
vt 0.0606891 0.03553086
vt 0.0606891 0.03553086
vt 0.06190171 0.562605
vt 0.05737623 0.03553086
vt 0.0606891 0.562605
vt 0.05737623 0.562605
vt 0.05285138 0.03553086
vt 0.05737623 0.03553086
vt 0.05285138 0.562605
vt 0.04832643 0.562605
vt 0.04501367 0.562605
vt 0.04832643 0.03553086
vt 0.05285138 0.03553086
vt 0.04501367 0.03553086
vt 0.04832643 0.03553086
vt 0.04380095 0.03553086
vt 0.04380095 0.562605
vt 0.04832643 0.03553086
vt 0.04501367 0.03553086
vt 0.04832643 0.03553086
vt 0.04832643 0.562605
vt 0.04501367 0.562605
vt 0.04380095 0.03553086
vt 0.04380095 0.562605
vt 0.05285138 0.562605
vt 0.04501367 0.562605
vt 0.05285138 0.562605
vt 0.05737623 0.562605
vt 0.05285138 0.03553086
vt 0.05285138 0.03553086
vt 0.05737623 0.03553086
vt 0.05737623 0.03553086
vt 0.0606891 0.562605
vt 0.0606891 0.03553086
vt 0.0606891 0.03553086
vt 0.06190171 0.562605
vt 0.0606891 0.562605
vt 0.06190171 0.03553086
vt 0.06190171 0.03553086
vt 0.0606891 0.03553086
vt 0.0606891 0.03553086
vt 0.06190171 0.562605
vt 0.05737623 0.03553086
vt 0.0606891 0.562605
vt 0.05737623 0.562605
vt 0.05285138 0.562605
vt 0.05285138 0.03553086
vt 0.05737623 0.03553086
vt 0.05285138 0.562605
vt 0.04832643 0.562605
vt 0.04501367 0.562605
vt 0.04832643 0.03553086
vt 0.05285138 0.03553086
vt 0.04501367 0.03553086
vt 0.04832643 0.03553086
vt 0.04380095 0.03553086
vt 0.04380095 0.562605
vt 0.06190171 0.562605
vt 0.0606891 0.562605
vt 0.0606891 0.562605
vt 0.06190171 0.03553086
vt 0.0606891 0.03553086
vt 0.0606891 0.03553086
vt 0.05737623 0.562605
vt 0.05737623 0.03553086
vt 0.05737623 0.03553086
vt 0.05285138 0.562605
vt 0.05285138 0.03553086
vt 0.04832643 0.562605
vt 0.04832643 0.03553086
vt 0.04832643 0.03553086
vt 0.04501367 0.562605
vt 0.04380095 0.562605
vt 0.04501367 0.562605
vt 0.04501367 0.03553086
vt 0.04501367 0.03553086
vt 0.04380095 0.03553086
vt 0.04380095 0.03553086
vt 0.04501367 0.03553086
vt 0.04501367 0.03553086
vt 0.04380095 0.562605
vt 0.04832643 0.03553086
vt 0.04501367 0.562605
vt 0.04832643 0.562605
vt 0.05285138 0.03553086
vt 0.04832643 0.03553086
vt 0.05285138 0.562605
vt 0.05737623 0.562605
vt 0.0606891 0.562605
vt 0.05737623 0.03553086
vt 0.0606891 0.03553086
vt 0.05737623 0.03553086
vt 0.06190171 0.03553086
vt 0.06190171 0.562605
vt 0.9260558 0.5298665
vt 0.9290967 0.5245412
vt 0.9259225 0.5245412
vt 0.9291799 0.5298899
vt 0.9316946 0.531517
vt 0.9317956 0.5298489
vt 0.9237896 0.5314299
vt 0.9233044 0.529824
vt 0.9452982 0.5245234
vt 0.9419196 0.5313779
vt 0.9455844 0.531439
vt 0.9419959 0.5275915
vt 0.942263 0.5245234
vt 0.9389861 0.5267218
vt 0.9398001 0.5291342
vt 0.9367657 0.5282429
vt 0.9363456 0.5315612
vt 0.9332151 0.5313168
vt 0.9333106 0.5245234
vt 0.9367083 0.5245234
vt 0.9500793 0.5298817
vt 0.9533058 0.524524
vt 0.9499842 0.524524
vt 0.9534221 0.5298941
vt 0.9560245 0.5315
vt 0.9561305 0.5298318
vt 0.947752 0.5314128
vt 0.9472442 0.529807
vt 0.45985 0.3367084
vt 0.4435471 0.5598122
vt 0.45985 0.5598122
vt 0.4435471 0.3367084
vt 0.45985 0.0645762
vt 0.4435471 0.0645762
vt 0.12327 0.04412772
vt 0.119947 0.04412772
vt 0.1209203 0.04412772
vt 0.1265931 0.04412772
vt 0.1256197 0.04412772
vt 0.12327 0.04412772
vt 0.1209203 0.04412772
vt 0.1256197 0.04412772
vt 0.1209203 0.04412772
vt 0.119947 0.04412772
vt 0.119947 0.04412772
vt 0.1209203 0.04412772
vt 0.1209203 0.04412772
vt 0.12327 0.04412772
vt 0.119947 0.5536752
vt 0.12327 0.04412772
vt 0.1256197 0.04412772
vt 0.1209203 0.5536752
vt 0.1256197 0.04412772
vt 0.1265931 0.04412772
vt 0.12327 0.5536752
vt 0.1265931 0.04412772
vt 0.1256197 0.04412772
vt 0.1256197 0.04412772
vt 0.1256197 0.5536752
vt 0.1265931 0.5536752
vt 0.12327 0.5536752
vt 0.1209203 0.5536752
vt 0.1256197 0.5536752
vt 0.12327 0.04412772
vt 0.1256197 0.04412772
vt 0.12327 0.04412772
vt 0.1209203 0.04412772
vt 0.1209203 0.04412772
vt 0.1256197 0.5536752
vt 0.1265931 0.5536752
vt 0.1265931 0.04412772
vt 0.12327 0.5536752
vt 0.1209203 0.5536752
vt 0.119947 0.04412772
vt 0.119947 0.5536752
vt 0.4484698 0.04774716
vt 0.4471694 0.04567575
vt 0.4469628 0.04576169
vt 0.4486066 0.04756961
vt 0.4468268 0.04321084
vt 0.4506523 0.04864132
vt 0.4466054 0.04318572
vt 0.4506763 0.04841706
vt 0.447688 0.04087598
vt 0.4529866 0.04823802
vt 0.4475054 0.04074806
vt 0.4528904 0.04803549
vt 0.4494855 0.03933077
vt 0.4548596 0.04661991
vt 0.4493899 0.03912671
vt 0.4546765 0.04649172
vt 0.4517003 0.03894762
vt 0.4557721 0.04417757
vt 0.4517246 0.03872355
vt 0.4555494 0.04415356
vt 0.4537818 0.03979512
vt 0.4554134 0.04160369
vt 0.4539186 0.03961762
vt 0.4552063 0.04168935
vt 0.4484605 0.04701935
vt 0.4471579 0.04523442
vt 0.4469041 0.04536842
vt 0.4486111 0.04677146
vt 0.4467219 0.04325388
vt 0.4506954 0.04772794
vt 0.4464324 0.04323401
vt 0.450713 0.04743263
vt 0.4473943 0.04134683
vt 0.452998 0.04729502
vt 0.4471597 0.04117425
vt 0.4528788 0.04702878
vt 0.4490249 0.03999454
vt 0.4547441 0.04584907
vt 0.4489039 0.03973104
vt 0.4545076 0.04567923
vt 0.4511908 0.03959064
vt 0.4554701 0.0437883
vt 0.4512065 0.03929813
vt 0.4551799 0.04377223
vt 0.4532927 0.04025177
vt 0.4549998 0.0416549
vt 0.4534415 0.0400067
vt 0.4547458 0.0417889
vn 1.185658E-06 1.511588E-06 1
vn -7.040324E-07 -4.990853E-06 1
vn 2.361635E-06 -4.324785E-07 1
vn 7.691084E-07 6.856483E-07 1
vn -5.793964E-07 -3.929391E-06 1
vn 1.923511E-06 -1.870825E-07 1
vn 0 5.059164E-07 -1
vn 0 0 -1
vn -1.826279E-07 1.249463E-07 -1
vn 0 0 -1
vn -1.309324E-07 0 -1
vn 1.075606E-07 3.762776E-07 -1
vn 0 0 -1
vn 0 0 -1
vn 0 0 -1
vn 0 1.799414E-07 -1
vn 0 0 -1
vn -1.309324E-07 0 -1
vn -2.77918E-07 3.841683E-07 1
vn 0 9.777885E-07 1
vn -3.411681E-07 1.855476E-07 1
vn -8.298582E-07 -1.654892E-06 1
vn 1.185658E-06 1.511588E-06 1
vn -7.040324E-07 -4.990853E-06 1
vn 0 0 -1
vn 0.8221714 0.4493687 -0.3494307
vn 0 0 -1
vn 0.9282935 -0.01003351 -0.3717127
vn 0.9783573 0.001079998 -0.20692
vn 0.8539912 0.4836639 -0.1917507
vn 0.8677767 0.4969518 -0.001588992
vn 1 -3.003417E-07 0
vn 0.8571647 0.4770766 0.1940786
vn 0.978337 -0.006514185 0.2069158
vn 0.8221714 0.4493685 0.3494312
vn 0.9282936 -0.01003349 0.3717127
vn 3.139663E-07 -5.043944E-07 1
vn 0 1.231891E-06 1
vn 3.121959E-07 -5.771264E-07 1
vn 0 1.235366E-06 1
vn -1.14455E-07 -1.462683E-07 1
vn 1.455303E-06 -9.792844E-07 1
vn 1.517597E-06 -7.601216E-07 1
vn 1.457507E-06 -8.493338E-07 1
vn 1.271531E-07 -1.85092E-07 1
vn -2.158657E-07 3.215097E-06 1
vn 0 -3.178397E-07 1
vn 0 1.341623E-06 1
vn 0 0 1
vn 2.339992E-06 -6.130812E-06 1
vn 2.434897E-06 -6.10738E-06 1
vn 0.4833975 -0.8289764 0.2812915
vn 0.8158935 -0.4679103 0.339673
vn 0.4966136 -0.8515461 0.1680599
vn 0.8511288 -0.4876225 0.1944325
vn 0.5030431 -0.86426 0.001605172
vn 0.8677766 -0.4969521 0.001589059
vn 0.5021199 -0.8478413 -0.1704134
vn 0.854324 -0.4810549 -0.1967654
vn 0.8158933 -0.4679103 -0.3396734
vn 0.4833972 -0.8289763 -0.2812923
vn 0 1.544188E-07 -1
vn 0 1.090922E-07 -1
vn 0 -3.544138E-07 1
vn -2.527722E-07 -1.410888E-07 1
vn -1.83533E-06 -1.158522E-06 1
vn 0 0 1
vn -2.753271E-07 -3.556356E-06 1
vn -2.285581E-07 -3.714291E-06 1
vn -0.4959032 -0.8179529 0.2916045
vn -0.007118049 -0.9667686 0.2555537
vn -0.5057663 -0.8462483 0.1675235
vn -0.004946993 -0.9880651 0.153958
vn -0.5030438 -0.8642594 -0.001605472
vn -4.608937E-07 -1 -1.782702E-07
vn -0.5002653 -0.8499719 -0.1651739
vn 0.001314668 -0.9880762 -0.1539602
vn -0.007118053 -0.9667684 -0.2555546
vn -0.495903 -0.8179528 -0.2916051
vn 3.036492E-07 6.758453E-07 -1
vn 0 4.761394E-07 -1
vn -1.85981E-07 1.12931E-07 1
vn 0 1.771998E-07 1
vn 1.877639E-06 -1.098177E-06 1
vn 0 0 1
vn 0 1.226061E-06 1
vn 0 1.238103E-06 1
vn -0.9282935 0.01003347 0.3717129
vn -0.8221716 -0.4493687 0.3494307
vn -0.978337 0.006514001 0.2069158
vn -0.8571649 -0.4770765 0.1940786
vn -1 1.044667E-07 0
vn -0.8677769 -0.4969516 -0.001589175
vn -0.9783573 -0.001080171 -0.20692
vn -0.8539913 -0.4836636 -0.1917508
vn -0.8221716 -0.4493686 -0.3494309
vn -0.9282935 0.01003344 -0.3717127
vn 0 0 -1
vn 1.920673E-07 2.075175E-07 -1
vn -2.948929E-07 -5.333301E-07 1
vn -3.250906E-07 -5.541225E-07 1
vn 0 1.336816E-06 1
vn -1.236864E-07 -1.977352E-07 1
vn -1.262108E-06 -8.726384E-07 1
vn -1.340074E-06 -7.083055E-07 1
vn -0.2579104 0.9316333 0.2560107
vn -0.9093577 0.2281996 0.3478413
vn -0.4578835 0.8774627 0.1428354
vn -0.8745151 0.4538441 0.1710227
vn -0.5030435 0.8642597 0.001605401
vn -0.8677767 0.4969518 0.001589167
vn -0.5021204 0.847841 -0.1704132
vn -0.8543242 0.4810548 -0.1967652
vn -0.8158935 0.4679102 -0.3396732
vn -0.4833981 0.8289763 -0.2812912
vn 0 3.096785E-07 -1
vn 0 1.075235E-07 -1
vn -1.172735E-07 3.158652E-06 1
vn -1.42717E-06 -9.017928E-07 1
vn 0 0 1
vn 0.4959024 0.8179533 0.2916047
vn 0.007117582 0.9667685 0.2555541
vn 0.505766 0.8462486 0.1675239
vn 0.004946506 0.9880649 0.1539586
vn 0.5030435 0.8642596 -0.001605073
vn 0 1 2.021844E-07
vn 0.5002649 0.8499721 -0.1651736
vn -0.001315204 0.9880762 -0.1539599
vn 0.007117597 0.9667687 -0.2555534
vn 0.4959027 0.8179533 -0.2916042
vn -1.943909E-07 1.120804E-07 -1
vn 0 2.195514E-07 -1
vn 0 1.090922E-07 -1
vn 0.9282935 -0.01003351 -0.3717127
vn 0 0 -1
vn 0.8158933 -0.4679103 -0.3396734
vn 0.854324 -0.4810549 -0.1967654
vn 0.9783573 0.001079998 -0.20692
vn 1 -3.003417E-07 0
vn 0.8677766 -0.4969521 0.001589059
vn 0.978337 -0.006514185 0.2069158
vn 0.8511288 -0.4876225 0.1944325
vn 0.9282936 -0.01003349 0.3717127
vn 0.8158935 -0.4679103 0.339673
vn 0 1.231891E-06 1
vn -1.14455E-07 -1.462683E-07 1
vn 0 4.761394E-07 -1
vn 0.4833972 -0.8289763 -0.2812923
vn 0 1.544188E-07 -1
vn -0.007118053 -0.9667684 -0.2555546
vn 0.001314668 -0.9880762 -0.1539602
vn 0.5021199 -0.8478413 -0.1704134
vn 0.5030431 -0.86426 0.001605172
vn -4.608937E-07 -1 -1.782702E-07
vn 0.4966136 -0.8515461 0.1680599
vn -0.004946993 -0.9880651 0.153958
vn 0.4833975 -0.8289764 0.2812915
vn -0.007118049 -0.9667686 0.2555537
vn 2.339992E-06 -6.130812E-06 1
vn 0 -3.544138E-07 1
vn 1.920673E-07 2.075175E-07 -1
vn -0.495903 -0.8179528 -0.2916051
vn 3.036492E-07 6.758453E-07 -1
vn -0.8221716 -0.4493686 -0.3494309
vn -0.8539913 -0.4836636 -0.1917508
vn -0.5002653 -0.8499719 -0.1651739
vn -0.5030438 -0.8642594 -0.001605472
vn -0.8677769 -0.4969516 -0.001589175
vn -0.5057663 -0.8462483 0.1675235
vn -0.8571649 -0.4770765 0.1940786
vn -0.4959032 -0.8179529 0.2916045
vn -0.8221716 -0.4493687 0.3494307
vn -2.753271E-07 -3.556356E-06 1
vn -1.85981E-07 1.12931E-07 1
vn 0 1.075235E-07 -1
vn -0.9282935 0.01003344 -0.3717127
vn 0 0 -1
vn -0.8158935 0.4679102 -0.3396732
vn -0.8543242 0.4810548 -0.1967652
vn -0.9783573 -0.001080171 -0.20692
vn -1 1.044667E-07 0
vn -0.8677767 0.4969518 0.001589167
vn -0.978337 0.006514001 0.2069158
vn -0.8745151 0.4538441 0.1710227
vn -0.9282935 0.01003347 0.3717129
vn -0.9093577 0.2281996 0.3478413
vn 0 1.226061E-06 1
vn -2.948929E-07 -5.333301E-07 1
vn 0 2.195514E-07 -1
vn -0.4833981 0.8289763 -0.2812912
vn 0 3.096785E-07 -1
vn 0.007117597 0.9667687 -0.2555534
vn -0.001315204 0.9880762 -0.1539599
vn -0.5021204 0.847841 -0.1704132
vn -0.5030435 0.8642597 0.001605401
vn 0 1 2.021844E-07
vn -0.4578835 0.8774627 0.1428354
vn 0.004946506 0.9880649 0.1539586
vn -0.2579104 0.9316333 0.2560107
vn 0.007117582 0.9667685 0.2555541
vn -1.262108E-06 -8.726384E-07 1
vn -1.172735E-07 3.158652E-06 1
vn 0 0 -1
vn 0.4959027 0.8179533 -0.2916042
vn -1.943909E-07 1.120804E-07 -1
vn 0.8221714 0.4493687 -0.3494307
vn 0.8539912 0.4836639 -0.1917507
vn 0.5002649 0.8499721 -0.1651736
vn 0.5030435 0.8642596 -0.001605073
vn 0.8677767 0.4969518 -0.001588992
vn 0.505766 0.8462486 0.1675239
vn 0.8571647 0.4770766 0.1940786
vn 0.4959024 0.8179533 0.2916047
vn 0.8221714 0.4493685 0.3494312
vn 1.517597E-06 -7.601216E-07 1
vn 3.139663E-07 -5.043944E-07 1
vn 0 1.235366E-06 1
vn 1.271531E-07 -1.85092E-07 1
vn 3.121959E-07 -5.771264E-07 1
vn 0 1.341623E-06 1
vn 1.455303E-06 -9.792844E-07 1
vn 0 0 1
vn -2.158657E-07 3.215097E-06 1
vn 1.457507E-06 -8.493338E-07 1
vn -1.340074E-06 -7.083055E-07 1
vn -1.236864E-07 -1.977352E-07 1
vn -3.250906E-07 -5.541225E-07 1
vn -1.42717E-06 -9.017928E-07 1
vn 0 1.238103E-06 1
vn 0 0 1
vn 0 1.771998E-07 1
vn 0 1.336816E-06 1
vn -2.285581E-07 -3.714291E-06 1
vn 0 0 1
vn -2.527722E-07 -1.410888E-07 1
vn 1.877639E-06 -1.098177E-06 1
vn 2.434897E-06 -6.10738E-06 1
vn 0 0 1
vn 0 -3.178397E-07 1
vn -1.83533E-06 -1.158522E-06 1
vn -3.411681E-07 1.855476E-07 1
vn 2.810326E-07 1.330985E-06 1
vn -2.77918E-07 3.841683E-07 1
vn -5.637202E-07 -1.387803E-06 1
vn 7.691084E-07 6.856483E-07 1
vn -5.793964E-07 -3.929391E-06 1
vn 0.8384662 0.4693113 0.2769863
vn 0.4893843 0.8346182 0.2528151
vn 0.4946574 0.8324776 0.2495897
vn 0 1.419472E-07 -1
vn 1.009705E-07 1.529269E-07 -1
vn 0.9564244 -0.006416397 0.2919096
vn 0 1.639064E-07 -1
vn 0 1.019513E-07 -1
vn 0 0 -1
vn 0 1.639065E-07 -1
vn 0 1.419472E-07 -1
vn 0.004952645 0.9714356 0.2372514
vn 0.005215949 0.9714541 0.2371703
vn -0.4851307 0.8370727 0.2528983
vn -0.4800992 0.8410549 0.2492617
vn -1.009705E-07 1.529269E-07 -1
vn -0.8317314 0.4792976 0.2801725
vn -0.829473 0.4851967 0.2766927
vn 0 1.639066E-07 -1
vn 0 0 -1
vn -0.9564244 0.00641632 0.2919097
vn -0.9563987 0.006723679 0.291987
vn -0.8349603 -0.4736198 0.2802241
vn -0.8384665 -0.4693109 0.276986
vn 0 0 1
vn -0.4893847 -0.8346182 0.2528144
vn 0 -1.543947E-07 1
vn 0 -2.400223E-07 1
vn 0 -1.596377E-07 1
vn -0.005216587 -0.9714542 0.2371701
vn -0.4946578 -0.8324776 0.2495891
vn 0 -1.762412E-07 1
vn 0 -2.400223E-07 1
vn 0 -1.543945E-07 1
vn 0.4800989 -0.8410553 0.2492611
vn -0.004953254 -0.9714356 0.2372513
vn 0.8294728 -0.485197 0.2766925
vn 0.4851304 -0.8370731 0.2528976
vn 0.9563987 -0.006723958 0.291987
vn 0 0 1
vn 0 0 1
vn 0 -1.543947E-07 1
vn 0 -1.543947E-07 1
vn -0.9563987 0.006723679 0.291987
vn -0.829473 0.4851967 0.2766927
vn -0.8317314 0.4792976 0.2801725
vn 0 -2.400223E-07 1
vn -0.4800992 0.8410549 0.2492617
vn -0.4851307 0.8370727 0.2528983
vn 0 -1.762412E-07 1
vn 0.005215949 0.9714541 0.2371703
vn 0.004952645 0.9714356 0.2372514
vn 0 -2.400223E-07 1
vn 0.4893843 0.8346182 0.2528151
vn 0.4946574 0.8324776 0.2495897
vn 0 -1.543946E-07 1
vn 0 0 1
vn 0 -1.543945E-07 1
vn 0.8349602 0.4736199 0.2802243
vn 0.8384662 0.4693113 0.2769863
vn 0.9563987 -0.006723958 0.291987
vn 0.9564244 -0.006416397 0.2919096
vn 0.8317314 -0.4792978 0.2801723
vn 0.8294728 -0.485197 0.2766925
vn 0 1.639064E-07 -1
vn 0.4851304 -0.8370731 0.2528976
vn 0 0 -1
vn 0 0 -1
vn -0.004953254 -0.9714356 0.2372513
vn 0.4800989 -0.8410553 0.2492611
vn 0 0 -1
vn 0 0 -1
vn 0 0 -1
vn -0.4946578 -0.8324776 0.2495891
vn -0.005216587 -0.9714542 0.2371701
vn -0.8384665 -0.4693109 0.276986
vn -0.4893847 -0.8346182 0.2528144
vn -0.9564244 0.00641632 0.2919097
vn 0 1.639066E-07 -1
vn 0.4893842 0.8346184 -0.2528147
vn 0.8384661 0.4693114 -0.2769861
vn 0.4946573 0.8324777 -0.2495893
vn 0 0 1
vn 0 0 1
vn 0.9564244 -0.006416372 -0.2919095
vn 0 0 1
vn 0 -1.256091E-07 1
vn 0 -1.679253E-07 1
vn 0 0 1
vn 0 0 1
vn 0.004952621 0.9714357 -0.237251
vn 0.005215969 0.9714542 -0.2371698
vn -0.4851306 0.8370728 -0.2528979
vn -0.4800992 0.841055 -0.2492613
vn 0 0 1
vn -0.8317314 0.4792977 -0.2801723
vn -0.829473 0.4851968 -0.2766925
vn 0 0 1
vn 0 -1.679254E-07 1
vn -0.9564244 0.006416339 -0.2919096
vn -0.9563987 0.006723752 -0.2919869
vn -0.8349603 -0.4736198 -0.2802241
vn -0.8384665 -0.4693108 -0.276986
vn 0 0 -1
vn -0.4893847 -0.8346181 -0.2528146
vn 0 0 -1
vn 0 1.200112E-07 -1
vn 0 1.348538E-07 -1
vn -0.005216563 -0.9714541 -0.2371704
vn -0.4946578 -0.8324775 -0.2495893
vn 0 0 -1
vn 0 1.200111E-07 -1
vn 0 0 -1
vn 0.480099 -0.8410551 -0.2492612
vn -0.004953214 -0.9714356 -0.2372515
vn 0.8294728 -0.4851969 -0.2766925
vn 0.4851303 -0.837073 -0.2528977
vn 0.9563987 -0.006723917 -0.2919869
vn 0 0 -1
vn 0 0 -1
vn 0 0 -1
vn 0 1.969495E-07 -1
vn -0.9563987 0.006723752 -0.2919869
vn -0.829473 0.4851968 -0.2766925
vn -0.8317314 0.4792977 -0.2801723
vn 0 1.964564E-07 -1
vn -0.4800992 0.841055 -0.2492613
vn -0.4851306 0.8370728 -0.2528979
vn 0 1.762412E-07 -1
vn 0.005215969 0.9714542 -0.2371698
vn 0 1.964564E-07 -1
vn 0.4893842 0.8346184 -0.2528147
vn 0.4946573 0.8324777 -0.2495893
vn 0 1.969495E-07 -1
vn 0 0 -1
vn 0 0 -1
vn 0.8349601 0.47362 -0.2802241
vn 0.8384661 0.4693114 -0.2769861
vn 0.9563987 -0.006723917 -0.2919869
vn 0.9564244 -0.006416372 -0.2919095
vn 0.8317314 -0.4792976 -0.2801723
vn 0.8294728 -0.4851969 -0.2766925
vn 0 0 1
vn 0.4851303 -0.837073 -0.2528977
vn 0 -1.679253E-07 1
vn 0 -2.184106E-07 1
vn -0.004953214 -0.9714356 -0.2372515
vn 0.480099 -0.8410551 -0.2492612
vn 0 -2.048832E-07 1
vn 0 -2.184106E-07 1
vn 0 -1.679254E-07 1
vn -0.4946578 -0.8324775 -0.2495893
vn -0.8384665 -0.4693108 -0.276986
vn -0.4893847 -0.8346181 -0.2528146
vn -0.9564244 0.006416339 -0.2919096
vn 0 0 1
vn -0.4948777 -0.8642846 -0.09004539
vn -0.4944503 -0.8649611 -0.08579665
vn -0.4927703 -0.8660235 -0.08473989
vn -0.5001385 -0.8617666 -0.08496942
vn -0.4923471 -0.865949 -0.08790106
vn -0.4884841 -0.8683285 -0.08595866
vn -0.4898171 -0.86696 -0.09197561
vn -0.4864534 -0.8693599 -0.08704292
vn 0.2762187 -0.9595779 0.05397705
vn 0.2529489 -0.9666658 0.03967487
vn 0.2504898 -0.9673538 0.03848778
vn 0.2479363 -0.967832 0.04276638
vn 0.2604899 -0.963702 0.05850897
vn 0.09506389 -0.9952371 0.02158479
vn -0.09672274 -0.9950634 -0.02221757
vn -0.2348748 -0.9711531 -0.04117631
vn -0.2434692 -0.9680463 -0.06007534
vn -0.2614215 -0.9635837 -0.05626144
vn -0.2552614 -0.9658388 -0.04468681
vn -0.2589877 -0.9649016 -0.04347758
vn 0.4161979 -0.9063078 0.07338697
vn 0.4161977 -0.9063078 0.07338668
vn 0.4161976 -0.9063078 0.07338662
vn 0.416198 -0.9063077 0.07338662
vn 0.4161977 -0.9063078 0.07338668
vn 0.4161975 -0.9063079 0.07338656
vn 0.4161979 -0.9063077 0.0733874
vn 0.4161986 -0.9063073 0.07338844
vn 0 2.35873E-07 -1
vn 0 0 -1
vn 0 5.059164E-07 -1
vn 0 0 -1
vn 0 0 -1
vn 0 0 -1
vn 0 0 -1
vn 0 0 -1
vn 0 0 -1
vn 0 0 -1
vn 0 0 -1
vn 0 0 -1
vn 0 0 -1
vn 0 0 -1
vn -0.7135366 -0.6909125 0.1162131
vn -0.9932711 0.00843918 0.1155044
vn -0.993264 0.009252564 0.1155034
vn -0.7005224 0.7040998 0.1162408
vn -0.7004079 0.7042136 0.1162409
vn 0.008605715 0.9930987 0.1169664
vn 0 0 1
vn 0.009439291 0.9930911 0.1169656
vn 0.7125022 0.6919786 0.1162167
vn 0 0 1
vn 0.7135365 0.6909125 0.1162129
vn 0.9932711 -0.008439249 0.1155046
vn 0 0 1
vn 0.9932638 -0.009252899 0.1155039
vn 0.7005221 -0.7040999 0.1162415
vn 0.7004077 -0.7042137 0.1162416
vn 0 0 1
vn 0 0 1
vn 0 0 1
vn 0 0 1
vn 0 0 1
vn -0.008605571 -0.9930986 0.1169667
vn 0.7004077 -0.7042137 0.1162416
vn -0.009439155 -0.9930911 0.1169658
vn -0.7125022 -0.6919785 0.1162169
vn -0.7135366 -0.6909125 0.1162131
vn 0 0 1
vn 0 0 1
vn 0.9932638 -0.009252899 0.1155039
vn 0 0 1
vn 0 0 1
vn -0.993264 0.009252564 0.1155034
vn 0 0 1
vn -1.83533E-06 -1.158522E-06 1
vn -2.77918E-07 3.841683E-07 1
vn 0 0 1
vn -8.298582E-07 -1.654892E-06 1
vn 2.810326E-07 1.330985E-06 1
vn 0 0 1
vn 0 1.341623E-06 1
vn -7.040324E-07 -4.990853E-06 1
vn 7.691084E-07 6.856483E-07 1
vn 1.877639E-06 -1.098177E-06 1
vn 1.271531E-07 -1.85092E-07 1
vn 2.361635E-06 -4.324785E-07 1
vn 1.923511E-06 -1.870825E-07 1
vn 0 0 1
vn 1.457507E-06 -8.493338E-07 1
vn 1.185658E-06 1.511588E-06 1
vn -5.793964E-07 -3.929391E-06 1
vn 0 1.336816E-06 1
vn 0 0 1
vn 0 9.777885E-07 1
vn -5.637202E-07 -1.387803E-06 1
vn -1.236864E-07 -1.977352E-07 1
vn -1.42717E-06 -9.017928E-07 1
vn -3.411681E-07 1.855476E-07 1
vn 0 1.090922E-07 -1
vn 0 1.799414E-07 -1
vn 0 1.544188E-07 -1
vn 0 0 -1
vn 0 0 -1
vn 0 0 -1
vn 0 4.761394E-07 -1
vn 0 0 -1
vn 1.075606E-07 3.762776E-07 -1
vn 0 0 -1
vn 3.036492E-07 6.758453E-07 -1
vn 0 0 -1
vn -1.309324E-07 0 -1
vn -1.943909E-07 1.120804E-07 -1
vn 1.920673E-07 2.075175E-07 -1
vn -1.826279E-07 1.249463E-07 -1
vn 0 0 -1
vn 0 2.195514E-07 -1
vn 0 0 -1
vn 0 5.059164E-07 -1
vn 0 0 -1
vn 0 3.096785E-07 -1
vn 0 1.075235E-07 -1
vn 0 2.35873E-07 -1
g OL_OnsenDev_TNT_0
f 3/3/3 2/2/2 1/1/1
f 6/6/6 5/5/5 4/4/4
f 9/9/9 8/8/8 7/7/7
f 12/12/12 11/11/11 10/10/10
f 15/15/15 14/14/14 13/13/13
f 16/16/16 13/13/13 14/14/14
f 16/16/16 17/17/17 13/13/13
f 18/18/18 13/13/13 17/17/17
f 21/21/21 20/20/20 19/19/19
f 22/22/22 19/19/19 20/20/20
f 20/20/20 23/23/23 22/22/22
f 24/24/24 22/22/22 23/23/23
f 27/27/27 26/26/26 25/25/25
f 28/28/28 25/25/25 26/26/26
f 28/28/28 26/26/26 29/29/29
f 30/30/30 29/29/29 26/26/26
f 30/30/30 31/31/31 29/29/29
f 32/32/32 29/29/29 31/31/31
f 31/31/31 33/33/33 32/32/32
f 34/34/34 32/32/32 33/33/33
f 33/33/33 35/35/35 34/34/34
f 36/36/36 34/34/34 35/35/35
f 35/35/35 37/37/37 36/36/36
f 38/38/38 36/36/36 37/37/37
f 37/37/37 39/39/39 38/38/38
f 40/40/40 38/38/38 39/39/39
f 38/38/38 40/40/40 41/41/41
f 39/39/39 37/37/37 42/42/42
f 43/43/43 42/42/42 37/37/37
f 42/42/42 44/44/44 39/39/39
f 45/45/45 39/39/39 44/44/44
f 42/42/42 43/43/43 46/46/46
f 47/47/47 41/41/41 40/40/40
f 40/40/40 48/48/48 47/47/47
f 49/49/49 47/47/47 48/48/48
f 41/41/41 47/47/47 50/50/50
f 51/51/51 50/50/50 47/47/47
f 50/50/50 52/52/52 41/41/41
f 53/53/53 41/41/41 52/52/52
f 52/52/52 54/54/54 53/53/53
f 55/55/55 53/53/53 54/54/54
f 54/54/54 56/56/56 55/55/55
f 57/57/57 55/55/55 56/56/56
f 56/56/56 58/58/58 57/57/57
f 59/59/59 57/57/57 58/58/58
f 59/59/59 58/58/58 60/60/60
f 61/61/61 60/60/60 58/58/58
f 61/61/61 62/62/62 60/60/60
f 63/63/63 60/60/60 62/62/62
f 50/50/50 51/51/51 64/64/64
f 65/65/65 64/64/64 51/51/51
f 51/51/51 66/66/66 65/65/65
f 67/67/67 65/65/65 66/66/66
f 64/64/64 65/65/65 68/68/68
f 69/69/69 68/68/68 65/65/65
f 68/68/68 70/70/70 64/64/64
f 71/71/71 64/64/64 70/70/70
f 70/70/70 72/72/72 71/71/71
f 73/73/73 71/71/71 72/72/72
f 72/72/72 74/74/74 73/73/73
f 75/75/75 73/73/73 74/74/74
f 74/74/74 76/76/76 75/75/75
f 77/77/77 75/75/75 76/76/76
f 77/77/77 76/76/76 78/78/78
f 79/79/79 78/78/78 76/76/76
f 79/79/79 80/80/80 78/78/78
f 81/81/81 78/78/78 80/80/80
f 68/68/68 69/69/69 82/82/82
f 83/83/83 82/82/82 69/69/69
f 69/69/69 84/84/84 83/83/83
f 85/85/85 83/83/83 84/84/84
f 82/82/82 83/83/83 86/86/86
f 87/87/87 86/86/86 83/83/83
f 86/86/86 88/88/88 82/82/82
f 89/89/89 82/82/82 88/88/88
f 88/88/88 90/90/90 89/89/89
f 91/91/91 89/89/89 90/90/90
f 90/90/90 92/92/92 91/91/91
f 93/93/93 91/91/91 92/92/92
f 92/92/92 94/94/94 93/93/93
f 95/95/95 93/93/93 94/94/94
f 95/95/95 94/94/94 96/96/96
f 97/97/97 96/96/96 94/94/94
f 97/97/97 98/98/98 96/96/96
f 99/99/99 96/96/96 98/98/98
f 86/86/86 87/87/87 100/100/100
f 101/101/101 100/100/100 87/87/87
f 87/87/87 102/102/102 101/101/101
f 103/103/103 101/101/101 102/102/102
f 100/100/100 101/101/101 104/104/104
f 105/105/105 104/104/104 101/101/101
f 104/104/104 106/106/106 100/100/100
f 107/107/107 100/100/100 106/106/106
f 106/106/106 108/108/108 107/107/107
f 109/109/109 107/107/107 108/108/108
f 108/108/108 110/110/110 109/109/109
f 111/111/111 109/109/109 110/110/110
f 110/110/110 112/112/112 111/111/111
f 113/113/113 111/111/111 112/112/112
f 113/113/113 112/112/112 114/114/114
f 115/115/115 114/114/114 112/112/112
f 115/115/115 116/116/116 114/114/114
f 117/117/117 114/114/114 116/116/116
f 104/104/104 105/105/105 118/118/118
f 46/46/46 118/118/118 105/105/105
f 105/105/105 119/119/119 46/46/46
f 120/120/120 46/46/46 119/119/119
f 118/118/118 46/46/46 43/43/43
f 43/43/43 121/121/121 118/118/118
f 122/122/122 118/118/118 121/121/121
f 121/121/121 123/123/123 122/122/122
f 124/124/124 122/122/122 123/123/123
f 123/123/123 125/125/125 124/124/124
f 126/126/126 124/124/124 125/125/125
f 125/125/125 127/127/127 126/126/126
f 128/128/128 126/126/126 127/127/127
f 128/128/128 127/127/127 129/129/129
f 130/130/130 129/129/129 127/127/127
f 130/130/130 131/131/131 129/129/129
f 132/132/132 129/129/129 131/131/131
f 135/135/135 134/134/134 133/133/133
f 136/136/136 133/133/133 134/134/134
f 136/136/136 134/134/134 137/137/137
f 138/138/138 137/137/137 134/134/134
f 138/138/138 139/139/139 137/137/137
f 140/140/140 137/137/137 139/139/139
f 139/139/139 141/141/141 140/140/140
f 142/142/142 140/140/140 141/141/141
f 141/141/141 143/143/143 142/142/142
f 144/144/144 142/142/142 143/143/143
f 143/143/143 145/145/145 144/144/144
f 146/146/146 144/144/144 145/145/145
f 149/149/149 148/148/148 147/147/147
f 150/150/150 147/147/147 148/148/148
f 150/150/150 148/148/148 151/151/151
f 152/152/152 151/151/151 148/148/148
f 152/152/152 153/153/153 151/151/151
f 154/154/154 151/151/151 153/153/153
f 153/153/153 155/155/155 154/154/154
f 156/156/156 154/154/154 155/155/155
f 155/155/155 157/157/157 156/156/156
f 158/158/158 156/156/156 157/157/157
f 157/157/157 159/159/159 158/158/158
f 160/160/160 158/158/158 159/159/159
f 163/163/163 162/162/162 161/161/161
f 164/164/164 161/161/161 162/162/162
f 164/164/164 162/162/162 165/165/165
f 166/166/166 165/165/165 162/162/162
f 166/166/166 167/167/167 165/165/165
f 168/168/168 165/165/165 167/167/167
f 167/167/167 169/169/169 168/168/168
f 170/170/170 168/168/168 169/169/169
f 169/169/169 171/171/171 170/170/170
f 172/172/172 170/170/170 171/171/171
f 171/171/171 173/173/173 172/172/172
f 174/174/174 172/172/172 173/173/173
f 177/177/177 176/176/176 175/175/175
f 178/178/178 175/175/175 176/176/176
f 178/178/178 176/176/176 179/179/179
f 180/180/180 179/179/179 176/176/176
f 180/180/180 181/181/181 179/179/179
f 182/182/182 179/179/179 181/181/181
f 181/181/181 183/183/183 182/182/182
f 184/184/184 182/182/182 183/183/183
f 183/183/183 185/185/185 184/184/184
f 186/186/186 184/184/184 185/185/185
f 185/185/185 187/187/187 186/186/186
f 188/188/188 186/186/186 187/187/187
f 191/191/191 190/190/190 189/189/189
f 192/192/192 189/189/189 190/190/190
f 192/192/192 190/190/190 193/193/193
f 194/194/194 193/193/193 190/190/190
f 194/194/194 195/195/195 193/193/193
f 196/196/196 193/193/193 195/195/195
f 195/195/195 197/197/197 196/196/196
f 198/198/198 196/196/196 197/197/197
f 197/197/197 199/199/199 198/198/198
f 200/200/200 198/198/198 199/199/199
f 199/199/199 201/201/201 200/200/200
f 202/202/202 200/200/200 201/201/201
f 205/205/205 204/204/204 203/203/203
f 206/206/206 203/203/203 204/204/204
f 206/206/206 204/204/204 207/207/207
f 208/208/208 207/207/207 204/204/204
f 208/208/208 209/209/209 207/207/207
f 210/210/210 207/207/207 209/209/209
f 209/209/209 211/211/211 210/210/210
f 212/212/212 210/210/210 211/211/211
f 211/211/211 213/213/213 212/212/212
f 214/214/214 212/212/212 213/213/213
f 213/213/213 215/215/215 214/214/214
f 216/216/216 214/214/214 215/215/215
f 219/219/219 218/218/218 217/217/217
f 220/220/220 217/217/217 218/218/218
f 223/223/223 222/222/222 221/221/221
f 224/224/224 221/221/221 222/222/222
f 227/227/227 226/226/226 225/225/225
f 228/228/228 225/225/225 226/226/226
f 231/231/231 230/230/230 229/229/229
f 232/232/232 229/229/229 230/230/230
f 235/235/235 234/234/234 233/233/233
f 236/236/236 233/233/233 234/234/234
f 239/239/239 238/238/238 237/237/237
f 240/240/240 237/237/237 238/238/238
f 243/243/243 242/242/242 241/241/241
f 244/244/244 241/241/241 242/242/242
f 242/242/242 245/245/245 244/244/244
f 246/246/246 244/244/244 245/245/245
f 249/249/249 248/248/248 247/247/247
f 249/249/249 247/247/247 250/250/250
f 251/251/251 250/250/250 247/247/247
f 247/247/247 252/252/252 251/251/251
f 253/253/253 251/251/251 252/252/252
f 253/253/253 254/254/254 251/251/251
f 251/251/251 254/254/254 250/250/250
f 255/255/255 254/254/254 253/253/253
f 250/250/250 254/254/254 256/256/256
f 250/250/250 256/256/256 249/249/249
f 256/256/256 254/254/254 257/257/257
f 258/258/258 249/249/249 256/256/256
f 256/256/256 257/257/257 258/258/258
f 258/258/258 259/259/259 249/249/249
f 260/260/260 258/258/258 257/257/257
f 260/260/260 261/261/261 258/258/258
f 257/257/257 262/262/262 260/260/260
f 257/257/257 254/254/254 262/262/262
f 263/263/263 260/260/260 262/262/262
f 263/263/263 264/264/264 260/260/260
f 262/262/262 265/265/265 263/263/263
f 262/262/262 254/254/254 265/265/265
f 265/265/265 254/254/254 266/266/266
f 267/267/267 263/263/263 265/265/265
f 267/267/267 268/268/268 263/263/263
f 268/268/268 267/267/267 269/269/269
f 270/270/270 269/269/269 267/267/267
f 268/268/268 269/269/269 271/271/271
f 269/269/269 270/270/270 272/272/272
f 273/273/273 271/271/271 269/269/269
f 269/269/269 272/272/272 273/273/273
f 274/274/274 273/273/273 272/272/272
f 274/274/274 275/275/275 273/273/273
f 272/272/272 276/276/276 274/274/274
f 272/272/272 277/277/277 276/276/276
f 278/278/278 275/275/275 274/274/274
f 278/278/278 274/274/274 276/276/276
f 279/279/279 275/275/275 278/278/278
f 280/280/280 275/275/275 279/279/279
f 276/276/276 281/281/281 278/278/278
f 279/279/279 278/278/278 281/281/281
f 276/276/276 282/282/282 281/281/281
f 281/281/281 283/283/283 279/279/279
f 280/280/280 279/279/279 283/283/283
f 281/281/281 284/284/284 283/283/283
f 283/283/283 285/285/285 280/280/280
f 286/286/286 280/280/280 285/285/285
f 288/288/288 275/275/275 287/287/287
f 287/287/287 275/275/275 289/289/289
f 287/287/287 289/289/289 290/290/290
f 291/291/291 290/290/290 289/289/289
f 291/291/291 292/292/292 290/290/290
f 289/289/289 293/293/293 291/291/291
f 289/289/289 275/275/275 293/293/293
f 294/294/294 291/291/291 293/293/293
f 294/294/294 295/295/295 291/291/291
f 293/293/293 296/296/296 294/294/294
f 293/293/293 275/275/275 296/296/296
f 297/297/297 294/294/294 296/296/296
f 297/297/297 298/298/298 294/294/294
f 296/296/296 299/299/299 297/297/297
f 296/296/296 275/275/275 299/299/299
f 300/300/300 297/297/297 299/299/299
f 300/300/300 301/301/301 297/297/297
f 299/299/299 275/275/275 302/302/302
f 299/299/299 302/302/302 300/300/300
f 302/302/302 275/275/275 303/303/303
f 303/303/303 275/275/275 304/304/304
f 305/305/305 300/300/300 302/302/302
f 302/302/302 303/303/303 305/305/305
f 305/305/305 306/306/306 300/300/300
f 307/307/307 305/305/305 303/303/303
f 306/306/306 305/305/305 308/308/308
f 307/307/307 308/308/308 305/305/305
f 308/308/308 307/307/307 309/309/309
f 310/310/310 309/309/309 307/307/307
f 308/308/308 309/309/309 311/311/311
f 309/309/309 310/310/310 312/312/312
f 313/313/313 311/311/311 309/309/309
f 309/309/309 312/312/312 313/313/313
f 314/314/314 313/313/313 312/312/312
f 314/314/314 254/254/254 313/313/313
f 312/312/312 315/315/315 314/314/314
f 312/312/312 316/316/316 315/315/315
f 317/317/317 254/254/254 314/314/314
f 317/317/317 314/314/314 315/315/315
f 318/318/318 254/254/254 317/317/317
f 319/319/319 254/254/254 318/318/318
f 315/315/315 320/320/320 317/317/317
f 318/318/318 317/317/317 320/320/320
f 315/315/315 321/321/321 320/320/320
f 320/320/320 322/322/322 318/318/318
f 319/319/319 318/318/318 322/322/322
f 320/320/320 323/323/323 322/322/322
f 322/322/322 324/324/324 319/319/319
f 325/325/325 319/319/319 324/324/324
f 328/328/328 327/327/327 326/326/326
f 328/328/328 329/329/329 327/327/327
f 330/330/330 327/327/327 329/329/329
f 327/327/327 330/330/330 331/331/331
f 332/332/332 331/331/331 330/330/330
f 333/333/333 332/332/332 330/330/330
f 333/333/333 330/330/330 329/329/329
f 333/333/333 334/334/334 332/332/332
f 333/333/333 329/329/329 335/335/335
f 329/329/329 328/328/328 335/335/335
f 333/333/333 335/335/335 336/336/336
f 337/337/337 335/335/335 328/328/328
f 335/335/335 337/337/337 336/336/336
f 337/337/337 328/328/328 338/338/338
f 339/339/339 336/336/336 337/337/337
f 339/339/339 337/337/337 340/340/340
f 336/336/336 339/339/339 341/341/341
f 333/333/333 336/336/336 341/341/341
f 342/342/342 341/341/341 339/339/339
f 342/342/342 339/339/339 343/343/343
f 341/341/341 342/342/342 344/344/344
f 333/333/333 341/341/341 344/344/344
f 333/333/333 344/344/344 345/345/345
f 346/346/346 344/344/344 342/342/342
f 346/346/346 342/342/342 347/347/347
f 347/347/347 348/348/348 346/346/346
f 349/349/349 346/346/346 348/348/348
f 347/347/347 350/350/350 348/348/348
f 348/348/348 351/351/351 349/349/349
f 352/352/352 348/348/348 350/350/350
f 348/348/348 352/352/352 351/351/351
f 353/353/353 351/351/351 352/352/352
f 354/354/354 353/353/353 352/352/352
f 351/351/351 353/353/353 355/355/355
f 351/351/351 355/355/355 356/356/356
f 354/354/354 357/357/357 353/353/353
f 357/357/357 355/355/355 353/353/353
f 354/354/354 358/358/358 357/357/357
f 354/354/354 359/359/359 358/358/358
f 355/355/355 357/357/357 360/360/360
f 358/358/358 360/360/360 357/357/357
f 355/355/355 360/360/360 361/361/361
f 360/360/360 358/358/358 362/362/362
f 359/359/359 362/362/362 358/358/358
f 360/360/360 362/362/362 363/363/363
f 362/362/362 359/359/359 364/364/364
f 365/365/365 364/364/364 359/359/359
f 354/354/354 367/367/367 366/366/366
f 354/354/354 366/366/366 368/368/368
f 366/366/366 369/369/369 368/368/368
f 370/370/370 368/368/368 369/369/369
f 370/370/370 369/369/369 371/371/371
f 368/368/368 370/370/370 372/372/372
f 354/354/354 368/368/368 372/372/372
f 373/373/373 372/372/372 370/370/370
f 373/373/373 370/370/370 374/374/374
f 372/372/372 373/373/373 375/375/375
f 354/354/354 372/372/372 375/375/375
f 376/376/376 375/375/375 373/373/373
f 376/376/376 373/373/373 337/337/337
f 375/375/375 376/376/376 377/377/377
f 354/354/354 375/375/375 377/377/377
f 378/378/378 377/377/377 376/376/376
f 378/378/378 376/376/376 379/379/379
f 354/354/354 377/377/377 380/380/380
f 377/377/377 378/378/378 380/380/380
f 354/354/354 380/380/380 381/381/381
f 354/354/354 381/381/381 382/382/382
f 383/383/383 380/380/380 378/378/378
f 380/380/380 383/383/383 381/381/381
f 383/383/383 378/378/378 384/384/384
f 385/385/385 381/381/381 383/383/383
f 384/384/384 386/386/386 383/383/383
f 385/385/385 383/383/383 386/386/386
f 386/386/386 387/387/387 385/385/385
f 388/388/388 385/385/385 387/387/387
f 386/386/386 389/389/389 387/387/387
f 387/387/387 390/390/390 388/388/388
f 391/391/391 387/387/387 389/389/389
f 387/387/387 391/391/391 390/390/390
f 392/392/392 390/390/390 391/391/391
f 333/333/333 392/392/392 391/391/391
f 390/390/390 392/392/392 393/393/393
f 390/390/390 393/393/393 394/394/394
f 333/333/333 395/395/395 392/392/392
f 395/395/395 393/393/393 392/392/392
f 333/333/333 396/396/396 395/395/395
f 333/333/333 397/397/397 396/396/396
f 393/393/393 395/395/395 398/398/398
f 396/396/396 398/398/398 395/395/395
f 393/393/393 398/398/398 355/355/355
f 398/398/398 396/396/396 399/399/399
f 397/397/397 399/399/399 396/396/396
f 398/398/398 399/399/399 400/400/400
f 399/399/399 397/397/397 401/401/401
f 402/402/402 401/401/401 397/397/397
f 405/405/405 404/404/404 403/403/403
f 406/406/406 403/403/403 404/404/404
f 407/407/407 403/403/403 406/406/406
f 408/408/408 407/407/407 406/406/406
f 409/409/409 403/403/403 407/407/407
f 410/410/410 403/403/403 409/409/409
f 413/413/413 412/412/412 411/411/411
f 412/412/412 414/414/414 411/411/411
f 414/414/414 415/415/415 411/411/411
f 415/415/415 414/414/414 416/416/416
f 417/417/417 416/416/416 414/414/414
f 416/416/416 417/417/417 418/418/418
f 419/419/419 418/418/418 417/417/417
f 419/419/419 420/420/420 418/418/418
f 420/420/420 421/421/421 418/418/418
f 421/421/421 422/422/422 418/418/418
f 425/425/425 424/424/424 423/423/423
f 426/426/426 423/423/423 424/424/424
f 427/427/427 423/423/423 426/426/426
f 428/428/428 427/427/427 426/426/426
f 429/429/429 423/423/423 427/427/427
f 430/430/430 423/423/423 429/429/429
f 433/433/433 432/432/432 431/431/431
f 434/434/434 431/431/431 432/432/432
f 431/431/431 434/434/434 435/435/435
f 436/436/436 435/435/435 434/434/434
f 439/439/439 438/438/438 437/437/437
f 438/438/438 440/440/440 437/437/437
f 440/440/440 441/441/441 437/437/437
f 442/442/442 440/440/440 438/438/438
f 443/443/443 442/442/442 438/438/438
f 444/444/444 440/440/440 442/442/442
f 447/447/447 446/446/446 445/445/445
f 446/446/446 447/447/447 448/448/448
f 449/449/449 448/448/448 447/447/447
f 448/448/448 449/449/449 450/450/450
f 447/447/447 451/451/451 449/449/449
f 452/452/452 450/450/450 449/449/449
f 450/450/450 452/452/452 453/453/453
f 454/454/454 449/449/449 451/451/451
f 449/449/449 454/454/454 452/452/452
f 455/455/455 453/453/453 452/452/452
f 453/453/453 455/455/455 456/456/456
f 457/457/457 452/452/452 454/454/454
f 454/454/454 451/451/451 457/457/457
f 452/452/452 457/457/457 455/455/455
f 458/458/458 456/456/456 455/455/455
f 456/456/456 458/458/458 459/459/459
f 460/460/460 459/459/459 458/458/458
f 455/455/455 461/461/461 458/458/458
f 461/461/461 455/455/455 457/457/457
f 462/462/462 458/458/458 461/461/461
f 461/461/461 457/457/457 462/462/462
f 451/451/451 463/463/463 457/457/457
f 457/457/457 463/463/463 462/462/462
f 464/464/464 463/463/463 451/451/451
f 463/463/463 465/465/465 462/462/462
f 459/459/459 467/467/467 466/466/466
f 468/468/468 466/466/466 467/467/467
f 466/466/466 468/468/468 469/469/469
f 470/470/470 469/469/469 468/468/468
f 469/469/469 470/470/470 446/446/446
f 467/467/467 471/471/471 468/468/468
f 471/471/471 467/467/467 472/472/472
f 473/473/473 472/472/472 467/467/467
f 474/474/474 468/468/468 471/471/471
f 468/468/468 474/474/474 470/470/470
f 475/475/475 470/470/470 474/474/474
f 470/470/470 475/475/475 476/476/476
f 477/477/477 476/476/476 475/475/475
f 480/480/480 479/479/479 478/478/478
f 481/481/481 478/478/478 479/479/479
f 479/479/479 480/480/480 482/482/482
f 478/478/478 481/481/481 483/483/483
f 484/484/484 482/482/482 480/480/480
f 485/485/485 483/483/483 481/481/481
f 482/482/482 484/484/484 486/486/486
f 483/483/483 485/485/485 487/487/487
f 488/488/488 486/486/486 484/484/484
f 489/489/489 487/487/487 485/485/485
f 486/486/486 488/488/488 490/490/490
f 487/487/487 489/489/489 491/491/491
f 492/492/492 490/490/490 488/488/488
f 493/493/493 491/491/491 489/489/489
f 490/490/490 492/492/492 494/494/494
f 491/491/491 493/493/493 495/495/495
f 496/496/496 494/494/494 492/492/492
f 497/497/497 495/495/495 493/493/493
f 494/494/494 496/496/496 498/498/498
f 495/495/495 497/497/497 499/499/499
f 500/500/500 498/498/498 496/496/496
f 501/501/501 499/499/499 497/497/497
f 498/498/498 500/500/500 501/501/501
f 499/499/499 501/501/501 500/500/500
f 504/504/504 503/503/503 502/502/502
f 505/505/505 502/502/502 503/503/503
f 503/503/503 504/504/504 506/506/506
f 502/502/502 505/505/505 507/507/507
f 508/508/508 506/506/506 504/504/504
f 509/509/509 507/507/507 505/505/505
f 506/506/506 508/508/508 510/510/510
f 507/507/507 509/509/509 511/511/511
f 512/512/512 510/510/510 508/508/508
f 513/513/513 511/511/511 509/509/509
f 510/510/510 512/512/512 514/514/514
f 511/511/511 513/513/513 515/515/515
f 516/516/516 514/514/514 512/512/512
f 517/517/517 515/515/515 513/513/513
f 514/514/514 516/516/516 518/518/518
f 515/515/515 517/517/517 519/519/519
f 520/520/520 518/518/518 516/516/516
f 521/521/521 519/519/519 517/517/517
f 518/518/518 520/520/520 522/522/522
f 519/519/519 521/521/521 523/523/523
f 524/524/524 522/522/522 520/520/520
f 525/525/525 523/523/523 521/521/521
f 522/522/522 524/524/524 525/525/525
f 523/523/523 525/525/525 524/524/524
