g OL_OnsenDev_TNT_Weapon
v 0.3737649 0.09606788 0.2198053
v 0.2262349 -0.05475655 0.2198053
v 0.2262349 0.09606788 0.2198053
v 0.3737649 -0.05475655 0.2198053
v 0.3464138 0.06640306 0.2187437
v 0.3366911 0.07612514 0.2187437
v 0.339539 0.06925035 0.2187437
v 0.3561359 0.07612514 0.2187437
v 0.3532879 0.06925035 0.2187437
v 0.3464138 0.08584723 0.2187444
v 0.339539 0.08299994 0.2187444
v 0.3532879 0.08299994 0.2187444
v 0.3438936 0.07800964 0.2300424
v 0.3489333 0.07800964 0.2368904
v 0.3438936 0.07800964 0.2368904
v 0.3489333 0.07800964 0.2300424
v 0.3438936 0.07497308 0.2300424
v 0.3489333 0.07497308 0.2368904
v 0.3489333 0.07497308 0.2300424
v 0.3438936 0.07497308 0.2368904
v 0.3438936 0.07800964 0.2300424
v 0.3489333 0.07497308 0.2300424
v 0.3489333 0.07800964 0.2300424
v 0.3438936 0.07497308 0.2300424
v 0.3489333 0.07800964 0.2300424
v 0.3489333 0.07497308 0.2368904
v 0.3489333 0.07800964 0.2368904
v 0.3489333 0.07497308 0.2300424
v 0.3489333 0.07800964 0.2368904
v 0.3438936 0.07497308 0.2368904
v 0.3438936 0.07800964 0.2368904
v 0.3489333 0.07497308 0.2368904
v 0.3438936 0.07800964 0.2368904
v 0.3438936 0.07497308 0.2300424
v 0.3438936 0.07800964 0.2300424
v 0.3438936 0.07497308 0.2368904
v 0.3323138 0.07981044 0.2346452
v 0.3400438 0.07981044 0.2477111
v 0.3323138 0.07981044 0.2477111
v 0.3419968 0.07981044 0.2417422
v 0.3605132 0.07981044 0.2346452
v 0.3508309 0.07981044 0.2417422
v 0.3605132 0.07981044 0.2477111
v 0.3527832 0.07981044 0.2477111
v 0.3400438 0.07244053 0.2477111
v 0.3323138 0.07244053 0.2346452
v 0.3323138 0.07244053 0.2477111
v 0.3419968 0.07244053 0.2417422
v 0.3508309 0.07244053 0.2417422
v 0.3605132 0.07244053 0.2346452
v 0.3527832 0.07244053 0.2477111
v 0.3605132 0.07244053 0.2477111
v 0.3323138 0.07981044 0.2346452
v 0.3605132 0.07244053 0.2346452
v 0.3605132 0.07981044 0.2346452
v 0.3323138 0.07244053 0.2346452
v 0.3605132 0.07981044 0.2346452
v 0.3605132 0.07244053 0.2477111
v 0.3605132 0.07981044 0.2477111
v 0.3605132 0.07244053 0.2346452
v 0.3527832 0.07981044 0.2477111
v 0.3605132 0.07244053 0.2477111
v 0.3527832 0.07244053 0.2477111
v 0.3605132 0.07981044 0.2477111
v 0.3323138 0.07981044 0.2477111
v 0.3323138 0.07244053 0.2346452
v 0.3323138 0.07981044 0.2346452
v 0.3323138 0.07244053 0.2477111
v 0.3323138 0.07981044 0.2477111
v 0.3400438 0.07244053 0.2477111
v 0.3323138 0.07244053 0.2477111
v 0.3400438 0.07981044 0.2477111
v 0.3508309 0.07981044 0.2417422
v 0.3419968 0.07244053 0.2417422
v 0.3419968 0.07981044 0.2417422
v 0.3508309 0.07244053 0.2417422
v 0.3527832 0.07981044 0.2477111
v 0.3508309 0.07244053 0.2417422
v 0.3508309 0.07981044 0.2417422
v 0.3527832 0.07244053 0.2477111
v 0.3419968 0.07981044 0.2417422
v 0.3400438 0.07244053 0.2477111
v 0.3400438 0.07981044 0.2477111
v 0.3419968 0.07244053 0.2417422
v 0.2438638 0.07612514 0.2187437
v 0.2535866 0.08584723 0.2187437
v 0.2467118 0.08299994 0.2187437
v 0.2633087 0.07612514 0.2187437
v 0.2604607 0.08299994 0.2187437
v 0.2535866 0.06640306 0.2187437
v 0.2467118 0.06925035 0.2187437
v 0.2604607 0.06925035 0.2187437
v 0.2561061 0.07800964 0.2300424
v 0.2510664 0.07800964 0.2368904
v 0.2510664 0.07800964 0.2300424
v 0.2561061 0.07800964 0.2368904
v 0.2561061 0.07497308 0.2300424
v 0.2510664 0.07497308 0.2368904
v 0.2561061 0.07497308 0.2368904
v 0.2510664 0.07497308 0.2300424
v 0.2561061 0.07800964 0.2300424
v 0.2510664 0.07497308 0.2300424
v 0.2561061 0.07497308 0.2300424
v 0.2510664 0.07800964 0.2300424
v 0.2510664 0.07800964 0.2300424
v 0.2510664 0.07497308 0.2368904
v 0.2510664 0.07497308 0.2300424
v 0.2510664 0.07800964 0.2368904
v 0.2510664 0.07800964 0.2368904
v 0.2561061 0.07497308 0.2368904
v 0.2510664 0.07497308 0.2368904
v 0.2561061 0.07800964 0.2368904
v 0.2561061 0.07800964 0.2368904
v 0.2561061 0.07497308 0.2300424
v 0.2561061 0.07497308 0.2368904
v 0.2561061 0.07800964 0.2300424
v 0.2599567 0.07981044 0.2477111
v 0.2676866 0.07981044 0.2346452
v 0.2676866 0.07981044 0.2477111
v 0.2580036 0.07981044 0.2417422
v 0.2394866 0.07981044 0.2346452
v 0.2491696 0.07981044 0.2417422
v 0.2394866 0.07981044 0.2477111
v 0.2472165 0.07981044 0.2477111
v 0.2676866 0.07244053 0.2346452
v 0.2599567 0.07244053 0.2477111
v 0.2676866 0.07244053 0.2477111
v 0.2580036 0.07244053 0.2417422
v 0.2491696 0.07244053 0.2417422
v 0.2394866 0.07244053 0.2346452
v 0.2472165 0.07244053 0.2477111
v 0.2394866 0.07244053 0.2477111
v 0.2676866 0.07981044 0.2346452
v 0.2394866 0.07244053 0.2346452
v 0.2676866 0.07244053 0.2346452
v 0.2394866 0.07981044 0.2346452
v 0.2394866 0.07981044 0.2346452
v 0.2394866 0.07244053 0.2477111
v 0.2394866 0.07244053 0.2346452
v 0.2394866 0.07981044 0.2477111
v 0.2472165 0.07981044 0.2477111
v 0.2394866 0.07244053 0.2477111
v 0.2394866 0.07981044 0.2477111
v 0.2472165 0.07244053 0.2477111
v 0.2676866 0.07981044 0.2477111
v 0.2676866 0.07244053 0.2346452
v 0.2676866 0.07244053 0.2477111
v 0.2676866 0.07981044 0.2346452
v 0.2676866 0.07981044 0.2477111
v 0.2599567 0.07244053 0.2477111
v 0.2599567 0.07981044 0.2477111
v 0.2676866 0.07244053 0.2477111
v 0.2491696 0.07981044 0.2417422
v 0.2580036 0.07244053 0.2417422
v 0.2491696 0.07244053 0.2417422
v 0.2580036 0.07981044 0.2417422
v 0.2472165 0.07981044 0.2477111
v 0.2491696 0.07244053 0.2417422
v 0.2472165 0.07244053 0.2477111
v 0.2491696 0.07981044 0.2417422
v 0.2580036 0.07981044 0.2417422
v 0.2599567 0.07244053 0.2477111
v 0.2580036 0.07244053 0.2417422
v 0.2599567 0.07981044 0.2477111
v 0.2999999 0.02809143 0.2122646
v 0.3074356 0.02065566 0.2122646
v 0.3052576 0.02591342 0.2122646
v 0.2925648 0.02065566 0.2122646
v 0.2947421 0.02591342 0.2122646
v 0.2999999 0.01322061 0.2122646
v 0.3052576 0.01539791 0.2122646
v 0.2947421 0.01539791 0.2122646
v 0.2639773 -0.0646933 0.1414258
v 0.3360224 -0.0646933 0.1679498
v 0.3360224 -0.0646933 0.1414258
v 0.2639773 -0.0646933 0.1679498
v 0.2193649 0.09285301 0.02713066
v 0.2193649 -0.051541 0.1995341
v 0.2193649 -0.051541 0.02713066
v 0.2193649 0.09285301 0.1995341
v 0.2264049 -0.06114101 0.1995341
v 0.2264049 0.1024524 0.02713066
v 0.2264049 -0.06114101 0.02713066
v 0.2264049 0.1024524 0.1995341
v 0.3735948 -0.06114101 0.1995341
v 0.3735948 0.1024524 0.02713066
v 0.3735948 -0.06114101 0.02713066
v 0.3735948 0.1024524 0.1995341
v 0.3806356 -0.051541 0.1995341
v 0.3806356 0.09285301 0.02713066
v 0.3806356 -0.051541 0.02713066
v 0.3806356 0.09285301 0.1995341
v 0.3052576 0.02591342 0.2122646
v 0.2999999 0.02809143 0.3091749
v 0.2999999 0.02809143 0.2122646
v 0.3052576 0.02591342 0.3091749
v 0.3074356 0.02065566 0.2122646
v 0.3074356 0.02065566 0.3091749
v 0.3052576 0.01539791 0.2122646
v 0.3052576 0.01539791 0.3091749
v 0.2999999 0.01322061 0.2122646
v 0.2999999 0.01322061 0.3091749
v 0.2947421 0.01539791 0.2122646
v 0.2947421 0.02591342 0.3091749
v 0.2947421 0.02591342 0.2122646
v 0.2925648 0.02065566 0.3091749
v 0.2925648 0.02065566 0.2122646
v 0.2947421 0.01539791 0.3091749
v 0.2607453 -0.0646933 0.1704377
v 0.2639773 -0.0646933 0.1414258
v 0.2607453 -0.0646933 0.1389378
v 0.2639773 -0.0646933 0.1679498
v 0.3360224 -0.0646933 0.1414258
v 0.3392551 -0.0646933 0.1704377
v 0.3392551 -0.0646933 0.1389378
v 0.3360224 -0.0646933 0.1679498
v 0.2156439 0.1062268 0.2198053
v 0.2262349 -0.05475655 0.2198053
v 0.2156439 -0.06491548 0.2198053
v 0.2262349 0.09606788 0.2198053
v 0.3737649 -0.05475655 0.2198053
v 0.3843558 0.1062268 0.2198053
v 0.3737649 0.09606788 0.2198053
v 0.3843558 -0.06491548 0.2198053
v 0.2156439 0.1124488 0.2152202
v 0.2091285 -0.06491548 0.2152202
v 0.2091285 0.1062268 0.2152202
v 0.3843558 0.1124488 0.2152202
v 0.3908713 0.1062268 0.2152202
v 0.2156439 0.1124488 0.1809073
v 0.2156439 -0.07113674 0.2152202
v 0.3843558 -0.07113674 0.2152202
v 0.3908713 -0.06491548 0.2152202
v 0.2091285 -0.06491548 0.1809073
v 0.3908713 0.1062268 0.1809073
v 0.2156439 -0.07113674 0.1809073
v 0.2091285 0.1062268 0.1809073
v 0.3843558 0.1124488 0.1809073
v 0.3843558 -0.07113674 0.1809073
v 0.2156439 -0.06491548 0.1763223
v 0.2156439 0.1062268 0.1763223
v 0.3843558 -0.06491548 0.1763223
v 0.3908713 -0.06491548 0.1809073
v 0.3843558 0.1062268 0.1763223
v 0.3561359 0.07612514 0.2187437
v 0.3532879 0.08299994 0.2301165
v 0.3532879 0.08299994 0.2187444
v 0.3561359 0.07612514 0.2301165
v 0.3532879 0.06925035 0.2187437
v 0.3464138 0.08584723 0.2301165
v 0.3464138 0.08584723 0.2187444
v 0.3532879 0.06925035 0.2301165
v 0.3464138 0.06640306 0.2187437
v 0.339539 0.08299994 0.2301165
v 0.339539 0.08299994 0.2187444
v 0.3464138 0.06640306 0.2301165
v 0.339539 0.06925035 0.2187437
v 0.3366911 0.07612514 0.2301165
v 0.3366911 0.07612514 0.2187437
v 0.339539 0.06925035 0.2301165
v 0.3522291 0.08194044 0.231728
v 0.3464138 0.08434954 0.231728
v 0.3546375 0.07612514 0.231728
v 0.3405979 0.08194044 0.231728
v 0.3381895 0.07612514 0.231728
v 0.3522291 0.07030985 0.231728
v 0.3464138 0.06790146 0.231728
v 0.3405979 0.07030985 0.231728
v 0.2438638 0.07612514 0.2187437
v 0.2467118 0.08299994 0.2301165
v 0.2438638 0.07612514 0.2301165
v 0.2467118 0.08299994 0.2187437
v 0.2467118 0.06925035 0.2187437
v 0.2535866 0.08584723 0.2301165
v 0.2535866 0.08584723 0.2187437
v 0.2467118 0.06925035 0.2301165
v 0.2535866 0.06640306 0.2187437
v 0.2604607 0.08299994 0.2301165
v 0.2604607 0.08299994 0.2187437
v 0.2535866 0.06640306 0.2301165
v 0.2604607 0.06925035 0.2187437
v 0.2633087 0.07612514 0.2301165
v 0.2633087 0.07612514 0.2187437
v 0.2604607 0.06925035 0.2301165
v 0.2477713 0.08194044 0.231728
v 0.2535866 0.08434954 0.231728
v 0.2453622 0.07612514 0.231728
v 0.2594019 0.08194044 0.231728
v 0.2618103 0.07612514 0.231728
v 0.2477713 0.07030985 0.231728
v 0.2535866 0.06790146 0.231728
v 0.2594019 0.07030985 0.231728
v 0.3282081 0.02065566 0.3226728
v 0.3282081 0.03381893 0.3095095
v 0.3282081 0.02996355 0.3188174
v 0.331087 0.02065566 0.3246766
v 0.331087 0.03138036 0.3202342
v 0.3282081 0.007493079 0.3095095
v 0.331087 0.009930998 0.3202342
v 0.3282081 0.01134846 0.3188174
v 0.331087 0.005488604 0.3095095
v 0.3915207 0.009930998 0.3202342
v 0.3915207 0.02065566 0.3246766
v 0.3915207 0.005488604 0.3095095
v 0.331087 0.03582272 0.3095095
v 0.3915207 0.03138036 0.3202342
v 0.3943996 0.01134846 0.3188174
v 0.3943996 0.02065566 0.3226728
v 0.3943996 0.007493079 0.3095095
v 0.3915207 0.009930998 0.2987848
v 0.3943996 0.01134846 0.3002023
v 0.3943996 0.02065566 0.2963469
v 0.331087 0.009930998 0.2987848
v 0.3915207 0.02065566 0.2943425
v 0.3943996 0.02996355 0.3188174
v 0.3943996 0.03381893 0.3095095
v 0.3915207 0.03582272 0.3095095
v 0.3943996 0.02996355 0.3002023
v 0.3915207 0.03138036 0.2987848
v 0.331087 0.02065566 0.2943425
v 0.331087 0.03138036 0.2987848
v 0.3282081 0.01134846 0.3002023
v 0.3282081 0.02065566 0.2963469
v 0.3282081 0.02996355 0.3002023
v 0.2717916 0.03381893 0.3095095
v 0.2717916 0.02996355 0.3002023
v 0.2717916 0.02065566 0.2963469
v 0.2689128 0.03582272 0.3095095
v 0.2689128 0.03138036 0.2987848
v 0.2717916 0.007493079 0.3095095
v 0.2689128 0.02065566 0.2943425
v 0.2717916 0.01134846 0.3002023
v 0.2689128 0.009930998 0.2987848
v 0.208479 0.03138036 0.2987848
v 0.208479 0.03582272 0.3095095
v 0.208479 0.02065566 0.2943425
v 0.2689128 0.03138036 0.3202342
v 0.208479 0.03138036 0.3202342
v 0.2056002 0.03381893 0.3095095
v 0.2056002 0.02996355 0.3002023
v 0.2056002 0.02065566 0.2963469
v 0.208479 0.009930998 0.2987848
v 0.2056002 0.02996355 0.3188174
v 0.2056002 0.02065566 0.3226728
v 0.208479 0.02065566 0.3246766
v 0.2689128 0.005488604 0.3095095
v 0.2056002 0.007493079 0.3095095
v 0.2056002 0.01134846 0.3002023
v 0.208479 0.005488604 0.3095095
v 0.2056002 0.01134846 0.3188174
v 0.208479 0.009930998 0.3202342
v 0.2689128 0.02065566 0.3246766
v 0.2689128 0.009930998 0.3202342
v 0.2717916 0.01134846 0.3188174
v 0.2717916 0.02065566 0.3226728
v 0.2717916 0.02996355 0.3188174
v 0.2605485 0.02065566 0.3189594
v 0.2605485 0.0301055 0.3095095
v 0.2605485 0.02733776 0.3161916
v 0.3394499 0.02065566 0.3189594
v 0.3394499 0.02733776 0.3161916
v 0.3394499 0.0301055 0.3095095
v 0.2605485 0.01120582 0.3095095
v 0.2605485 0.02733776 0.3028274
v 0.2605485 0.02065566 0.3000597
v 0.3394499 0.02733776 0.3028274
v 0.3394499 0.02065566 0.3000597
v 0.2605485 0.01397356 0.3028274
v 0.3394499 0.01397356 0.3028274
v 0.3394499 0.01120582 0.3095095
v 0.2605485 0.01397356 0.3161916
v 0.3394499 0.01397356 0.3161916
v 0.3843558 0.1124488 0.04575741
v 0.2156439 0.1124488 0.01144448
v 0.3843558 0.1124488 0.01144448
v 0.2156439 0.1124488 0.04575741
v 0.3908713 0.1062268 0.01144448
v 0.2156439 0.1062268 0.006859452
v 0.3843558 0.1062268 0.006859452
v 0.2091285 0.1062268 0.04575741
v 0.2091285 0.1062268 0.01144448
v 0.3843558 0.1062268 0.05034244
v 0.3908713 0.1062268 0.04575741
v 0.2156439 0.1062268 0.05034244
v 0.3843558 -0.06491548 0.006859452
v 0.2156439 -0.06491548 0.006859452
v 0.3908713 -0.06491548 0.01144448
v 0.3908713 -0.06491548 0.04575741
v 0.2091285 -0.06491548 0.01144448
v 0.3843558 -0.06491548 0.05034244
v 0.2156439 -0.06491548 0.05034244
v 0.2091285 -0.06491548 0.04575741
v 0.3843558 -0.07113674 0.01144448
v 0.2156439 -0.07113674 0.01144448
v 0.3843558 -0.07113674 0.04575741
v 0.2156439 -0.07113674 0.04575741
vt 0.7827286 0.5810767
vt 0.8005933 0.5810913
vt 0.7914935 0.5763303
vt 0.7918429 0.5858523
vt 0.2925472 0.04327065
vt 0.2884122 0.04327065
vt 0.2896207 0.04327065
vt 0.2966967 0.04327065
vt 0.2954737 0.04327065
vt 0.2925472 0.04327065
vt 0.2896207 0.04327065
vt 0.2954737 0.04327065
vt 0.7946238 0.58064
vt 0.7983657 0.5834209
vt 0.7946238 0.5834209
vt 0.7983657 0.58064
vt 0.7946238 0.58064
vt 0.7983657 0.5834209
vt 0.7983657 0.58064
vt 0.7946238 0.5834209
vt 0.7946238 0.58064
vt 0.7983657 0.58064
vt 0.7983657 0.58064
vt 0.7946238 0.58064
vt 0.7983657 0.58064
vt 0.7983657 0.5834209
vt 0.7983657 0.5834209
vt 0.7983657 0.58064
vt 0.7983657 0.5834209
vt 0.7946238 0.5834209
vt 0.7946238 0.5834209
vt 0.7983657 0.5834209
vt 0.7946238 0.5834209
vt 0.7946238 0.58064
vt 0.7946238 0.58064
vt 0.7946238 0.5834209
vt 0.7860336 0.5825036
vt 0.7917701 0.5878033
vt 0.7860336 0.5878033
vt 0.7932261 0.5853864
vt 0.8069559 0.5825036
vt 0.7997634 0.5853864
vt 0.8069559 0.5878033
vt 0.8012193 0.5878033
vt 0.7917701 0.5878033
vt 0.7860336 0.5825036
vt 0.7860336 0.5878033
vt 0.7932261 0.5853864
vt 0.7997634 0.5853864
vt 0.8069559 0.5825036
vt 0.8012193 0.5878033
vt 0.8069559 0.5878033
vt 0.7860336 0.5825036
vt 0.8069559 0.5825036
vt 0.8069559 0.5825036
vt 0.7860336 0.5825036
vt 0.8069559 0.5825036
vt 0.8069559 0.5878033
vt 0.8069559 0.5878033
vt 0.8069559 0.5825036
vt 0.8012193 0.5878033
vt 0.8069559 0.5878033
vt 0.8012193 0.5878033
vt 0.8069559 0.5878033
vt 0.7860336 0.5878033
vt 0.7860336 0.5825036
vt 0.7860336 0.5825036
vt 0.7860336 0.5878033
vt 0.7860336 0.5878033
vt 0.7917701 0.5878033
vt 0.7860336 0.5878033
vt 0.7917701 0.5878033
vt 0.7997634 0.5853864
vt 0.7932261 0.5853864
vt 0.7932261 0.5853864
vt 0.7997634 0.5853864
vt 0.8012193 0.5878033
vt 0.7997634 0.5853864
vt 0.7997634 0.5853864
vt 0.8012193 0.5878033
vt 0.7932261 0.5853864
vt 0.7917701 0.5878033
vt 0.7917701 0.5878033
vt 0.7932261 0.5853864
vt 0.2884122 0.04327065
vt 0.2925472 0.04327065
vt 0.2896207 0.04327065
vt 0.2966967 0.04327065
vt 0.2954737 0.04327065
vt 0.2925472 0.04327065
vt 0.2896207 0.04327065
vt 0.2954737 0.04327065
vt 0.7968223 0.5797955
vt 0.7930805 0.5825619
vt 0.7930805 0.5797955
vt 0.7968223 0.5825619
vt 0.7968223 0.5797955
vt 0.7930805 0.5825619
vt 0.7968223 0.5825619
vt 0.7930805 0.5797955
vt 0.7968223 0.5797955
vt 0.7930805 0.5797955
vt 0.7968223 0.5797955
vt 0.7930805 0.5797955
vt 0.7930805 0.5797955
vt 0.7930805 0.5825619
vt 0.7930805 0.5797955
vt 0.7930805 0.5825619
vt 0.7930805 0.5825619
vt 0.7968223 0.5825619
vt 0.7930805 0.5825619
vt 0.7968223 0.5825619
vt 0.7968223 0.5825619
vt 0.7968223 0.5797955
vt 0.7968223 0.5825619
vt 0.7968223 0.5797955
vt 0.7996761 0.5869589
vt 0.8054125 0.5816591
vt 0.8054125 0.5869589
vt 0.7982346 0.584542
vt 0.7845048 0.5816591
vt 0.7916828 0.584542
vt 0.7845048 0.5869589
vt 0.7902268 0.5869589
vt 0.8054125 0.5816591
vt 0.7996761 0.5869589
vt 0.8054125 0.5869589
vt 0.7982346 0.584542
vt 0.7916828 0.584542
vt 0.7845048 0.5816591
vt 0.7902268 0.5869589
vt 0.7845048 0.5869589
vt 0.8054125 0.5816591
vt 0.7845048 0.5816591
vt 0.8054125 0.5816591
vt 0.7845048 0.5816591
vt 0.7845048 0.5816591
vt 0.7845048 0.5869589
vt 0.7845048 0.5816591
vt 0.7845048 0.5869589
vt 0.7902268 0.5869589
vt 0.7845048 0.5869589
vt 0.7845048 0.5869589
vt 0.7902268 0.5869589
vt 0.8054125 0.5869589
vt 0.8054125 0.5816591
vt 0.8054125 0.5869589
vt 0.8054125 0.5816591
vt 0.8054125 0.5869589
vt 0.7996761 0.5869589
vt 0.7996761 0.5869589
vt 0.8054125 0.5869589
vt 0.7916828 0.584542
vt 0.7982346 0.584542
vt 0.7916828 0.584542
vt 0.7982346 0.584542
vt 0.7902268 0.5869589
vt 0.7916828 0.584542
vt 0.7902268 0.5869589
vt 0.7916828 0.584542
vt 0.7982346 0.584542
vt 0.7996761 0.5869589
vt 0.7982346 0.584542
vt 0.7996761 0.5869589
vt 0.7942889 0.578325
vt 0.8005351 0.578325
vt 0.7987005 0.578325
vt 0.7880283 0.578325
vt 0.7898628 0.578325
vt 0.7942889 0.578325
vt 0.7987005 0.578325
vt 0.7898628 0.578325
vt 0.02386257 0.6247267
vt 0.9780323 0.9760085
vt 0.9780323 0.6247267
vt 0.02386257 0.9760085
vt 0.3776632 0.051162
vt 0.3686216 0.051162
vt 0.3776632 0.051162
vt 0.3686216 0.051162
vt 0.3686216 0.5530785
vt 0.3776632 0.5530785
vt 0.3776632 0.5530785
vt 0.3686216 0.5530785
vt 0.3686216 0.5530785
vt 0.3776632 0.5530785
vt 0.3776632 0.5530785
vt 0.3686216 0.5530785
vt 0.3686216 0.051162
vt 0.3776632 0.051162
vt 0.3776632 0.051162
vt 0.3686216 0.051162
vt 0.7987005 0.578325
vt 0.7942889 0.5873665
vt 0.7942889 0.578325
vt 0.7987005 0.5873665
vt 0.8005351 0.578325
vt 0.8005351 0.5873665
vt 0.7987005 0.578325
vt 0.7987005 0.5873665
vt 0.7942889 0.578325
vt 0.7942889 0.5873665
vt 0.7898628 0.578325
vt 0.7898628 0.5873665
vt 0.7898628 0.578325
vt 0.7880283 0.5873665
vt 0.7880283 0.578325
vt 0.7898628 0.5873665
vt 0.7875769 0.5330006
vt 0.7883195 0.5226632
vt 0.7875769 0.5217897
vt 0.7883195 0.5321125
vt 0.8048738 0.5226632
vt 0.8056164 0.5330006
vt 0.8056164 0.5217897
vt 0.8048738 0.5321125
vt 0.5235223 0.2369292
vt 0.5235223 0.2369292
vt 0.5235223 0.2369292
vt 0.5235223 0.2369292
vt 0.5235223 0.2369292
vt 0.5235223 0.2369292
vt 0.5235223 0.2369292
vt 0.5235223 0.2369292
vt 0.5235223 0.05748091
vt 0.6738657 0.05748091
vt 0.6738657 0.05748091
vt 0.5235223 0.05748091
vt 0.6738657 0.05748091
vt 0.5235223 0.05748091
vt 0.5235223 0.05748091
vt 0.5235223 0.05748091
vt 0.6738657 0.05748091
vt 0.6738657 0.05748091
vt 0.6738657 0.05748091
vt 0.5235223 0.05748091
vt 0.6738657 0.05748091
vt 0.5235223 0.05748091
vt 0.5235223 0.05748091
vt 0.5235223 0.2369292
vt 0.5235223 0.2369292
vt 0.5235223 0.2369292
vt 0.6738657 0.05748091
vt 0.5235223 0.2369292
vt 0.2966967 0.04327065
vt 0.2954737 0.04327065
vt 0.2954737 0.04327065
vt 0.2966967 0.04327065
vt 0.2954737 0.04327065
vt 0.2925472 0.04327065
vt 0.2925472 0.04327065
vt 0.2954737 0.04327065
vt 0.2925472 0.04327065
vt 0.2896207 0.04327065
vt 0.2896207 0.04327065
vt 0.2925472 0.04327065
vt 0.2896207 0.04327065
vt 0.2884122 0.04327065
vt 0.2884122 0.04327065
vt 0.2896207 0.04327065
vt 0.2954737 0.5562233
vt 0.2925472 0.5562233
vt 0.2966967 0.5562233
vt 0.2896207 0.5562233
vt 0.2884122 0.5562233
vt 0.2954737 0.5562233
vt 0.2925472 0.5562233
vt 0.2896207 0.5562233
vt 0.2884122 0.04327065
vt 0.2896207 0.04327065
vt 0.2884122 0.04327065
vt 0.2896207 0.04327065
vt 0.2896207 0.04327065
vt 0.2925472 0.04327065
vt 0.2925472 0.04327065
vt 0.2896207 0.04327065
vt 0.2925472 0.04327065
vt 0.2954737 0.04327065
vt 0.2954737 0.04327065
vt 0.2925472 0.04327065
vt 0.2954737 0.04327065
vt 0.2966967 0.04327065
vt 0.2966967 0.04327065
vt 0.2954737 0.04327065
vt 0.2896207 0.5562233
vt 0.2925472 0.5562233
vt 0.2884122 0.5562233
vt 0.2954737 0.5562233
vt 0.2966967 0.5562233
vt 0.2896207 0.5562233
vt 0.2925472 0.5562233
vt 0.2954737 0.5562233
vt 0.2058005 0.5584073
vt 0.2003552 0.5584073
vt 0.204199 0.5584073
vt 0.2058005 0.0399656
vt 0.204199 0.0399656
vt 0.2003552 0.5584073
vt 0.204199 0.0399656
vt 0.204199 0.5584073
vt 0.2003552 0.0399656
vt 0.204199 0.0399656
vt 0.2058005 0.0399656
vt 0.2003552 0.0399656
vt 0.2003552 0.0399656
vt 0.204199 0.0399656
vt 0.204199 0.5584073
vt 0.2058005 0.5584073
vt 0.2003552 0.5584073
vt 0.1965114 0.0399656
vt 0.1965114 0.5584073
vt 0.1949244 0.5584073
vt 0.1965114 0.0399656
vt 0.1949244 0.0399656
vt 0.204199 0.5584073
vt 0.2003552 0.5584073
vt 0.2003552 0.0399656
vt 0.1965114 0.5584073
vt 0.1965114 0.0399656
vt 0.1949244 0.0399656
vt 0.1965114 0.0399656
vt 0.1965114 0.5584073
vt 0.1949244 0.5584073
vt 0.1965114 0.5584073
vt 0.2003552 0.5584073
vt 0.1965114 0.5584073
vt 0.1949244 0.5584073
vt 0.2003552 0.0399656
vt 0.1965114 0.0399656
vt 0.2003552 0.5584073
vt 0.1949244 0.0399656
vt 0.1965114 0.5584073
vt 0.1965114 0.0399656
vt 0.1965114 0.0399656
vt 0.2003552 0.0399656
vt 0.1949244 0.0399656
vt 0.204199 0.0399656
vt 0.204199 0.0399656
vt 0.2003552 0.5584073
vt 0.1965114 0.5584073
vt 0.1949244 0.5584073
vt 0.1965114 0.0399656
vt 0.204199 0.5584073
vt 0.2058005 0.5584073
vt 0.2058005 0.0399656
vt 0.2003552 0.0399656
vt 0.2003552 0.5584073
vt 0.1965114 0.5584073
vt 0.2003552 0.0399656
vt 0.204199 0.5584073
vt 0.204199 0.0399656
vt 0.2058005 0.0399656
vt 0.204199 0.0399656
vt 0.204199 0.5584073
vt 0.2058005 0.5584073
vt 0.204199 0.5584073
vt 0.7894406 0.5858523
vt 0.7894406 0.5831442
vt 0.7894406 0.5850661
vt 0.8044662 0.5858523
vt 0.8044662 0.5850661
vt 0.8044662 0.5831442
vt 0.7894406 0.5831442
vt 0.7894406 0.5812224
vt 0.7894406 0.5804361
vt 0.8044662 0.5812224
vt 0.8044662 0.5804361
vt 0.7894406 0.5812224
vt 0.8044662 0.5812224
vt 0.8044662 0.5831442
vt 0.7894406 0.5850661
vt 0.8044662 0.5850661
vt 0.5235223 0.3406524
vt 0.5235223 0.3406524
vt 0.5235223 0.3406524
vt 0.5235223 0.3406524
vt 0.6738657 0.3406524
vt 0.5235223 0.5233476
vt 0.5235223 0.5233476
vt 0.6738657 0.3406524
vt 0.6738657 0.3406524
vt 0.5235223 0.5233476
vt 0.6738657 0.3406524
vt 0.5235223 0.5233476
vt 0.5235223 0.5233476
vt 0.5235223 0.5233476
vt 0.6738657 0.3406524
vt 0.6738657 0.3406524
vt 0.6738657 0.3406524
vt 0.5235223 0.5233476
vt 0.5235223 0.5233476
vt 0.6738657 0.3406524
vt 0.5235223 0.3406524
vt 0.5235223 0.3406524
vt 0.5235223 0.3406524
vt 0.5235223 0.3406524
vn -0.0009775162 -0.0009775162 0.999999
vn -0.0009775162 -0.0009775162 0.999999
vn -0.0009775162 -0.0009775162 0.999999
vn -0.0009775162 -0.0009775162 0.999999
vn -0.0009775162 0.0009775162 -0.999999
vn -0.0009775162 0.0009775162 -0.999999
vn -0.0009775162 0.0009775162 -0.999999
vn -0.0009775162 0.0009775162 -0.999999
vn -0.0009775162 0.0009775162 -0.999999
vn -0.0009775162 0.0009775162 -0.999999
vn -0.0009775162 0.0009775162 -0.999999
vn 0.0009775162 0.0009775162 -0.999999
vn -0.0009775162 0.9999995 0
vn -0.0009775162 0.9999995 0
vn -0.0009775162 0.9999995 0
vn -0.0009775162 0.9999995 0
vn -0.0009775162 -0.9999995 0
vn -0.0009775162 -0.9999995 0
vn -0.0009775162 -0.9999995 0
vn -0.0009775162 -0.9999995 0
vn -0.0009775162 0.0009775162 -0.999999
vn -0.0009775162 0.0009775162 -0.999999
vn -0.0009775162 0.0009775162 -0.999999
vn -0.0009775162 0.0009775162 -0.999999
vn 0.9999995 0.0009775162 0
vn 0.9999995 0.0009775162 0
vn 0.9999995 0.0009775162 0
vn 0.9999995 0.0009775162 0
vn -0.0009775162 0.0009775162 0.999999
vn -0.0009775162 0.0009775162 0.999999
vn -0.0009775162 0.0009775162 0.999999
vn -0.0009775162 0.0009775162 0.999999
vn -0.9999995 0.0009775162 0
vn -0.9999995 0.0009775162 0
vn -0.9999995 0.0009775162 0
vn -0.9999995 0.0009775162 0
vn -0.0009775162 0.9999995 0
vn -0.0009775162 0.9999995 0
vn -0.0009775162 0.9999995 0
vn -0.0009775162 0.9999995 0
vn 0.0009775162 0.9999995 0
vn 0.0009775162 0.9999995 0
vn 0.0009775162 0.9999995 0
vn -0.0009775162 0.9999995 0
vn 0.0009775162 -0.9999995 0
vn -0.0009775162 -0.9999995 0
vn -0.0009775162 -0.9999995 0
vn 0.0009775162 -0.9999995 0
vn -0.0009775162 -0.9999995 0
vn -0.0009775162 -0.9999995 0
vn -0.0009775162 -0.9999995 0
vn -0.0009775162 -0.9999995 0
vn -0.0009775162 0.0009775162 -0.999999
vn -0.0009775162 0.0009775162 -0.999999
vn -0.0009775162 0.0009775162 -0.999999
vn -0.0009775162 0.0009775162 -0.999999
vn 0.9999995 0.0009775162 0
vn 0.9999995 0.0009775162 0
vn 0.9999995 0.0009775162 0
vn 0.9999995 0.0009775162 0
vn -0.0009775162 -0.0009775162 0.999999
vn -0.0009775162 -0.0009775162 0.999999
vn -0.0009775162 -0.0009775162 0.999999
vn -0.0009775162 -0.0009775162 0.999999
vn -0.9999995 0.0009775162 0
vn -0.9999995 0.0009775162 0
vn -0.9999995 0.0009775162 0
vn -0.9999995 0.0009775162 0
vn -0.0009775162 -0.0009775162 0.999999
vn -0.0009775162 -0.0009775162 0.999999
vn -0.0009775162 -0.0009775162 0.999999
vn -0.0009775162 -0.0009775162 0.999999
vn -0.0009775162 0.0009775162 0.999999
vn -0.0009775162 0.0009775162 0.999999
vn -0.0009775162 0.0009775162 0.999999
vn -0.0009775162 0.0009775162 0.999999
vn -0.9511237 -0.0009775162 0.3088086
vn -0.9511237 -0.0009775162 0.3088086
vn -0.9511237 0.0009775162 0.3088086
vn -0.9511237 -0.0009775162 0.3088086
vn 0.9511237 -0.0009775162 0.3088086
vn 0.9511237 -0.0009775162 0.3088086
vn 0.9511237 -0.0009775162 0.3088086
vn 0.9511237 0.0009775162 0.3088086
vn -0.0009775162 0.0009775162 -0.999999
vn -0.0009775162 0.0009775162 -0.999999
vn -0.0009775162 0.0009775162 -0.999999
vn -0.0009775162 0.0009775162 -0.999999
vn -0.0009775162 0.0009775162 -0.999999
vn -0.0009775162 0.0009775162 -0.999999
vn -0.0009775162 0.0009775162 -0.999999
vn -0.0009775162 0.0009775162 -0.999999
vn -0.0009775162 0.9999995 0
vn -0.0009775162 0.9999995 0
vn -0.0009775162 0.9999995 0
vn -0.0009775162 0.9999995 0
vn -0.0009775162 -0.9999995 0
vn -0.0009775162 -0.9999995 0
vn -0.0009775162 -0.9999995 0
vn -0.0009775162 -0.9999995 0
vn -0.0009775162 0.0009775162 -0.999999
vn -0.0009775162 0.0009775162 -0.999999
vn -0.0009775162 0.0009775162 -0.999999
vn -0.0009775162 0.0009775162 -0.999999
vn -0.9999995 0.0009775162 0
vn -0.9999995 0.0009775162 0
vn -0.9999995 0.0009775162 0
vn -0.9999995 0.0009775162 0
vn -0.0009775162 0.0009775162 0.999999
vn -0.0009775162 0.0009775162 0.999999
vn -0.0009775162 0.0009775162 0.999999
vn -0.0009775162 0.0009775162 0.999999
vn 0.9999995 0.0009775162 0
vn 0.9999995 0.0009775162 0
vn 0.9999995 0.0009775162 0
vn 0.9999995 0.0009775162 0
vn 0.0009775162 0.9999995 0
vn -0.0009775162 0.9999995 0
vn -0.0009775162 0.9999995 0
vn 0.0009775162 0.9999995 0
vn -0.0009775162 0.9999995 0
vn -0.0009775162 0.9999995 0
vn -0.0009775162 0.9999995 0
vn -0.0009775162 0.9999995 0
vn -0.0009775162 -0.9999995 0
vn -0.0009775162 -0.9999995 0
vn -0.0009775162 -0.9999995 0
vn -0.0009775162 -0.9999995 0
vn 0.0009775162 -0.9999995 0
vn 0.0009775162 -0.9999995 0
vn 0.0009775162 -0.9999995 0
vn -0.0009775162 -0.9999995 0
vn -0.0009775162 0.0009775162 -0.999999
vn -0.0009775162 0.0009775162 -0.999999
vn -0.0009775162 0.0009775162 -0.999999
vn -0.0009775162 0.0009775162 -0.999999
vn -0.9999995 0.0009775162 0
vn -0.9999995 0.0009775162 0
vn -0.9999995 0.0009775162 0
vn -0.9999995 0.0009775162 0
vn -0.0009775162 -0.0009775162 0.999999
vn -0.0009775162 -0.0009775162 0.999999
vn -0.0009775162 -0.0009775162 0.999999
vn -0.0009775162 -0.0009775162 0.999999
vn 0.9999995 0.0009775162 0
vn 0.9999995 0.0009775162 0
vn 0.9999995 0.0009775162 0
vn 0.9999995 0.0009775162 0
vn -0.0009775162 -0.0009775162 0.999999
vn -0.0009775162 -0.0009775162 0.999999
vn -0.0009775162 -0.0009775162 0.999999
vn -0.0009775162 -0.0009775162 0.999999
vn -0.0009775162 0.0009775162 0.999999
vn -0.0009775162 0.0009775162 0.999999
vn -0.0009775162 0.0009775162 0.999999
vn -0.0009775162 0.0009775162 0.999999
vn 0.9511237 -0.0009775162 0.3088086
vn 0.9511237 -0.0009775162 0.3088086
vn 0.9511237 -0.0009775162 0.3088086
vn 0.9511237 0.0009775162 0.3088086
vn -0.9511237 -0.0009775162 0.3088086
vn -0.9511237 -0.0009775162 0.3088086
vn -0.9511237 0.0009775162 0.3088086
vn -0.9511237 -0.0009775162 0.3088086
vn -0.0009775162 0.0009775162 -0.999999
vn -0.0009775162 0.0009775162 -0.999999
vn 0.0009775162 0.0009775162 -0.999999
vn -0.0009775162 0.0009775162 -0.999999
vn -0.0009775162 0.0009775162 -0.999999
vn -0.0009775162 0.0009775162 -0.999999
vn -0.0009775162 0.0009775162 -0.999999
vn 0.0009775162 0.0009775162 -0.999999
vn -0.0009775162 -0.9999995 0
vn -0.0009775162 -0.9999995 0
vn 0.0009775162 -0.9999995 0
vn -0.0009775162 -0.9999995 0
vn -0.9999995 0.0009775162 0
vn -0.9999995 0.0009775162 0
vn -0.9999995 0.0009775162 0
vn -0.9999995 0.0009775162 0
vn -0.0009775162 -0.9999995 0
vn -0.0009775162 0.9999995 0
vn -0.0009775162 -0.9999995 0
vn -0.0009775162 0.9999995 0
vn -0.0009775162 -0.9999995 0
vn -0.0009775162 0.9999995 0
vn -0.0009775162 -0.9999995 0
vn -0.0009775162 0.9999995 0
vn 0.9999995 0.0009775162 0
vn 0.9999995 0.0009775162 0
vn 0.9999995 0.0009775162 0
vn 0.9999995 0.0009775162 0
vn 0.7067446 0.7067446 -0.03200431
vn 0.0009775162 0.9921794 0.1248163
vn -0.0009775162 0.9999995 0
vn 0.7067446 0.7067446 0.03200431
vn 0.9999995 -0.0009775162 0
vn 0.9921794 0.0009775162 0.1248163
vn 0.7067446 -0.7067446 -0.03200431
vn 0.7067446 -0.7067446 0.03200431
vn -0.0009775162 -0.9999995 0
vn -0.0009775162 -0.9921794 0.1248163
vn -0.7067446 -0.7067446 -0.03200431
vn -0.7067446 0.7067446 0.03200431
vn -0.7067446 0.7067446 0.03200431
vn -0.9921794 0.0009775162 0.1248163
vn -0.9999995 -0.0009775162 0
vn -0.7067446 -0.7067446 0.03200431
vn -0.0009775162 -0.9999995 0
vn -0.0009775162 -0.9999995 0
vn -0.0009775162 -0.9999995 0
vn -0.0009775162 -0.9999995 0
vn 0.0009775162 -0.9999995 0
vn 0.0009775162 -0.9999995 0
vn 0.0009775162 -0.9999995 0
vn -0.0009775162 -0.9999995 0
vn -0.0009775162 -0.0009775162 0.999999
vn -0.0009775162 -0.0009775162 0.999999
vn 0.0009775162 -0.0009775162 0.999999
vn -0.0009775162 -0.0009775162 0.999999
vn -0.0009775162 -0.0009775162 0.999999
vn 0.0009775162 -0.0009775162 0.999999
vn -0.0009775162 -0.0009775162 0.999999
vn -0.0009775162 -0.0009775162 0.999999
vn -0.0009775162 0.9999995 0
vn -0.9999995 0.0009775162 0
vn -0.9999995 0.0009775162 0
vn -0.0009775162 0.9999995 0
vn 0.9999995 0.0009775162 0
vn -0.0009775162 0.9999995 0
vn -0.0009775162 -0.9999995 0
vn -0.0009775162 -0.9999995 0
vn 0.9999995 0.0009775162 0
vn -0.9999995 0.0009775162 0
vn 0.9999995 0.0009775162 0
vn -0.0009775162 -0.9999995 0
vn -0.9999995 0.0009775162 0
vn -0.0009775162 0.9999995 0
vn -0.0009775162 -0.9999995 0
vn -0.0009775162 0.0009775162 -0.999999
vn -0.0009775162 0.0009775162 -0.999999
vn -0.0009775162 0.0009775162 -0.999999
vn 0.9999995 0.0009775162 0
vn -0.0009775162 0.0009775162 -0.999999
vn 0.9999995 -0.0009775162 0
vn 0.7067446 0.7067446 -0.03200431
vn 0.7067446 0.7067446 -0.03200431
vn 0.9999995 0.0009775162 0
vn 0.7067446 -0.7067446 0.03200431
vn -0.0009775162 0.9999995 0
vn -0.0009775162 0.9999995 0
vn 0.7067446 -0.7067446 0.03200431
vn 0.0009775162 -0.9999995 0
vn -0.7067446 0.7067446 -0.03200431
vn -0.7067446 0.7067446 -0.03200431
vn 0.0009775162 -0.9999995 0
vn -0.7067446 -0.7067446 0.03200431
vn -0.9999995 -0.0009775162 0
vn -0.9999995 -0.0009775162 0
vn -0.7067446 -0.7067446 0.03200431
vn -0.0009775162 0.0009775162 0.999999
vn -0.0009775162 0.0009775162 0.999999
vn -0.0009775162 0.0009775162 0.999999
vn -0.0009775162 0.0009775162 0.999999
vn -0.0009775162 0.0009775162 0.999999
vn -0.0009775162 0.0009775162 0.999999
vn -0.0009775162 0.0009775162 0.999999
vn -0.0009775162 0.0009775162 0.999999
vn -0.9999995 0.0009775162 0
vn -0.7067446 0.7067446 -0.03200431
vn -0.9999995 0.0009775162 0
vn -0.7067446 0.7067446 -0.03200431
vn -0.7067446 -0.7067446 -0.03200431
vn -0.0009775162 0.9999995 0
vn -0.0009775162 0.9999995 0
vn -0.7067446 -0.7067446 -0.03200431
vn -0.0009775162 -0.9999995 0
vn 0.7067446 0.7067446 -0.03200431
vn 0.7067446 0.7067446 -0.03200431
vn -0.0009775162 -0.9999995 0
vn 0.7067446 -0.7067446 -0.03200431
vn 0.9999995 0.0009775162 0
vn 0.9999995 0.0009775162 0
vn 0.7067446 -0.7067446 -0.03200431
vn -0.0009775162 0.0009775162 0.999999
vn -0.0009775162 0.0009775162 0.999999
vn -0.0009775162 0.0009775162 0.999999
vn -0.0009775162 0.0009775162 0.999999
vn -0.0009775162 0.0009775162 0.999999
vn -0.0009775162 0.0009775162 0.999999
vn -0.0009775162 0.0009775162 0.999999
vn -0.0009775162 0.0009775162 0.999999
vn -0.9999995 0.0009775162 0
vn -0.9999995 0.0009775162 0
vn -0.9999995 0.0009775162 0
vn -0.0009775162 0.0009775162 0.999999
vn -0.0009775162 0.7067446 0.7074682
vn -0.9999995 0.0009775162 0
vn -0.0009775162 -0.7067446 0.7074682
vn -0.9999995 0.0009775162 0
vn -0.0009775162 -0.9999995 0
vn -0.0009775162 -0.7067446 0.7074682
vn -0.0009775162 0.0009775162 0.999999
vn -0.0009775162 -0.9999995 0
vn -0.0009775162 0.9999995 0
vn -0.0009775162 0.7067446 0.7074682
vn 0.9999995 0.0009775162 0
vn 0.9999995 0.0009775162 0
vn 0.9999995 0.0009775162 0
vn -0.0009775162 -0.7067446 -0.7074682
vn 0.9999995 0.0009775162 0
vn 0.9999995 0.0009775162 0
vn -0.0009775162 -0.7067446 -0.7074682
vn -0.0009775162 0.0009775162 -0.999999
vn 0.9999995 -0.0009775162 0
vn 0.9999995 0.0009775162 0
vn -0.0009775162 0.9999995 0
vn 0.9999995 -0.0009775162 0
vn -0.0009775162 0.7067446 -0.7074682
vn -0.0009775162 0.0009775162 -0.999999
vn -0.0009775162 0.7067446 -0.7074682
vn -0.9999995 0.0009775162 0
vn -0.9999995 0.0009775162 0
vn -0.9999995 0.0009775162 0
vn 0.9999995 0.0009775162 0
vn 0.9999995 0.0009775162 0
vn 0.9999995 0.0009775162 0
vn -0.0009775162 0.9999995 0
vn -0.0009775162 0.7067446 -0.7074682
vn 0.9999995 0.0009775162 0
vn -0.0009775162 0.0009775162 -0.999999
vn 0.9999995 0.0009775162 0
vn -0.0009775162 -0.7067446 -0.7074682
vn -0.0009775162 0.7067446 -0.7074682
vn -0.0009775162 0.9999995 0
vn -0.0009775162 0.0009775162 -0.999999
vn -0.0009775162 0.7067446 0.7074682
vn -0.0009775162 0.7067446 0.7074682
vn -0.9999995 0.0009775162 0
vn -0.9999995 0.0009775162 0
vn -0.9999995 0.0009775162 0
vn -0.0009775162 -0.7067446 -0.7074682
vn -0.9999995 0.0009775162 0
vn -0.9999995 0.0009775162 0
vn -0.0009775162 0.0009775162 0.999999
vn -0.0009775162 -0.9999995 0
vn -0.9999995 0.0009775162 0
vn -0.9999995 0.0009775162 0
vn -0.0009775162 -0.9999995 0
vn -0.9999995 0.0009775162 0
vn -0.0009775162 -0.7067446 0.7074682
vn -0.0009775162 0.0009775162 0.999999
vn -0.0009775162 -0.7067446 0.7074682
vn 0.9999995 0.0009775162 0
vn 0.9999995 0.0009775162 0
vn 0.9999995 0.0009775162 0
vn -0.1827956 0.0009775162 0.9831504
vn -0.1827956 0.9824042 -0.03831064
vn -0.05180836 0.7067446 0.7055693
vn 0.1827956 0.0009775162 0.9831504
vn 0.05180836 0.7067446 0.7055693
vn 0.1827956 0.9824042 -0.03831064
vn -0.1827956 -0.9824042 -0.03831064
vn -0.05180836 0.7067446 -0.7055693
vn -0.1827956 0.0009775162 -0.9831504
vn 0.05180836 0.7067446 -0.7055693
vn 0.1827956 0.0009775162 -0.9831504
vn -0.05180836 -0.7067446 -0.7055693
vn 0.05180836 -0.7067446 -0.7055693
vn 0.1827956 -0.9824042 -0.03831064
vn -0.05180836 -0.7067446 0.7055693
vn 0.05180836 -0.7067446 0.7055693
vn -0.0009775162 0.9999995 0
vn -0.0009775162 0.9999995 0
vn -0.0009775162 0.9999995 0
vn -0.0009775162 0.9999995 0
vn 0.9999995 0.0009775162 0
vn -0.0009775162 0.0009775162 -0.999999
vn -0.0009775162 0.0009775162 -0.999999
vn -0.9999995 0.0009775162 0
vn -0.9999995 0.0009775162 0
vn -0.0009775162 -0.0009775162 0.999999
vn 0.9999995 0.0009775162 0
vn -0.0009775162 -0.0009775162 0.999999
vn -0.0009775162 0.0009775162 -0.999999
vn -0.0009775162 0.0009775162 -0.999999
vn 0.9999995 0.0009775162 0
vn 0.9999995 0.0009775162 0
vn -0.9999995 0.0009775162 0
vn -0.0009775162 -0.0009775162 0.999999
vn -0.0009775162 -0.0009775162 0.999999
vn -0.9999995 0.0009775162 0
vn -0.0009775162 -0.9999995 0
vn -0.0009775162 -0.9999995 0
vn -0.0009775162 -0.9999995 0
vn -0.0009775162 -0.9999995 0
g OL_OnsenDev_TNT_Weapon_0
f 3/3/3 2/2/2 1/1/1
f 4/4/4 1/1/1 2/2/2
f 7/7/7 6/6/6 5/5/5
f 6/6/6 8/8/8 5/5/5
f 8/8/8 9/9/9 5/5/5
f 10/10/10 8/8/8 6/6/6
f 11/11/11 10/10/10 6/6/6
f 12/12/12 8/8/8 10/10/10
f 15/15/15 14/14/14 13/13/13
f 16/16/16 13/13/13 14/14/14
f 19/19/19 18/18/18 17/17/17
f 20/20/20 17/17/17 18/18/18
f 23/23/23 22/22/22 21/21/21
f 24/24/24 21/21/21 22/22/22
f 27/27/27 26/26/26 25/25/25
f 28/28/28 25/25/25 26/26/26
f 31/31/31 30/30/30 29/29/29
f 32/32/32 29/29/29 30/30/30
f 35/35/35 34/34/34 33/33/33
f 36/36/36 33/33/33 34/34/34
f 39/39/39 38/38/38 37/37/37
f 38/38/38 40/40/40 37/37/37
f 40/40/40 41/41/41 37/37/37
f 42/42/42 41/41/41 40/40/40
f 43/43/43 41/41/41 42/42/42
f 44/44/44 43/43/43 42/42/42
f 47/47/47 46/46/46 45/45/45
f 46/46/46 48/48/48 45/45/45
f 49/49/49 48/48/48 46/46/46
f 50/50/50 49/49/49 46/46/46
f 51/51/51 49/49/49 50/50/50
f 52/52/52 51/51/51 50/50/50
f 55/55/55 54/54/54 53/53/53
f 56/56/56 53/53/53 54/54/54
f 59/59/59 58/58/58 57/57/57
f 60/60/60 57/57/57 58/58/58
f 63/63/63 62/62/62 61/61/61
f 64/64/64 61/61/61 62/62/62
f 67/67/67 66/66/66 65/65/65
f 68/68/68 65/65/65 66/66/66
f 71/71/71 70/70/70 69/69/69
f 72/72/72 69/69/69 70/70/70
f 75/75/75 74/74/74 73/73/73
f 76/76/76 73/73/73 74/74/74
f 79/79/79 78/78/78 77/77/77
f 80/80/80 77/77/77 78/78/78
f 83/83/83 82/82/82 81/81/81
f 84/84/84 81/81/81 82/82/82
f 87/87/87 86/86/86 85/85/85
f 86/86/86 88/88/88 85/85/85
f 89/89/89 88/88/88 86/86/86
f 88/88/88 90/90/90 85/85/85
f 90/90/90 91/91/91 85/85/85
f 92/92/92 90/90/90 88/88/88
f 95/95/95 94/94/94 93/93/93
f 96/96/96 93/93/93 94/94/94
f 99/99/99 98/98/98 97/97/97
f 100/100/100 97/97/97 98/98/98
f 103/103/103 102/102/102 101/101/101
f 104/104/104 101/101/101 102/102/102
f 107/107/107 106/106/106 105/105/105
f 108/108/108 105/105/105 106/106/106
f 111/111/111 110/110/110 109/109/109
f 112/112/112 109/109/109 110/110/110
f 115/115/115 114/114/114 113/113/113
f 116/116/116 113/113/113 114/114/114
f 119/119/119 118/118/118 117/117/117
f 118/118/118 120/120/120 117/117/117
f 121/121/121 120/120/120 118/118/118
f 122/122/122 120/120/120 121/121/121
f 123/123/123 122/122/122 121/121/121
f 124/124/124 122/122/122 123/123/123
f 127/127/127 126/126/126 125/125/125
f 126/126/126 128/128/128 125/125/125
f 128/128/128 129/129/129 125/125/125
f 129/129/129 130/130/130 125/125/125
f 131/131/131 130/130/130 129/129/129
f 132/132/132 130/130/130 131/131/131
f 135/135/135 134/134/134 133/133/133
f 136/136/136 133/133/133 134/134/134
f 139/139/139 138/138/138 137/137/137
f 140/140/140 137/137/137 138/138/138
f 143/143/143 142/142/142 141/141/141
f 144/144/144 141/141/141 142/142/142
f 147/147/147 146/146/146 145/145/145
f 148/148/148 145/145/145 146/146/146
f 151/151/151 150/150/150 149/149/149
f 152/152/152 149/149/149 150/150/150
f 155/155/155 154/154/154 153/153/153
f 156/156/156 153/153/153 154/154/154
f 159/159/159 158/158/158 157/157/157
f 160/160/160 157/157/157 158/158/158
f 163/163/163 162/162/162 161/161/161
f 164/164/164 161/161/161 162/162/162
f 167/167/167 166/166/166 165/165/165
f 166/166/166 168/168/168 165/165/165
f 168/168/168 169/169/169 165/165/165
f 170/170/170 168/168/168 166/166/166
f 171/171/171 170/170/170 166/166/166
f 172/172/172 168/168/168 170/170/170
f 175/175/175 174/174/174 173/173/173
f 176/176/176 173/173/173 174/174/174
f 179/179/179 178/178/178 177/177/177
f 180/180/180 177/177/177 178/178/178
f 178/178/178 179/179/179 181/181/181
f 177/177/177 180/180/180 182/182/182
f 183/183/183 181/181/181 179/179/179
f 184/184/184 182/182/182 180/180/180
f 181/181/181 183/183/183 185/185/185
f 182/182/182 184/184/184 186/186/186
f 187/187/187 185/185/185 183/183/183
f 188/188/188 186/186/186 184/184/184
f 185/185/185 187/187/187 189/189/189
f 186/186/186 188/188/188 190/190/190
f 191/191/191 189/189/189 187/187/187
f 192/192/192 190/190/190 188/188/188
f 189/189/189 191/191/191 192/192/192
f 190/190/190 192/192/192 191/191/191
f 195/195/195 194/194/194 193/193/193
f 196/196/196 193/193/193 194/194/194
f 193/193/193 196/196/196 197/197/197
f 198/198/198 197/197/197 196/196/196
f 196/196/196 194/194/194 198/198/198
f 197/197/197 198/198/198 199/199/199
f 200/200/200 199/199/199 198/198/198
f 199/199/199 200/200/200 201/201/201
f 200/200/200 198/198/198 202/202/202
f 202/202/202 201/201/201 200/200/200
f 198/198/198 194/194/194 202/202/202
f 201/201/201 202/202/202 203/203/203
f 194/194/194 195/195/195 204/204/204
f 205/205/205 204/204/204 195/195/195
f 194/194/194 204/204/204 206/206/206
f 204/204/204 205/205/205 206/206/206
f 202/202/202 194/194/194 206/206/206
f 207/207/207 206/206/206 205/205/205
f 208/208/208 203/203/203 202/202/202
f 208/208/208 202/202/202 206/206/206
f 206/206/206 207/207/207 208/208/208
f 203/203/203 208/208/208 207/207/207
f 211/211/211 210/210/210 209/209/209
f 212/212/212 209/209/209 210/210/210
f 210/210/210 211/211/211 213/213/213
f 209/209/209 212/212/212 214/214/214
f 215/215/215 213/213/213 211/211/211
f 216/216/216 214/214/214 212/212/212
f 213/213/213 215/215/215 216/216/216
f 214/214/214 216/216/216 215/215/215
f 219/219/219 218/218/218 217/217/217
f 220/220/220 217/217/217 218/218/218
f 218/218/218 219/219/219 221/221/221
f 217/217/217 220/220/220 222/222/222
f 223/223/223 222/222/222 220/220/220
f 221/221/221 224/224/224 223/223/223
f 224/224/224 221/221/221 219/219/219
f 222/222/222 223/223/223 224/224/224
f 217/217/217 222/222/222 225/225/225
f 219/219/219 217/217/217 226/226/226
f 217/217/217 225/225/225 227/227/227
f 227/227/227 226/226/226 217/217/217
f 228/228/228 225/225/225 222/222/222
f 222/222/222 224/224/224 229/229/229
f 222/222/222 229/229/229 228/228/228
f 225/225/225 230/230/230 227/227/227
f 225/225/225 228/228/228 230/230/230
f 231/231/231 219/219/219 226/226/226
f 224/224/224 219/219/219 232/232/232
f 231/231/231 232/232/232 219/219/219
f 233/233/233 229/229/229 224/224/224
f 232/232/232 233/233/233 224/224/224
f 226/226/226 227/227/227 234/234/234
f 226/226/226 234/234/234 231/231/231
f 229/229/229 235/235/235 228/228/228
f 229/229/229 233/233/233 235/235/235
f 231/231/231 236/236/236 232/232/232
f 236/236/236 231/231/231 234/234/234
f 237/237/237 234/234/234 227/227/227
f 237/237/237 227/227/227 230/230/230
f 238/238/238 230/230/230 228/228/228
f 238/238/238 228/228/228 235/235/235
f 232/232/232 239/239/239 233/233/233
f 239/239/239 232/232/232 236/236/236
f 236/236/236 234/234/234 240/240/240
f 234/234/234 237/237/237 240/240/240
f 237/237/237 230/230/230 241/241/241
f 230/230/230 238/238/238 241/241/241
f 241/241/241 240/240/240 237/237/237
f 240/240/240 242/242/242 236/236/236
f 239/239/239 236/236/236 242/242/242
f 240/240/240 241/241/241 242/242/242
f 243/243/243 233/233/233 239/239/239
f 243/243/243 235/235/235 233/233/233
f 239/239/239 242/242/242 243/243/243
f 235/235/235 244/244/244 238/238/238
f 244/244/244 241/241/241 238/238/238
f 235/235/235 243/243/243 244/244/244
f 244/244/244 242/242/242 241/241/241
f 242/242/242 244/244/244 243/243/243
f 247/247/247 246/246/246 245/245/245
f 248/248/248 245/245/245 246/246/246
f 245/245/245 248/248/248 249/249/249
f 246/246/246 247/247/247 250/250/250
f 251/251/251 250/250/250 247/247/247
f 252/252/252 249/249/249 248/248/248
f 249/249/249 252/252/252 253/253/253
f 250/250/250 251/251/251 254/254/254
f 255/255/255 254/254/254 251/251/251
f 256/256/256 253/253/253 252/252/252
f 253/253/253 256/256/256 257/257/257
f 254/254/254 255/255/255 258/258/258
f 259/259/259 258/258/258 255/255/255
f 257/257/257 260/260/260 259/259/259
f 260/260/260 257/257/257 256/256/256
f 258/258/258 259/259/259 260/260/260
f 246/246/246 261/261/261 248/248/248
f 250/250/250 262/262/262 246/246/246
f 261/261/261 246/246/246 262/262/262
f 263/263/263 248/248/248 261/261/261
f 248/248/248 263/263/263 252/252/252
f 261/261/261 262/262/262 263/263/263
f 254/254/254 264/264/264 250/250/250
f 262/262/262 250/250/250 264/264/264
f 264/264/264 254/254/254 265/265/265
f 258/258/258 265/265/265 254/254/254
f 264/264/264 265/265/265 262/262/262
f 252/252/252 266/266/266 256/256/256
f 266/266/266 252/252/252 263/263/263
f 262/262/262 267/267/267 263/263/263
f 267/267/267 266/266/266 263/263/263
f 267/267/267 256/256/256 266/266/266
f 256/256/256 267/267/267 260/260/260
f 265/265/265 267/267/267 262/262/262
f 260/260/260 268/268/268 258/258/258
f 268/268/268 260/260/260 267/267/267
f 268/268/268 267/267/267 265/265/265
f 265/265/265 258/258/258 268/268/268
f 271/271/271 270/270/270 269/269/269
f 272/272/272 269/269/269 270/270/270
f 269/269/269 273/273/273 271/271/271
f 270/270/270 274/274/274 272/272/272
f 275/275/275 272/272/272 274/274/274
f 276/276/276 271/271/271 273/273/273
f 273/273/273 277/277/277 276/276/276
f 274/274/274 278/278/278 275/275/275
f 279/279/279 275/275/275 278/278/278
f 280/280/280 276/276/276 277/277/277
f 277/277/277 281/281/281 280/280/280
f 278/278/278 282/282/282 279/279/279
f 283/283/283 279/279/279 282/282/282
f 281/281/281 283/283/283 284/284/284
f 284/284/284 280/280/280 281/281/281
f 282/282/282 284/284/284 283/283/283
f 270/270/270 271/271/271 285/285/285
f 274/274/274 270/270/270 286/286/286
f 285/285/285 286/286/286 270/270/270
f 287/287/287 285/285/285 271/271/271
f 271/271/271 276/276/276 287/287/287
f 285/285/285 287/287/287 286/286/286
f 278/278/278 274/274/274 288/288/288
f 286/286/286 288/288/288 274/274/274
f 288/288/288 289/289/289 278/278/278
f 282/282/282 278/278/278 289/289/289
f 288/288/288 286/286/286 289/289/289
f 276/276/276 280/280/280 290/290/290
f 290/290/290 287/287/287 276/276/276
f 286/286/286 287/287/287 291/291/291
f 287/287/287 290/290/290 291/291/291
f 291/291/291 290/290/290 280/280/280
f 280/280/280 284/284/284 291/291/291
f 289/289/289 286/286/286 291/291/291
f 289/289/289 292/292/292 282/282/282
f 284/284/284 282/282/282 292/292/292
f 292/292/292 289/289/289 291/291/291
f 292/292/292 291/291/291 284/284/284
f 295/295/295 294/294/294 293/293/293
f 293/293/293 296/296/296 295/295/295
f 295/295/295 297/297/297 294/294/294
f 297/297/297 295/295/295 296/296/296
f 293/293/293 294/294/294 298/298/298
f 296/296/296 293/293/293 299/299/299
f 300/300/300 293/293/293 298/298/298
f 300/300/300 299/299/299 293/293/293
f 298/298/298 301/301/301 300/300/300
f 299/299/299 300/300/300 301/301/301
f 299/299/299 302/302/302 296/296/296
f 296/296/296 303/303/303 297/297/297
f 303/303/303 296/296/296 302/302/302
f 301/301/301 304/304/304 299/299/299
f 302/302/302 299/299/299 304/304/304
f 305/305/305 294/294/294 297/297/297
f 306/306/306 297/297/297 303/303/303
f 297/297/297 306/306/306 305/305/305
f 302/302/302 307/307/307 303/303/303
f 308/308/308 303/303/303 307/307/307
f 303/303/303 308/308/308 306/306/306
f 307/307/307 302/302/302 309/309/309
f 304/304/304 309/309/309 302/302/302
f 307/307/307 309/309/309 308/308/308
f 304/304/304 301/301/301 310/310/310
f 309/309/309 304/304/304 311/311/311
f 310/310/310 311/311/311 304/304/304
f 311/311/311 312/312/312 309/309/309
f 309/309/309 312/312/312 308/308/308
f 311/311/311 310/310/310 312/312/312
f 313/313/313 310/310/310 301/301/301
f 301/301/301 298/298/298 313/313/313
f 314/314/314 312/312/312 310/310/310
f 310/310/310 313/313/313 314/314/314
f 315/315/315 306/306/306 308/308/308
f 308/308/308 312/312/312 316/316/316
f 315/315/315 308/308/308 316/316/316
f 306/306/306 315/315/315 317/317/317
f 316/316/316 317/317/317 315/315/315
f 317/317/317 305/305/305 306/306/306
f 312/312/312 318/318/318 316/316/316
f 312/312/312 314/314/314 318/318/318
f 318/318/318 319/319/319 316/316/316
f 317/317/317 316/316/316 319/319/319
f 319/319/319 318/318/318 314/314/314
f 320/320/320 314/314/314 313/313/313
f 314/314/314 320/320/320 319/319/319
f 319/319/319 321/321/321 317/317/317
f 305/305/305 317/317/317 321/321/321
f 321/321/321 319/319/319 320/320/320
f 322/322/322 313/313/313 298/298/298
f 313/313/313 322/322/322 320/320/320
f 322/322/322 298/298/298 323/323/323
f 323/323/323 320/320/320 322/322/322
f 320/320/320 323/323/323 321/321/321
f 298/298/298 294/294/294 323/323/323
f 321/321/321 324/324/324 305/305/305
f 324/324/324 321/321/321 323/323/323
f 294/294/294 324/324/324 323/323/323
f 294/294/294 305/305/305 324/324/324
f 327/327/327 326/326/326 325/325/325
f 325/325/325 326/326/326 328/328/328
f 326/326/326 327/327/327 329/329/329
f 329/329/329 328/328/328 326/326/326
f 330/330/330 327/327/327 325/325/325
f 331/331/331 329/329/329 327/327/327
f 332/332/332 327/327/327 330/330/330
f 327/327/327 332/332/332 331/331/331
f 332/332/332 330/330/330 333/333/333
f 333/333/333 331/331/331 332/332/332
f 329/329/329 331/331/331 334/334/334
f 328/328/328 329/329/329 335/335/335
f 334/334/334 335/335/335 329/329/329
f 331/331/331 333/333/333 336/336/336
f 336/336/336 334/334/334 331/331/331
f 328/328/328 337/337/337 325/325/325
f 335/335/335 338/338/338 328/328/328
f 337/337/337 328/328/328 338/338/338
f 335/335/335 334/334/334 339/339/339
f 334/334/334 336/336/336 340/340/340
f 340/340/340 339/339/339 334/334/334
f 341/341/341 340/340/340 336/336/336
f 339/339/339 340/340/340 341/341/341
f 342/342/342 336/336/336 333/333/333
f 336/336/336 342/342/342 341/341/341
f 339/339/339 343/343/343 335/335/335
f 338/338/338 335/335/335 343/343/343
f 343/343/343 339/339/339 344/344/344
f 343/343/343 344/344/344 338/338/338
f 344/344/344 339/339/339 341/341/341
f 338/338/338 345/345/345 337/337/337
f 345/345/345 338/338/338 344/344/344
f 333/333/333 346/346/346 342/342/342
f 346/346/346 333/333/333 330/330/330
f 347/347/347 344/344/344 341/341/341
f 348/348/348 341/341/341 342/342/342
f 348/348/348 347/347/347 341/341/341
f 342/342/342 349/349/349 348/348/348
f 349/349/349 342/342/342 346/346/346
f 347/347/347 348/348/348 349/349/349
f 350/350/350 344/344/344 347/347/347
f 344/344/344 350/350/350 345/345/345
f 350/350/350 347/347/347 351/351/351
f 349/349/349 351/351/351 347/347/347
f 351/351/351 345/345/345 350/350/350
f 352/352/352 337/337/337 345/345/345
f 345/345/345 351/351/351 352/352/352
f 351/351/351 349/349/349 353/353/353
f 346/346/346 353/353/353 349/349/349
f 353/353/353 352/352/352 351/351/351
f 330/330/330 354/354/354 346/346/346
f 353/353/353 346/346/346 354/354/354
f 354/354/354 330/330/330 355/355/355
f 354/354/354 355/355/355 353/353/353
f 352/352/352 353/353/353 355/355/355
f 355/355/355 330/330/330 325/325/325
f 356/356/356 325/325/325 337/337/337
f 337/337/337 352/352/352 356/356/356
f 356/356/356 355/355/355 325/325/325
f 355/355/355 356/356/356 352/352/352
f 359/359/359 358/358/358 357/357/357
f 357/357/357 360/360/360 359/359/359
f 359/359/359 361/361/361 358/358/358
f 361/361/361 359/359/359 360/360/360
f 362/362/362 358/358/358 361/361/361
f 361/361/361 360/360/360 362/362/362
f 357/357/357 358/358/358 363/363/363
f 358/358/358 362/362/362 364/364/364
f 358/358/358 364/364/364 365/365/365
f 363/363/363 358/358/358 365/365/365
f 366/366/366 364/364/364 362/362/362
f 364/364/364 366/366/366 365/365/365
f 367/367/367 366/366/366 362/362/362
f 367/367/367 365/365/365 366/366/366
f 360/360/360 367/367/367 362/362/362
f 368/368/368 363/363/363 365/365/365
f 365/365/365 367/367/367 368/368/368
f 369/369/369 368/368/368 367/367/367
f 368/368/368 369/369/369 363/363/363
f 369/369/369 367/367/367 370/370/370
f 370/370/370 367/367/367 360/360/360
f 370/370/370 363/363/363 369/369/369
f 371/371/371 357/357/357 363/363/363
f 363/363/363 370/370/370 371/371/371
f 360/360/360 357/357/357 372/372/372
f 371/371/371 372/372/372 357/357/357
f 372/372/372 371/371/371 370/370/370
f 372/372/372 370/370/370 360/360/360
f 375/375/375 374/374/374 373/373/373
f 376/376/376 373/373/373 374/374/374
f 375/375/375 373/373/373 377/377/377
f 374/374/374 375/375/375 378/378/378
f 377/377/377 379/379/379 375/375/375
f 379/379/379 378/378/378 375/375/375
f 376/376/376 374/374/374 380/380/380
f 381/381/381 374/374/374 378/378/378
f 381/381/381 380/380/380 374/374/374
f 373/373/373 376/376/376 382/382/382
f 383/383/383 377/377/377 373/373/373
f 382/382/382 383/383/383 373/373/373
f 384/384/384 376/376/376 380/380/380
f 384/384/384 382/382/382 376/376/376
f 379/379/379 385/385/385 378/378/378
f 378/378/378 386/386/386 381/381/381
f 386/386/386 378/378/378 385/385/385
f 377/377/377 387/387/387 379/379/379
f 385/385/385 379/379/379 387/387/387
f 383/383/383 388/388/388 377/377/377
f 387/387/387 377/377/377 388/388/388
f 381/381/381 389/389/389 380/380/380
f 389/389/389 381/381/381 386/386/386
f 382/382/382 390/390/390 383/383/383
f 388/388/388 383/383/383 390/390/390
f 384/384/384 391/391/391 382/382/382
f 390/390/390 382/382/382 391/391/391
f 380/380/380 392/392/392 384/384/384
f 392/392/392 380/380/380 389/389/389
f 391/391/391 384/384/384 392/392/392
f 393/393/393 385/385/385 387/387/387
f 387/387/387 388/388/388 393/393/393
f 386/386/386 385/385/385 394/394/394
f 394/394/394 389/389/389 386/386/386
f 393/393/393 394/394/394 385/385/385
f 395/395/395 388/388/388 390/390/390
f 395/395/395 393/393/393 388/388/388
f 390/390/390 391/391/391 395/395/395
f 393/393/393 395/395/395 394/394/394
f 396/396/396 391/391/391 392/392/392
f 392/392/392 389/389/389 396/396/396
f 394/394/394 396/396/396 389/389/389
f 396/396/396 394/394/394 395/395/395
f 396/396/396 395/395/395 391/391/391
