g 01_baricade_cover
v 0.5509433 -0.2149282 0.1252522
v 0.5509434 -0.2149282 2.957682E-08
v 0.3898492 -0.2149281 2.957682E-08
v 0.3644089 -0.2149281 0.02860605
v -0.5509434 -0.214928 0.1252522
v 0.2521179 -0.2149281 0.02860605
v 0.5509433 -0.1483502 0.2836323
v -0.5509434 -0.1483501 0.2836323
v -0.5509433 -0.1060185 0.5562077
v 0.5509433 -0.1060186 0.5562077
v -0.2521179 -0.214928 0.02860605
v -0.2266777 -0.214928 -4.285066E-09
v 0.2266776 -0.2149281 -4.285066E-09
v -0.364409 -0.214928 0.02860605
v -0.3898493 -0.214928 2.957682E-08
v -0.5509434 -0.214928 3.386191E-08
v 0.5509434 -0.2149282 2.957682E-08
v 0.3898492 -1.430511E-08 3.386191E-08
v 0.3898492 -0.2149281 2.957682E-08
v 0.5509434 -9.775162E-07 3.171936E-08
v -0.5509433 -0.02773465 0.6826338
v 0.5509433 -0.1060186 0.5562077
v -0.5509433 -0.1060185 0.5562077
v 0.5509433 -0.02773477 0.6826338
v 0.2521179 -0.2149281 0.02860605
v 0.3644089 -1.430511E-08 0.02860605
v 0.2521179 -1.430511E-08 0.02860605
v 0.3644089 -0.2149281 0.02860605
v 0.2266776 -0.2149281 -4.285066E-09
v 0.2521179 -1.430511E-08 0.02860605
v 0.2266776 -1.430511E-08 -2.142533E-09
v 0.2521179 -0.2149281 0.02860605
v 0.3644089 -0.2149281 0.02860605
v 0.3898492 -1.430511E-08 3.386191E-08
v 0.3644089 -1.430511E-08 0.02860605
v 0.3898492 -0.2149281 2.957682E-08
v -0.2266777 -0.214928 -4.285066E-09
v 0.2266776 -1.430511E-08 -2.142533E-09
v -0.2266776 -1.430511E-08 -2.142533E-09
v 0.2266776 -0.2149281 -4.285066E-09
v -0.5509434 -0.214928 3.386191E-08
v -0.3898492 -1.430511E-08 3.386191E-08
v -0.5509434 -9.775162E-07 3.600444E-08
v -0.3898493 -0.214928 2.957682E-08
v -0.2521179 -0.214928 0.02860605
v -0.3644089 -1.430511E-08 0.02860605
v -0.364409 -0.214928 0.02860605
v -0.2521179 -1.430511E-08 0.02860605
v -0.2266777 -0.214928 -4.285066E-09
v -0.2521179 -1.430511E-08 0.02860605
v -0.2521179 -0.214928 0.02860605
v -0.2266776 -1.430511E-08 -2.142533E-09
v -0.364409 -0.214928 0.02860605
v -0.3898492 -1.430511E-08 3.386191E-08
v -0.3898493 -0.214928 2.957682E-08
v -0.3644089 -1.430511E-08 0.02860605
v 0.5509433 0.2149262 0.1252522
v 0.3898492 0.2149281 3.814697E-08
v 0.5509434 0.2149262 3.386191E-08
v 0.3644089 0.2149281 0.02860605
v -0.5509434 0.2149261 0.1252522
v 0.2521179 0.214928 0.02860605
v -0.2521179 0.214928 0.02860605
v -0.2266777 0.214928 0
v 0.2266776 0.214928 0
v -0.364409 0.214928 0.02860605
v -0.3898493 0.214928 3.814697E-08
v -0.5509434 0.2149261 3.814697E-08
v 0.5509434 0.2149262 3.386191E-08
v 0.3898492 -1.430511E-08 3.386191E-08
v 0.5509434 -9.775162E-07 3.171936E-08
v 0.3898492 0.2149281 3.814697E-08
v -0.5509433 0.02773218 0.6826338
v 0.5509433 0.1060167 0.5562077
v 0.5509433 0.02773218 0.6826338
v -0.5509433 0.1060166 0.5562077
v -0.5509433 0.1060166 0.5562077
v 0.5509433 0.1483483 0.2836323
v 0.5509433 0.1060167 0.5562077
v -0.5509434 0.1483482 0.2836323
v -0.5509434 0.2149261 0.1252522
v 0.5509433 0.2149262 0.1252522
v 0.2521179 0.214928 0.02860605
v 0.3644089 -1.430511E-08 0.02860605
v 0.3644089 0.2149281 0.02860605
v 0.2521179 -1.430511E-08 0.02860605
v 0.2266776 0.214928 0
v 0.2521179 -1.430511E-08 0.02860605
v 0.2521179 0.214928 0.02860605
v 0.2266776 -1.430511E-08 -2.142533E-09
v 0.3644089 0.2149281 0.02860605
v 0.3898492 -1.430511E-08 3.386191E-08
v 0.3898492 0.2149281 3.814697E-08
v 0.3644089 -1.430511E-08 0.02860605
v -0.2266777 0.214928 0
v 0.2266776 -1.430511E-08 -2.142533E-09
v 0.2266776 0.214928 0
v -0.2266776 -1.430511E-08 -2.142533E-09
v -0.5509434 0.2149261 3.814697E-08
v -0.3898492 -1.430511E-08 3.386191E-08
v -0.3898493 0.214928 3.814697E-08
v -0.5509434 -9.775162E-07 3.600444E-08
v -0.2521179 0.214928 0.02860605
v -0.3644089 -1.430511E-08 0.02860605
v -0.2521179 -1.430511E-08 0.02860605
v -0.364409 0.214928 0.02860605
v -0.2266777 0.214928 0
v -0.2521179 -1.430511E-08 0.02860605
v -0.2266776 -1.430511E-08 -2.142533E-09
v -0.2521179 0.214928 0.02860605
v -0.364409 0.214928 0.02860605
v -0.3898492 -1.430511E-08 3.386191E-08
v -0.3644089 -1.430511E-08 0.02860605
v -0.3898493 0.214928 3.814697E-08
v 0.2805643 -0.1930214 0.1729992
v 0.3359628 -0.142773 0.5104421
v 0.3359628 -0.1930214 0.1729992
v 0.2805643 -0.142773 0.5104421
v 0.3359628 -0.1483502 0.2836323
v 0.3359628 -0.142773 0.5104421
v 0.3359628 -0.1074743 0.5104421
v 0.3359628 -0.1930214 0.1729992
v 0.3359628 -0.1074743 0.5104421
v 0.2805643 -0.142773 0.5104421
v 0.2805643 -0.1074743 0.5104421
v 0.3359628 -0.142773 0.5104421
v 0.2805643 -0.1074743 0.5104421
v 0.2805643 -0.1930214 0.1729992
v 0.2805643 -0.1483501 0.2836323
v 0.2805643 -0.142773 0.5104421
v -0.2805643 -0.1930214 0.1729992
v -0.3359628 -0.142773 0.5104421
v -0.2805643 -0.142773 0.5104421
v -0.3359628 -0.1930214 0.1729992
v -0.3359628 -0.1483502 0.2836323
v -0.3359628 -0.142773 0.5104421
v -0.3359628 -0.1930214 0.1729992
v -0.3359628 -0.1074743 0.5104421
v -0.3359628 -0.1074743 0.5104421
v -0.2805643 -0.142773 0.5104421
v -0.3359628 -0.142773 0.5104421
v -0.2805643 -0.1074743 0.5104421
v -0.2805643 -0.1074743 0.5104421
v -0.2805643 -0.1930214 0.1729992
v -0.2805643 -0.142773 0.5104421
v -0.2805643 -0.1483501 0.2836323
v 0.2805643 0.1930177 0.1729992
v 0.3359628 0.1427693 0.5104421
v 0.2805643 0.1427693 0.5104421
v 0.3359628 0.1930177 0.1729992
v 0.3359628 0.1483465 0.2836323
v 0.3359628 0.1427693 0.5104421
v 0.3359628 0.1930177 0.1729992
v 0.3359628 0.1074707 0.5104421
v 0.3359628 0.1074707 0.5104421
v 0.2805643 0.1427693 0.5104421
v 0.3359628 0.1427693 0.5104421
v 0.2805643 0.1074706 0.5104421
v 0.2805643 0.1074706 0.5104421
v 0.2805643 0.1930177 0.1729992
v 0.2805643 0.1427693 0.5104421
v 0.2805643 0.1483465 0.2836323
v -0.2805643 0.1930177 0.1729992
v -0.3359628 0.1427693 0.5104421
v -0.3359628 0.1930177 0.1729992
v -0.2805643 0.1427693 0.5104421
v -0.3359628 0.1483465 0.2836323
v -0.3359628 0.1427693 0.5104421
v -0.3359628 0.1074707 0.5104421
v -0.3359628 0.1930177 0.1729992
v -0.3359628 0.1074707 0.5104421
v -0.2805643 0.1427693 0.5104421
v -0.2805643 0.1074706 0.5104421
v -0.3359628 0.1427693 0.5104421
v -0.2805643 0.1074706 0.5104421
v -0.2805643 0.1930177 0.1729992
v -0.2805643 0.1483465 0.2836323
v -0.2805643 0.1427693 0.5104421
v 0.5509433 0.02773218 0.6826338
v -0.5509433 -0.02773465 0.6826338
v -0.5509433 0.02773218 0.6826338
v 0.5509433 -0.02773477 0.6826338
v 0.5509434 -0.2149282 2.957682E-08
v 0.5509433 -0.2149282 0.1252522
v 0.5509434 -9.775162E-07 3.171936E-08
v 0.5509433 0.2149262 0.1252522
v 0.5509434 0.2149262 3.386191E-08
v 0.5509433 0.1483483 0.2836323
v 0.5509433 -0.1483502 0.2836323
v 0.5509433 0.1060167 0.5562077
v 0.5509433 -0.1060186 0.5562077
v 0.5509433 -0.02773477 0.6826338
v 0.5509433 0.02773218 0.6826338
v 0.548501 0.03212651 0.005630078
v 0.548501 -0.03213057 0.6705919
v 0.548501 -0.03213057 0.005630078
v 0.548501 0.03212651 0.6705919
v 0.5739972 0.0321265 0.005630112
v 0.5739972 -0.03213058 0.6705919
v 0.5739972 0.0321265 0.6705919
v 0.5739972 -0.03213058 0.005630112
v 0.548501 0.03212651 0.005630078
v 0.5739972 -0.03213058 0.005630112
v 0.5739972 0.0321265 0.005630112
v 0.548501 -0.03213057 0.005630078
v 0.548501 -0.03213057 0.005630078
v 0.5739972 -0.03213058 0.6705919
v 0.5739972 -0.03213058 0.005630112
v 0.548501 -0.03213057 0.6705919
v 0.548501 -0.03213057 0.6705919
v 0.5739972 0.0321265 0.6705919
v 0.5739972 -0.03213058 0.6705919
v 0.548501 0.03212651 0.6705919
v 0.548501 0.03212651 0.6705919
v 0.5739972 0.0321265 0.005630112
v 0.5739972 0.0321265 0.6705919
v 0.548501 0.03212651 0.005630078
v -0.5509434 -0.214928 3.386191E-08
v -0.5509434 -9.775162E-07 3.600444E-08
v -0.5509434 -0.214928 0.1252522
v -0.5509434 0.2149261 0.1252522
v -0.5509434 0.2149261 3.814697E-08
v -0.5509434 0.1483482 0.2836323
v -0.5509434 -0.1483501 0.2836323
v -0.5509433 0.1060166 0.5562077
v -0.5509433 -0.1060185 0.5562077
v -0.5509433 -0.02773465 0.6826338
v -0.5509433 0.02773218 0.6826338
v -0.548501 0.03212651 0.005630074
v -0.548501 -0.03213057 0.6705919
v -0.548501 0.03212651 0.6705919
v -0.548501 -0.03213057 0.005630074
v -0.5739972 0.0321265 0.005630112
v -0.5739972 -0.03213058 0.6705919
v -0.5739972 -0.03213058 0.005630112
v -0.5739972 0.0321265 0.6705919
v -0.548501 0.03212651 0.005630074
v -0.5739972 -0.03213058 0.005630112
v -0.548501 -0.03213057 0.005630074
v -0.5739972 0.0321265 0.005630112
v -0.548501 -0.03213057 0.005630074
v -0.5739972 -0.03213058 0.6705919
v -0.548501 -0.03213057 0.6705919
v -0.5739972 -0.03213058 0.005630112
v -0.548501 -0.03213057 0.6705919
v -0.5739972 0.0321265 0.6705919
v -0.548501 0.03212651 0.6705919
v -0.5739972 -0.03213058 0.6705919
v -0.548501 0.03212651 0.6705919
v -0.5739972 0.0321265 0.005630112
v -0.548501 0.03212651 0.005630074
v -0.5739972 0.0321265 0.6705919
vt 0.6661608 0.4700326
vt 0.666161 0.3977184
vt 0.5734493 0.3977183
vt 0.5588082 0.414234
vt 0.03201291 0.4700325
vt 0.4941837 0.4142339
vt 0.6661608 0.561473
vt 0.03201291 0.5614729
vt 0.03201303 0.7188439
vt 0.6661608 0.7188441
vt 0.2039901 0.4142337
vt 0.2186313 0.3977182
vt 0.4795423 0.3977183
vt 0.1393657 0.4142337
vt 0.1247244 0.3977182
vt 0.03201291 0.3977182
vt 0.6253811 0.1304276
vt 0.5373739 0.01585862
vt 0.5373739 0.1304276
vt 0.6253811 0.01585862
vt 0.03201303 0.7918358
vt 0.6661608 0.7188441
vt 0.03201303 0.7188439
vt 0.6661608 0.791836
vt 0.4604005 0.1304278
vt 0.5217461 0.01585862
vt 0.4604005 0.01585862
vt 0.5217463 0.1304276
vt 0.4447728 0.1304278
vt 0.4604005 0.01585862
vt 0.4447728 0.01585862
vt 0.4604005 0.1304278
vt 0.5217463 0.1304276
vt 0.5373739 0.01585862
vt 0.5217461 0.01585862
vt 0.5373739 0.1304276
vt 0.1971003 0.1304278
vt 0.4447728 0.01585862
vt 0.1971003 0.01585862
vt 0.4447728 0.1304278
vt 0.01649206 0.1304278
vt 0.1044992 0.01585862
vt 0.01649206 0.01585862
vt 0.1044992 0.1304278
vt 0.1814726 0.1304276
vt 0.1201269 0.01585862
vt 0.1201269 0.1304276
vt 0.1814726 0.01585862
vt 0.1971003 0.1304278
vt 0.1814726 0.01585862
vt 0.1814726 0.1304276
vt 0.1971003 0.01585862
vt 0.1201269 0.1304276
vt 0.1044992 0.01585862
vt 0.1044992 0.1304278
vt 0.1201269 0.01585862
vt 0.6661608 0.4700326
vt 0.5734493 0.3977183
vt 0.666161 0.3977184
vt 0.5588082 0.414234
vt 0.03201291 0.4700325
vt 0.4941837 0.4142339
vt 0.2039901 0.4142337
vt 0.2186313 0.3977182
vt 0.4795423 0.3977183
vt 0.1393657 0.4142337
vt 0.1247244 0.3977182
vt 0.03201291 0.3977182
vt 0.6253811 0.1304276
vt 0.5373739 0.01585862
vt 0.6253811 0.01585862
vt 0.5373739 0.1304276
vt 0.03201303 0.7918358
vt 0.6661608 0.7188441
vt 0.6661608 0.791836
vt 0.03201303 0.7188439
vt 0.03201303 0.7188439
vt 0.6661608 0.561473
vt 0.6661608 0.7188441
vt 0.03201291 0.5614729
vt 0.03201291 0.4700325
vt 0.6661608 0.4700326
vt 0.4604005 0.1304278
vt 0.5217461 0.01585862
vt 0.5217463 0.1304276
vt 0.4604005 0.01585862
vt 0.4447728 0.1304278
vt 0.4604005 0.01585862
vt 0.4604005 0.1304278
vt 0.4447728 0.01585862
vt 0.5217463 0.1304276
vt 0.5373739 0.01585862
vt 0.5373739 0.1304276
vt 0.5217461 0.01585862
vt 0.1971003 0.1304278
vt 0.4447728 0.01585862
vt 0.4447728 0.1304278
vt 0.1971003 0.01585862
vt 0.01649206 0.1304278
vt 0.1044992 0.01585862
vt 0.1044992 0.1304278
vt 0.01649206 0.01585862
vt 0.1814726 0.1304276
vt 0.1201269 0.01585862
vt 0.1814726 0.01585862
vt 0.1201269 0.1304276
vt 0.1971003 0.1304278
vt 0.1814726 0.01585862
vt 0.1971003 0.01585862
vt 0.1814726 0.1304276
vt 0.1201269 0.1304276
vt 0.1044992 0.01585862
vt 0.1201269 0.01585862
vt 0.1044992 0.1304278
vt 0.1910916 0.9017478
vt 0.04324528 0.9258325
vt 0.1910917 0.9258325
vt 0.04324509 0.9017478
vt 0.1408194 0.937957
vt 0.04324528 0.9258325
vt 0.04099208 0.9410107
vt 0.1910917 0.9258325
vt 0.02794855 0.9258325
vt 0.04324509 0.9017478
vt 0.02794855 0.9017478
vt 0.04324528 0.9258325
vt 0.04099227 0.8865695
vt 0.1910916 0.9017478
vt 0.1408194 0.8896231
vt 0.04324509 0.9017478
vt 0.1910916 0.9017478
vt 0.04324528 0.9258325
vt 0.04324509 0.9017478
vt 0.1910917 0.9258325
vt 0.1408194 0.937957
vt 0.04324528 0.9258325
vt 0.1910917 0.9258325
vt 0.04099208 0.9410107
vt 0.02794855 0.9258325
vt 0.04324509 0.9017478
vt 0.04324528 0.9258325
vt 0.02794855 0.9017478
vt 0.04099227 0.8865695
vt 0.1910916 0.9017478
vt 0.04324509 0.9017478
vt 0.1408194 0.8896231
vt 0.1910916 0.9017478
vt 0.04324528 0.9258325
vt 0.04324509 0.9017478
vt 0.1910917 0.9258325
vt 0.1408194 0.937957
vt 0.04324528 0.9258325
vt 0.1910917 0.9258325
vt 0.04099208 0.9410107
vt 0.02794855 0.9258325
vt 0.04324509 0.9017478
vt 0.04324528 0.9258325
vt 0.02794855 0.9017478
vt 0.04099227 0.8865695
vt 0.1910916 0.9017478
vt 0.04324509 0.9017478
vt 0.1408194 0.8896231
vt 0.1910916 0.9017478
vt 0.04324528 0.9258325
vt 0.1910917 0.9258325
vt 0.04324509 0.9017478
vt 0.1408194 0.937957
vt 0.04324528 0.9258325
vt 0.04099208 0.9410107
vt 0.1910917 0.9258325
vt 0.02794855 0.9258325
vt 0.04324509 0.9017478
vt 0.02794855 0.9017478
vt 0.04324528 0.9258325
vt 0.04099227 0.8865695
vt 0.1910916 0.9017478
vt 0.1408194 0.8896231
vt 0.04324509 0.9017478
vt 0.6661609 0.8238592
vt 0.03201303 0.7918358
vt 0.03201303 0.8238592
vt 0.6661608 0.791836
vt 0.666161 0.3977184
vt 0.6661608 0.4700326
vt 0.7898532 0.3977184
vt 0.913546 0.4700326
vt 0.913546 0.3977184
vt 0.8752293 0.5614733
vt 0.7044774 0.5614733
vt 0.8508671 0.7188446
vt 0.7288396 0.7188446
vt 0.7738928 0.7918364
vt 0.8058138 0.7918364
vt 0.5932555 0.9204291
vt 0.2935601 0.9494818
vt 0.5932555 0.9494818
vt 0.2935601 0.9204291
vt 0.5932555 0.9089016
vt 0.2935601 0.8798487
vt 0.2935601 0.9089016
vt 0.5932552 0.8798487
vt 0.6047464 0.9089016
vt 0.5932552 0.8798487
vt 0.5932555 0.9089016
vt 0.6047459 0.8798487
vt 0.5932552 0.868321
vt 0.2935601 0.8798487
vt 0.5932552 0.8798487
vt 0.2935601 0.8683207
vt 0.2820691 0.8798487
vt 0.2935601 0.9089016
vt 0.2935601 0.8798487
vt 0.2820691 0.9089016
vt 0.2935601 0.9204291
vt 0.5932555 0.9089016
vt 0.2935601 0.9089016
vt 0.5932555 0.9204291
vt 0.666161 0.3977184
vt 0.7898532 0.3977184
vt 0.6661608 0.4700326
vt 0.913546 0.4700326
vt 0.913546 0.3977184
vt 0.8752293 0.5614733
vt 0.7044774 0.5614733
vt 0.8508671 0.7188446
vt 0.7288396 0.7188446
vt 0.7738928 0.7918364
vt 0.8058138 0.7918364
vt 0.5932555 0.9204291
vt 0.2935601 0.9494818
vt 0.2935601 0.9204291
vt 0.5932555 0.9494818
vt 0.5932555 0.9089016
vt 0.2935601 0.8798487
vt 0.5932552 0.8798487
vt 0.2935601 0.9089016
vt 0.6047464 0.9089016
vt 0.5932552 0.8798487
vt 0.6047459 0.8798487
vt 0.5932555 0.9089016
vt 0.5932552 0.868321
vt 0.2935601 0.8798487
vt 0.2935601 0.8683207
vt 0.5932552 0.8798487
vt 0.2820691 0.8798487
vt 0.2935601 0.9089016
vt 0.2820691 0.9089016
vt 0.2935601 0.8798487
vt 0.2935601 0.9204291
vt 0.5932555 0.9089016
vt 0.5932555 0.9204291
vt 0.2935601 0.9089016
vn -1.30698E-07 -0.9802706 0.1976601
vn -2.367992E-07 -1 0
vn -1.678395E-07 -1 0
vn -1.064758E-07 -1 -2.142708E-07
vn 0 -0.9802706 0.1976604
vn -1.687135E-07 -1 -7.693448E-07
vn 0 -0.9621515 0.2725152
vn 0 -0.9621515 0.2725152
vn 0 -0.9881544 0.1534628
vn 0 -0.9881544 0.1534628
vn -1.527621E-07 -1 -7.128954E-07
vn -1.517471E-07 -1 -1.271791E-07
vn -1.682873E-07 -1 1.496638E-07
vn 0 -1 -6.767244E-07
vn 2.517594E-07 -1 -1.330397E-07
vn 3.551989E-07 -1 0
vn 0 0 -1
vn 0 0 -1
vn 0 0 -1
vn 0 0 -1
vn 0 -0.8502048 0.5264521
vn 0 -0.8502049 0.526452
vn 0 -0.8502048 0.5264522
vn 0 -0.8502049 0.5264519
vn 0 0 -1
vn 0 0 -1
vn 0 0 -1
vn 0 0 -1
vn 0.7472438 0 -0.6645499
vn 0.7472437 0 -0.6645501
vn 0.7472437 0 -0.6645501
vn 0.7472438 0 -0.6645501
vn -0.7472434 0 -0.6645504
vn -0.7472433 0 -0.6645505
vn -0.7472433 0 -0.6645505
vn -0.7472435 0 -0.6645505
vn 0 0 -1
vn 0 0 -1
vn 0 0 -1
vn 0 0 -1
vn 0 0 -1
vn 0 0 -1
vn 0 0 -1
vn 0 0 -1
vn 0 0 -1
vn 0 0 -1
vn 0 0 -1
vn 0 0 -1
vn -0.7472456 0 -0.664548
vn -0.747244 0 -0.6645498
vn -0.7472458 0 -0.6645478
vn -0.7472437 0 -0.6645501
vn 0.7472444 -2.543173E-07 -0.6645494
vn 0.7472443 0 -0.6645494
vn 0.7472444 -2.520034E-07 -0.6645494
vn 0.7472443 0 -0.6645494
vn 3.820627E-06 0.9802699 0.1976634
vn 8.308052E-06 1 4.390321E-06
vn 1.172156E-05 1 0
vn 2.238492E-06 1 1.51925E-05
vn -3.898663E-06 0.98027 0.197663
vn -1.687134E-07 1 1.494275E-05
vn -1.527621E-07 1 1.499919E-05
vn -1.517471E-07 1 -1.271791E-07
vn -1.682873E-07 1 1.496638E-07
vn -2.388837E-06 1 1.473003E-05
vn -8.224139E-06 1 4.345961E-06
vn -1.160316E-05 1 0
vn 0 0 -1
vn 0 0 -1
vn 0 0 -1
vn 0 0 -1
vn 0 0.8502032 0.5264547
vn 0 0.850203 0.526455
vn 0 0.850203 0.526455
vn 0 0.8502032 0.5264547
vn 0 0.9881544 0.1534627
vn 0 0.9621515 0.2725152
vn 0 0.9881544 0.1534628
vn 0 0.9621515 0.2725152
vn -3.898663E-06 0.98027 0.197663
vn 3.820627E-06 0.9802699 0.1976634
vn 0 0 -1
vn 0 0 -1
vn 0 0 -1
vn 0 0 -1
vn 0.7472437 0 -0.6645501
vn 0.7472437 0 -0.6645501
vn 0.7472437 0 -0.6645501
vn 0.7472437 0 -0.6645501
vn -0.7472432 0 -0.6645506
vn -0.7472433 0 -0.6645505
vn -0.7472433 0 -0.6645506
vn -0.7472433 0 -0.6645505
vn 0 0 -1
vn 0 0 -1
vn 0 0 -1
vn 0 0 -1
vn 0 0 -1
vn 0 0 -1
vn 0 0 -1
vn 0 0 -1
vn 0 0 -1
vn 0 0 -1
vn 0 0 -1
vn 0 0 -1
vn -0.7472454 0 -0.6645482
vn -0.747244 0 -0.6645498
vn -0.7472437 0 -0.6645501
vn -0.7472457 0 -0.6645479
vn 0.7472442 2.770151E-07 -0.6645495
vn 0.7472443 0 -0.6645494
vn 0.7472443 0 -0.6645494
vn 0.7472442 2.785019E-07 -0.6645495
vn 0 -0.989094 0.1472854
vn 0 -0.989094 0.1472854
vn 0 -0.989094 0.1472854
vn 0 -0.989094 0.1472854
vn 1 0 0
vn 1 0 0
vn 1 0 0
vn 1 0 0
vn 0 0 1
vn 0 0 1
vn 0 0 1
vn 0 0 1
vn -1 0 0
vn -1 0 0
vn -1 0 0
vn -1 0 0
vn 0 -0.989094 0.1472854
vn 0 -0.989094 0.1472854
vn 0 -0.989094 0.1472854
vn 0 -0.989094 0.1472854
vn -1 0 0
vn -1 0 0
vn -1 0 0
vn -1 0 0
vn 0 0 1
vn 0 0 1
vn 0 0 1
vn 0 0 1
vn 1 0 0
vn 1 0 0
vn 1 0 0
vn 1 0 0
vn 0 0.989094 0.1472854
vn 0 0.989094 0.1472854
vn 0 0.989094 0.1472854
vn 0 0.989094 0.1472854
vn 1 0 0
vn 1 0 0
vn 1 0 0
vn 1 0 0
vn 0 0 1
vn 0 0 1
vn 0 0 1
vn 0 0 1
vn -1 0 0
vn -1 0 0
vn -1 0 0
vn -1 0 0
vn 0 0.989094 0.1472854
vn 0 0.989094 0.1472854
vn 0 0.989094 0.1472854
vn 0 0.989094 0.1472854
vn -1 0 0
vn -1 0 0
vn -1 0 0
vn -1 0 0
vn 0 0 1
vn 0 0 1
vn 0 0 1
vn 0 0 1
vn 1 0 0
vn 1 0 0
vn 1 0 0
vn 1 0 0
vn 0 0 1
vn 0 0 1
vn 0 0 1
vn 0 0 1
vn 1 0 1.218245E-06
vn 1 0 6.974701E-07
vn 1 0 1.218245E-06
vn 1 0 6.974701E-07
vn 1 0 1.218245E-06
vn 1 0 0
vn 1 0 0
vn 1 0 0
vn 1 0 0
vn 1 0 0
vn 1 0 0
vn -1 0 0
vn -1 0 0
vn -1 0 0
vn -1 0 0
vn 1 0 0
vn 1 0 0
vn 1 0 0
vn 1 0 0
vn 1.332537E-06 0 -1
vn 1.332537E-06 0 -1
vn 1.332537E-06 0 -1
vn 1.332537E-06 0 -1
vn -1.870227E-07 -1 0
vn -1.870227E-07 -1 0
vn -1.870227E-07 -1 0
vn -1.870227E-07 -1 0
vn 0 0 1
vn 0 0 1
vn 0 0 1
vn 0 0 1
vn 3.740454E-07 1 0
vn 3.740454E-07 1 0
vn 3.740455E-07 1 0
vn 3.740455E-07 1 0
vn -1 0 6.091227E-07
vn -1 -1.178675E-07 3.045613E-07
vn -1 -1.321213E-07 3.08993E-07
vn -1 -1.100065E-07 0
vn -1 0 0
vn -1 -2.204949E-07 1.963497E-07
vn -1 -2.118143E-07 2.381091E-07
vn -1 0 2.553381E-07
vn -1 0 1.761213E-07
vn -1 0 0
vn -1 0 0
vn 1 0 0
vn 1 0 0
vn 1 0 0
vn 1 0 0
vn -1 0 0
vn -1 0 0
vn -1 0 0
vn -1 0 0
vn -1.496182E-06 0 -1
vn -1.496182E-06 0 -1
vn -1.496182E-06 0 -1
vn -1.496182E-06 0 -1
vn 1.870227E-07 -1 0
vn 1.870227E-07 -1 0
vn 1.870227E-07 -1 0
vn 1.870227E-07 -1 0
vn 0 0 1
vn 0 0 1
vn 0 0 1
vn 0 0 1
vn -3.740454E-07 1 0
vn -3.740454E-07 1 0
vn -3.740454E-07 1 0
vn -3.740455E-07 1 0
g 01_baricade_cover_0
f 3/3/3 2/2/2 1/1/1
f 4/4/4 3/3/3 1/1/1
f 4/4/4 1/1/1 5/5/5
f 6/6/6 4/4/4 5/5/5
f 1/1/1 7/7/7 5/5/5
f 8/8/8 5/5/5 7/7/7
f 8/8/8 7/7/7 9/9/9
f 10/10/10 9/9/9 7/7/7
f 11/11/11 6/6/6 5/5/5
f 11/11/11 12/12/12 6/6/6
f 13/13/13 6/6/6 12/12/12
f 14/14/14 11/11/11 5/5/5
f 15/15/15 14/14/14 5/5/5
f 16/16/16 15/15/15 5/5/5
f 19/19/19 18/18/18 17/17/17
f 20/20/20 17/17/17 18/18/18
f 23/23/23 22/22/22 21/21/21
f 24/24/24 21/21/21 22/22/22
f 27/27/27 26/26/26 25/25/25
f 28/28/28 25/25/25 26/26/26
f 31/31/31 30/30/30 29/29/29
f 32/32/32 29/29/29 30/30/30
f 35/35/35 34/34/34 33/33/33
f 36/36/36 33/33/33 34/34/34
f 39/39/39 38/38/38 37/37/37
f 40/40/40 37/37/37 38/38/38
f 43/43/43 42/42/42 41/41/41
f 44/44/44 41/41/41 42/42/42
f 47/47/47 46/46/46 45/45/45
f 48/48/48 45/45/45 46/46/46
f 51/51/51 50/50/50 49/49/49
f 52/52/52 49/49/49 50/50/50
f 55/55/55 54/54/54 53/53/53
f 56/56/56 53/53/53 54/54/54
f 59/59/59 58/58/58 57/57/57
f 58/58/58 60/60/60 57/57/57
f 57/57/57 60/60/60 61/61/61
f 60/60/60 62/62/62 61/61/61
f 62/62/62 63/63/63 61/61/61
f 63/63/63 62/62/62 64/64/64
f 65/65/65 64/64/64 62/62/62
f 63/63/63 66/66/66 61/61/61
f 66/66/66 67/67/67 61/61/61
f 67/67/67 68/68/68 61/61/61
f 71/71/71 70/70/70 69/69/69
f 72/72/72 69/69/69 70/70/70
f 75/75/75 74/74/74 73/73/73
f 76/76/76 73/73/73 74/74/74
f 79/79/79 78/78/78 77/77/77
f 80/80/80 77/77/77 78/78/78
f 80/80/80 78/78/78 81/81/81
f 82/82/82 81/81/81 78/78/78
f 85/85/85 84/84/84 83/83/83
f 86/86/86 83/83/83 84/84/84
f 89/89/89 88/88/88 87/87/87
f 90/90/90 87/87/87 88/88/88
f 93/93/93 92/92/92 91/91/91
f 94/94/94 91/91/91 92/92/92
f 97/97/97 96/96/96 95/95/95
f 98/98/98 95/95/95 96/96/96
f 101/101/101 100/100/100 99/99/99
f 102/102/102 99/99/99 100/100/100
f 105/105/105 104/104/104 103/103/103
f 106/106/106 103/103/103 104/104/104
f 109/109/109 108/108/108 107/107/107
f 110/110/110 107/107/107 108/108/108
f 113/113/113 112/112/112 111/111/111
f 114/114/114 111/111/111 112/112/112
f 117/117/117 116/116/116 115/115/115
f 118/118/118 115/115/115 116/116/116
f 121/121/121 120/120/120 119/119/119
f 122/122/122 119/119/119 120/120/120
f 125/125/125 124/124/124 123/123/123
f 126/126/126 123/123/123 124/124/124
f 129/129/129 128/128/128 127/127/127
f 130/130/130 127/127/127 128/128/128
f 133/133/133 132/132/132 131/131/131
f 134/134/134 131/131/131 132/132/132
f 137/137/137 136/136/136 135/135/135
f 138/138/138 135/135/135 136/136/136
f 141/141/141 140/140/140 139/139/139
f 142/142/142 139/139/139 140/140/140
f 145/145/145 144/144/144 143/143/143
f 146/146/146 143/143/143 144/144/144
f 149/149/149 148/148/148 147/147/147
f 150/150/150 147/147/147 148/148/148
f 153/153/153 152/152/152 151/151/151
f 154/154/154 151/151/151 152/152/152
f 157/157/157 156/156/156 155/155/155
f 158/158/158 155/155/155 156/156/156
f 161/161/161 160/160/160 159/159/159
f 162/162/162 159/159/159 160/160/160
f 165/165/165 164/164/164 163/163/163
f 166/166/166 163/163/163 164/164/164
f 169/169/169 168/168/168 167/167/167
f 170/170/170 167/167/167 168/168/168
f 173/173/173 172/172/172 171/171/171
f 174/174/174 171/171/171 172/172/172
f 177/177/177 176/176/176 175/175/175
f 178/178/178 175/175/175 176/176/176
f 181/181/181 180/180/180 179/179/179
f 182/182/182 179/179/179 180/180/180
f 185/185/185 184/184/184 183/183/183
f 186/186/186 184/184/184 185/185/185
f 187/187/187 186/186/186 185/185/185
f 186/186/186 188/188/188 184/184/184
f 189/189/189 184/184/184 188/188/188
f 188/188/188 190/190/190 189/189/189
f 191/191/191 189/189/189 190/190/190
f 191/191/191 190/190/190 192/192/192
f 193/193/193 192/192/192 190/190/190
f 196/196/196 195/195/195 194/194/194
f 197/197/197 194/194/194 195/195/195
f 200/200/200 199/199/199 198/198/198
f 201/201/201 198/198/198 199/199/199
f 204/204/204 203/203/203 202/202/202
f 205/205/205 202/202/202 203/203/203
f 208/208/208 207/207/207 206/206/206
f 209/209/209 206/206/206 207/207/207
f 212/212/212 211/211/211 210/210/210
f 213/213/213 210/210/210 211/211/211
f 216/216/216 215/215/215 214/214/214
f 217/217/217 214/214/214 215/215/215
f 220/220/220 219/219/219 218/218/218
f 220/220/220 221/221/221 219/219/219
f 221/221/221 222/222/222 219/219/219
f 221/221/221 220/220/220 223/223/223
f 224/224/224 223/223/223 220/220/220
f 223/223/223 224/224/224 225/225/225
f 226/226/226 225/225/225 224/224/224
f 226/226/226 227/227/227 225/225/225
f 228/228/228 225/225/225 227/227/227
f 231/231/231 230/230/230 229/229/229
f 232/232/232 229/229/229 230/230/230
f 235/235/235 234/234/234 233/233/233
f 236/236/236 233/233/233 234/234/234
f 239/239/239 238/238/238 237/237/237
f 240/240/240 237/237/237 238/238/238
f 243/243/243 242/242/242 241/241/241
f 244/244/244 241/241/241 242/242/242
f 247/247/247 246/246/246 245/245/245
f 248/248/248 245/245/245 246/246/246
f 251/251/251 250/250/250 249/249/249
f 252/252/252 249/249/249 250/250/250
